<svg height='100px' width='100px'  fill="#000000" xmlns="http://www.w3.org/2000/svg" xmlns:xlink="http://www.w3.org/1999/xlink" version="1.1" x="0px" y="0px" viewBox="0 0 49 49" enable-background="new 0 0 49 49" xml:space="preserve"><path d="M35.258,20.385c-0.545-0.242-1.012-0.74-1.369-1.234c0.969-0.738,1.612-2.016,1.612-3.473c0-2.285-1.579-4.139-3.524-4.139  c-1.946,0-3.525,1.854-3.525,4.139c0,1.457,0.645,2.734,1.613,3.473c-0.357,0.494-1.476,1.33-2.303,1.398  c-0.625,0.051-3.896-1.539-3.896-1.539l-2.76-6.367c-0.156-0.42-0.539-0.705-0.971-0.752l-0.354-1.113  c-0.068-0.215-0.299-0.336-0.516-0.266c-0.217,0.068-0.336,0.299-0.268,0.516l0.34,1.068c-0.385,0.271-0.584,0.758-0.462,1.24  l1.741,6.893c0.064,0.26,0.21,0.502,0.432,0.686l0.061,0.049c0,0,2.807,2.848,4.516,4.559h6.352h7.562  C39.111,21.385,36.542,20.957,35.258,20.385z"></path><path d="M10.693,4.928c0-0.266,0.218-0.482,0.484-0.482h26.975V3.213H11.178c-0.947,0-1.717,0.77-1.717,1.715v17.613h1.232V4.928z"></path><rect x="12.529" y="6.029" width="17.843" height="0.734"></rect><rect x="12.529" y="8.322" width="23.238" height="0.732"></rect><rect x="12.529" y="10.615" width="5.418" height="0.732"></rect><path d="M37.011,34.469c0,1.393,0.615,2.615,1.543,3.32c-0.343,0.471-0.789,0.949-1.31,1.18c-1.227,0.547-3.682,0.955-4.09,4.91  h7.225h7.229c-0.408-3.955-2.863-4.363-4.09-4.91c-0.521-0.23-0.967-0.709-1.31-1.18c0.927-0.705,1.541-1.928,1.541-3.32  c0-2.184-1.509-3.955-3.37-3.955C38.52,30.514,37.011,32.285,37.011,34.469z"></path><path d="M31.727,43.879c-0.409-3.955-2.863-4.363-4.09-4.91c-0.521-0.23-0.968-0.709-1.311-1.18c0.928-0.705,1.541-1.928,1.541-3.32  c0-2.184-1.508-3.955-3.369-3.955c-1.859,0-3.367,1.771-3.367,3.955c0,1.393,0.613,2.615,1.541,3.32  c-0.342,0.471-0.789,0.949-1.31,1.18c-1.228,0.547-3.682,0.955-4.091,4.91h7.227H31.727z"></path><path d="M15.845,43.879c-0.409-3.955-2.864-4.363-4.091-4.91c-0.521-0.23-0.967-0.709-1.309-1.18  c0.926-0.705,1.541-1.928,1.541-3.32c0-2.184-1.51-3.955-3.369-3.955c-1.86,0-3.369,1.771-3.369,3.955  c0,1.393,0.615,2.615,1.542,3.32c-0.343,0.471-0.788,0.949-1.309,1.18c-1.228,0.547-3.683,0.955-4.091,4.91h7.227H15.845z"></path><rect x="0.5" y="44.697" width="48" height="1.09"></rect></svg>