<svg height='100px' width='100px'  fill="#000000" xmlns="http://www.w3.org/2000/svg" xmlns:xlink="http://www.w3.org/1999/xlink" version="1.1" baseProfile="tiny" x="0px" y="0px" viewBox="-11.5 12.5 24 24" xml:space="preserve"><g><circle cx="9" cy="16" r="0.5"></circle><circle cx="6" cy="16" r="0.5"></circle><circle cx="4" cy="15" r="0.5"></circle><circle cx="4" cy="17" r="0.5"></circle><circle cx="2" cy="16" r="0.5"></circle><path d="M-1.5,35.5h-2c-1.1,0-2-0.9-2-2c0-1.7-1.3-3-3-3s-3,1.3-3,3V34c0,0.3,0.2,0.5,0.5,0.5s0.5-0.2,0.5-0.5v-0.5   c0-1.1,0.9-2,2-2s2,0.9,2,2c0,1.7,1.3,3,3,3h2c0.3,0,0.5-0.2,0.5-0.5S-1.2,35.5-1.5,35.5z"></path><path d="M-6.5,18.5c0-0.7-0.4-1.4-1-1.7v-4.3h-3v4.3c-0.6,0.3-1,1-1,1.7v7h5V18.5z M-7.5,24.5h-3v-2h2v-3h-2v-1   c0-0.4,0.2-0.7,0.5-0.9l0.5-0.3v-3.9h1v3.9l0.5,0.3c0.3,0.2,0.5,0.5,0.5,0.9V24.5z"></path><path d="M-5.5,25.5h5c0-0.5-0.9-0.9-2-1v-2.9c1.1-0.2,2-1.2,2-2.4v-2.7h-5v2.7c0,1.2,0.9,2.2,2,2.4v2.9C-4.6,24.6-5.5,25-5.5,25.5z    M-4.5,19.2v-1.7h3v1.7c0,0.8-0.7,1.5-1.5,1.5S-4.5,20-4.5,19.2z"></path><circle cx="7.5" cy="19.5" r="2"></circle><path d="M11.9,24.6l-6-3c-0.4-0.2-0.9-0.1-1.2,0.2l-4,4c-0.1,0.1-0.2,0.3-0.3,0.5l-0.9,3.4l-3.4,0.9c-0.5,0.1-0.9,0.7-0.7,1.2   c0.1,0.5,0.5,0.8,1,0.8c0.1,0,0.2,0,0.2,0l4-1c0.4-0.1,0.6-0.4,0.7-0.7l0.5-2l1.3,2.7l-2.6,3.5c-0.3,0.4-0.2,1.1,0.2,1.4   c0.2,0.1,0.4,0.2,0.6,0.2c0.3,0,0.6-0.1,0.8-0.4l3-4c0.2-0.3,0.3-0.7,0.1-1l-1.7-3.4l0.6-0.6L3.2,26c-0.2-0.2-0.2-0.5,0-0.7   s0.5-0.2,0.7,0l2.9,2.9c0.2,0.2,0.5,0.3,0.7,0.3s0.5-0.1,0.7-0.3c0.4-0.4,0.4-1,0-1.4L6.4,25L7,24.4l4,2c0.5,0.2,1.1,0,1.3-0.4   C12.6,25.5,12.4,24.9,11.9,24.6z"></path></g></svg>