<svg height='100px' width='100px'  fill="#000000" xmlns="http://www.w3.org/2000/svg" xmlns:xlink="http://www.w3.org/1999/xlink" version="1.1" x="0px" y="0px" viewBox="0 0 139.409 250.202" style="enable-background:new 0 0 139.409 250.202;" xml:space="preserve"><g><path d="M43.991,195.524c-0.601-0.739-1.12-1.518-1.556-2.333c-2.464,1.956-5.416,3.454-8.681,4.392   c-2.757,0.791-5.706,0.79-8.504,0.108v40.148c0,6.828,5.537,12.363,12.365,12.363c6.826,0,12.363-5.535,12.363-12.363v-37.69   C47.676,199.074,45.599,197.511,43.991,195.524z"></path><path d="M29.689,162.815c-0.105-1.644,0.016-3.196,0.307-4.664c-1.652-1.287-3.228-2.566-4.745-3.841v10.705   c1.457-0.593,2.972-1.052,4.521-1.327C29.733,163.399,29.707,163.107,29.689,162.815z"></path><path d="M61.782,201.212c-2.276,0.653-4.686,0.758-7.031,0.391v36.236c0,6.828,5.537,12.363,12.365,12.363   c6.826,0,12.363-5.535,12.363-12.363v-43.301c-1.61-0.676-3.123-1.588-4.461-2.711C72.244,196.202,67.57,199.55,61.782,201.212z"></path><path d="M105.629,121.015c3.415,0.119,6.575,1.15,9.153,2.999c0.273-2.989,0.331-5.934,0.171-8.745   C112.281,117.646,109.188,119.552,105.629,121.015z"></path><path d="M125.822,131.149c0.379,0.055,0.756,0.083,1.131,0.083c3.435,0,6.608-2.23,7.653-5.69c1.277-4.23-1.118-8.692-5.347-9.969   c-0.923-0.278-1.823-0.575-2.719-0.877C126.977,119.975,126.725,125.595,125.822,131.149z"></path><path d="M97.132,25.666c0-8.479-14.079-15.609-33.194-17.705C63.662,3.532,58.564,0,52.298,0c-6.267,0-11.364,3.532-11.64,7.961   C21.543,10.057,7.464,17.187,7.464,25.666c0,6.445,8.142,12.11,20.441,15.379c0.347-3.737,1.555-7.371,3.595-10.651   c3.457-5.556,8.873-9.432,15.244-10.915c1.832-0.427,3.709-0.644,5.576-0.644c11.434,0,21.238,7.79,23.838,18.942   c0.254,1.093,0.423,2.185,0.525,3.271C88.986,37.779,97.132,32.113,97.132,25.666z"></path><path d="M47.196,21.426c-9.777,2.276-16.566,10.612-17.324,20.113c-0.18,2.255-0.023,4.575,0.518,6.896   c2.816,12.1,14.91,19.625,27.01,16.808c10.995-2.561,18.211-12.78,17.323-23.704c-0.089-1.098-0.258-2.202-0.515-3.307   C71.39,26.133,59.296,18.607,47.196,21.426z"></path><path d="M133.818,96.746c-12.426,4.113-23.241,0.099-32.893-8.11c-1.582-1.346-0.251,1.824-0.063,2.173   c1.04,1.945,2.377,3.876,4.068,5.311c2.622,2.231,5.347,4.171,8.17,5.76c-1.024,1.928-2.174,3.619-3.438,5.105   c-3.921,4.611-8.963,7.23-14.927,8.628c-1.248-1.021-2.661-1.771-4.17-2.278c-3.491-1.172-7.503-1.021-11.223,0.221   c-2.914,0.973-5.645,2.613-7.808,4.807c-1.359,1.379-2.496,2.973-3.307,4.76c-3.493-1.338-7.573-1.29-11.381-0.11   c-2.634,0.815-5.134,2.177-7.222,3.996c-3.621,3.153-6,7.685-5.648,13.175c0.102,1.581,0.529,3.038,1.165,4.378   c0.701,0.521,1.415,1.045,2.142,1.57c0.584,0.422,1.171,0.845,1.771,1.269c0.328,0.231,0.633,0.484,0.924,0.747   c0.906,0.817,1.632,1.772,2.169,2.813c0.356,0.23,0.703,0.477,1.027,0.754c0.574,0.489,1.1,1.038,1.575,1.632   c0.782,0.975,1.422,2.07,1.911,3.22c0.426,0.998,0.741,2.035,0.92,3.07c0.229,3.547-0.697,6.784-2.831,8.694   c-1.2,1.075-2.789,1.72-4.771,1.766c-0.6,0.015-1.226-0.011-1.898-0.112c-2.949-0.448-5.343-2.282-6.983-4.664   c-1.28-0.285-2.496-0.818-3.588-1.59c-0.539-0.382-1.049-0.76-1.576-1.14c-1.383-0.996-2.725-1.988-4.026-2.976   c-0.125,0.987-0.167,2.011-0.099,3.073c0.063,0.988,0.26,1.933,0.541,2.832c-2.406,0.144-4.84,0.764-7.099,1.793   c-6.107,2.784-10.932,8.587-10.439,16.25c0.383,5.961,4.998,10.403,10.439,11.926c2.574,0.72,5.332,0.793,7.918,0.052   c3.901-1.121,7.466-3.179,10.088-5.988c0.964,3.589,3.519,6.45,6.723,8.208c1.481,0.813,3.101,1.383,4.771,1.682   c2.135,0.382,4.346,0.327,6.446-0.275c5.911-1.694,11.057-5.531,13.286-10.904c1.334,1.653,3.063,2.994,4.996,3.942   c3.251,1.595,7.083,2.079,10.598,1.071c7.89-2.265,14.426-8.327,14.458-16.785c1.694,0.141,3.412,0.008,5.056-0.461   c8.239-2.364,15.022-8.864,14.441-17.92c-0.789-4.55-2.916-7.697-5.731-9.648c2.59-5.37,4.449-11.542,5.463-17.852   c0.901-5.608,1.126-11.321,0.581-16.688c-0.291-2.864-0.79-5.633-1.534-8.227c5.226,1.174,10.742,1.021,16.549-0.902   C139.9,104.613,135.828,96.083,133.818,96.746z M107.505,171.349c-5.011-0.758-8.433-5.514-9.242-10.191   c-0.503-2.9,0.182-5.561,1.692-7.476c1.586,0.097,3.179-0.054,4.718-0.495c0.749-0.218,1.484-0.479,2.205-0.759   c0.886-0.348,1.744-0.74,2.568-1.185c2.022,0.715,3.694,2.109,4.978,3.824c1.314,1.759,2.223,3.847,2.583,5.932   C117.402,167.149,114.36,172.389,107.505,171.349z M79.48,181.036c-0.333-0.862-0.58-1.749-0.732-2.633   c-0.379-2.187-0.082-4.233,0.732-5.931c0.278-0.579,0.615-1.119,1.008-1.607c1.901-0.732,3.691-1.692,5.286-2.862   c0.781-0.086,1.607-0.081,2.476,0.051c5.013,0.76,8.436,5.516,9.244,10.191c0.396,6.148-2.646,11.39-9.5,10.35   C83.928,187.978,80.907,184.733,79.48,181.036z M79.343,117.63c1.214-0.384,2.58-0.503,4.063-0.278   c0.549,0.083,1.075,0.235,1.586,0.408c2.334,0.799,4.238,2.474,5.584,4.544c1.029,1.581,1.737,3.374,2.057,5.17   c-3.199,2.536-5.563,6.09-6.185,10.396c-0.982,0.185-2.078,0.206-3.3,0.022c-1.348-0.205-2.574-0.704-3.668-1.411   c-0.047-0.03-0.091-0.065-0.137-0.096c-0.996-0.667-1.882-1.501-2.638-2.453c-0.003-0.003-0.007-0.012-0.01-0.016   c-0.117-0.147-0.223-0.299-0.333-0.453c-1.244-1.721-2.11-3.737-2.461-5.763c-0.025-0.141-0.031-0.277-0.051-0.414   c-0.344-2.536,0.221-4.864,1.442-6.645C76.263,119.228,77.649,118.165,79.343,117.63z M110.089,145.984   c-0.754,0.95-1.723,1.684-2.9,2.137c-0.922,0.354-1.97,0.534-3.156,0.506c-0.461-0.011-0.94-0.042-1.446-0.119   c-0.534-0.08-1.043-0.229-1.542-0.401c-4.131-1.388-6.931-5.553-7.678-9.694c-0.007-0.031-0.018-0.063-0.024-0.094   c-0.14-0.807-0.184-1.591-0.148-2.35c0.113-2.542,1.166-4.753,2.877-6.224c0.965-0.829,2.136-1.426,3.468-1.708   c1.015-0.211,2.126-0.248,3.306-0.069c5.011,0.761,8.436,5.518,9.244,10.19C112.284,141.211,111.631,144.037,110.089,145.984z    M92.846,153.657c-0.166-0.959-0.41-1.835-0.688-2.672c0.939,0.645,1.946,1.184,3.008,1.606c-0.928,1.062-1.732,2.233-2.365,3.511   C92.868,155.307,92.898,154.497,92.846,153.657z M91.288,161.585c-0.052,0.546-0.068,1.103-0.061,1.668   c-0.293-0.012-0.59-0.02-0.888-0.021C90.687,162.702,91.007,162.155,91.288,161.585z M85.236,142.568   c0.41-0.116,0.81-0.25,1.207-0.388c0.082,0.556,0.197,1.1,0.351,1.625c-0.664-0.434-1.354-0.813-2.083-1.117   C84.885,142.645,85.064,142.62,85.236,142.568z M55.883,145.557c-0.4-0.306-0.774-0.646-1.132-1.004   c-1.963-1.953-3.291-4.607-3.748-7.261c-0.709-4.084,0.926-7.691,3.926-9.404c1.542-0.88,3.439-1.27,5.577-0.946   c2.626,0.399,4.801,1.907,6.405,3.912c0.228,2.638,1.269,4.977,2.857,6.878c0.073,2.732-0.542,5.241-1.894,7.051   c-1.007,0.649-1.953,1.395-2.818,2.223c-1.319,0.559-2.912,0.766-4.81,0.479c-0.444-0.066-0.861-0.203-1.277-0.33   C58.015,146.479,56.975,145.958,55.883,145.557z M68.761,149.235c0.764-0.971,1.733-1.745,2.88-2.264   c1.419-0.64,3.084-0.897,4.932-0.615c0.989,0.149,1.913,0.46,2.77,0.89c0.046,0.023,0.091,0.05,0.137,0.074   c3.412,1.778,5.698,5.523,6.34,9.226c0.196,3.061-0.459,5.889-2.007,7.837c-1.037,1.301-2.479,2.203-4.333,2.518   c-0.219,0.037-0.441,0.07-0.672,0.091c-0.766,0.068-1.594,0.043-2.489-0.095c-5.014-0.758-8.437-5.514-9.248-10.188   c-0.009-0.049-0.01-0.096-0.018-0.144C66.597,153.719,67.279,151.118,68.761,149.235z M72.815,174.421   c-1.065-1.416-2.345-2.545-3.782-3.379c1.577,0.612,3.257,0.972,4.949,1.039C73.529,172.821,73.147,173.607,72.815,174.421z    M67.113,170.135c-2.286-0.88-4.815-1.165-7.361-0.929c0.997-0.986,1.871-2.078,2.596-3.262   C63.582,167.67,65.23,169.093,67.113,170.135z M49.98,180.102c0.636-2.627,2.355-4.706,4.771-5.673   c1.348-0.539,2.903-0.742,4.617-0.483c5.012,0.761,8.436,5.515,9.247,10.193c0.394,6.148-2.647,11.386-9.503,10.349   c-1.636-0.247-3.1-0.926-4.361-1.884c-2.455-1.863-4.131-4.796-4.771-7.766c-0.039-0.181-0.081-0.361-0.112-0.542   C49.609,182.813,49.667,181.394,49.98,180.102z M47.31,175.146c-0.078,0.084-0.164,0.159-0.242,0.244   c-0.021-0.077-0.049-0.146-0.074-0.22C47.101,175.165,47.204,175.154,47.31,175.146z M40.585,180.51   c0.393,6.15-2.646,11.39-9.504,10.351c-2.319-0.353-4.293-1.566-5.83-3.226c-1.783-1.926-2.977-4.454-3.412-6.964   c-0.669-3.85,0.737-7.284,3.412-9.101c1.622-1.102,3.71-1.609,6.088-1.249C36.352,171.081,39.773,175.839,40.585,180.51z    M116.429,128.031c-0.025,0.166-0.044,0.333-0.07,0.499c-0.203-0.275-0.419-0.534-0.639-0.787   c-2.531-2.925-6.093-4.369-9.874-4.571c-2.091-0.112-4.246,0.146-6.331,0.757c-0.225-1.048-0.507-2.033-0.871-2.928   c0.769-0.182,1.523-0.383,2.268-0.6c6.14-1.783,11.43-4.8,15.581-9.774c0.038-0.045,0.077-0.087,0.114-0.132   c0.01,0.067,0.016,0.135,0.025,0.2C117.424,116.166,117.313,122.152,116.429,128.031z"></path><path d="M25.251,151.696c0.298,0.257,0.603,0.514,0.907,0.771c1.397,1.182,2.861,2.375,4.391,3.579   c0.087,0.067,0.17,0.135,0.257,0.203c0.507,0.397,1.024,0.796,1.546,1.196c1.234,0.945,2.498,1.898,3.815,2.857   c0.816,0.596,1.647,1.193,2.497,1.794c0.329,0.232,0.671,0.431,1.02,0.606c0.886,0.447,1.824,0.701,2.772,0.799   c0.273,0.028,0.546,0.062,0.818,0.062c2.51,0,4.98-1.177,6.541-3.382c0.06-0.085,0.108-0.173,0.164-0.259   c0.68-1.046,1.092-2.192,1.238-3.358c0.171-1.36-0.016-2.741-0.527-4.007c-0.191-0.474-0.429-0.93-0.711-1.363   c-0.412-0.633-0.918-1.215-1.518-1.724c-0.18-0.152-0.364-0.302-0.561-0.44c-0.899-0.635-1.769-1.264-2.623-1.888   c-0.571-0.418-1.131-0.833-1.683-1.246c-0.667-0.5-1.317-0.996-1.955-1.489c-7.149-5.521-12.492-10.588-16.359-15.113   c-0.01-0.012-0.021-0.023-0.03-0.035c-1.197-1.403-2.258-2.756-3.182-4.053c-0.348-0.488-0.671-0.966-0.982-1.437   c-3.94-5.955-5.075-10.525-5.086-14.088c0.012-3.221,0.919-5.913,2.483-8.518c1.66-2.775,4.186-5.301,6.767-7.341v32.282   c0.148,0.188,0.29,0.374,0.441,0.562c4.007,4.968,9.509,10.185,16.428,15.587c-0.132-0.64-0.221-1.286-0.262-1.936   c-0.385-5.984,2.172-11.573,7.035-15.468c0.224-0.179,0.446-0.358,0.68-0.53c2.95-2.174,6.386-3.56,9.847-4.087   c2.636-0.402,5.286-0.307,7.746,0.323c0.591-1.003,1.298-1.939,2.071-2.826c2.574-2.946,6.087-5.184,10.105-6.379v-8.006   c2.261,2.318,4.823,4.727,7.681,7.135c3.033,0.24,5.849,1.188,8.188,2.824c5.31-1.395,9.413-3.827,12.592-7.446   c-7.018-4.373-12.668-9.232-17.046-13.723c-4.082-4.19-7.044-8.038-8.95-10.782c-0.954-1.372-1.642-2.469-2.078-3.19   c-0.216-0.361-0.371-0.629-0.462-0.791c-0.046-0.08-0.076-0.135-0.091-0.162h-0.001c-0.944-1.784-2.471-3.057-4.22-3.724   c-1.012-0.487-2.143-0.768-3.341-0.768H32.98c-0.646,0-1.271,0.088-1.872,0.237c-0.923,0.024-1.856,0.201-2.763,0.564h-0.003   c-0.445,0.197-6.881,2.751-13.742,8.328c-3.424,2.803-6.981,6.392-9.794,11.017C1.997,97.464-0.01,103.211,0,109.683   c-0.01,7.783,2.87,16.209,9.05,24.826c1.601,2.235,3.425,4.499,5.484,6.796C17.565,144.687,21.118,148.145,25.251,151.696z"></path></g></svg>