<svg height='100px' width='100px'  fill="#000000" xmlns="http://www.w3.org/2000/svg" xmlns:xlink="http://www.w3.org/1999/xlink" version="1.1" x="0px" y="0px" viewBox="0 0 33 33" enable-background="new 0 0 33 33" xml:space="preserve"><path d="M11.135,19.343v-2.767H8.912v0.887H6.754v-0.887H4.53v2.767c0,0.355,0.288,0.645,0.645,0.645h5.317  C10.848,19.987,11.135,19.698,11.135,19.343z"></path><circle cx="14.522" cy="2.989" r="2.489"></circle><path d="M10.751,26.014l3.366-4.152c0.159-0.195,0.254-0.436,0.273-0.688l0.275-3.652l2.459,1.989l0.754,4.942  c0.093,0.613,0.621,1.053,1.223,1.053c0.062,0,0.125-0.005,0.188-0.015c0.677-0.104,1.141-0.735,1.038-1.411L19.5,18.663  c-0.046-0.306-0.205-0.582-0.445-0.777l-2.986-2.414c0.001-0.014,0.005-0.026,0.005-0.04l0.061-3.869l0.922,0.967  c0.145,0.151,0.331,0.259,0.534,0.311l3.578,0.901c0.092,0.022,0.183,0.034,0.273,0.034c0.499,0,0.953-0.337,1.081-0.844  c0.15-0.597-0.212-1.202-0.809-1.353l-3.267-0.822l-2.263-2.37l0.004-0.235c0.018-1.14-0.892-2.078-2.032-2.096  c-0.82-0.01-1.571,0.49-1.908,1.218l-3.012,3.096c-0.08,0.083-0.147,0.176-0.198,0.278l-1.789,3.574  c-0.047,0.094-0.059,0.191-0.078,0.288H6.595H5.174c-0.356,0-0.645,0.289-0.645,0.645v1.073h6.605v-1.073  c0-0.355-0.288-0.645-0.644-0.645H9.598l1.356-2.71l1.064-1.094l-0.073,4.661c-0.006,0.41,0.111,0.793,0.313,1.117l-0.311,4.118  l-3.121,3.851c-0.431,0.532-0.349,1.312,0.182,1.742c0.229,0.187,0.505,0.276,0.779,0.276  C10.148,26.472,10.506,26.315,10.751,26.014z"></path><path d="M27.954,23.895h-5.939c-0.285,0-0.516,0.23-0.516,0.516v2.009h-5.535c-0.285,0-0.516,0.23-0.516,0.516v2.01H9.915  c-0.285,0-0.516,0.23-0.516,0.516v2.524c0,0.285,0.231,0.516,0.516,0.516s0.516-0.23,0.516-0.516v-2.008h5.533  c0.285,0,0.516-0.231,0.516-0.517v-2.009h5.535c0.285,0,0.516-0.231,0.516-0.517v-2.009h5.423c0.285,0,0.516-0.231,0.516-0.516  C28.47,24.125,28.239,23.895,27.954,23.895z"></path></svg>