<svg xmlns="http://www.w3.org/2000/svg" xmlns:xlink="http://www.w3.org/1999/xlink" version="1.1" x="0px" y="0px" viewBox="0 0 202.681 296.48" style="enable-background:new 0 0 202.681 237.184;" xml:space="preserve"><g><path d="M77.054,88.941V74.862c0.593,1.217,1.19,2.611,1.781,4.239c0.804,2.228,1.569,4.879,2.255,7.973   c4.87-2.006,10.094-3.318,15.552-3.816c-2.025-8.964-4.83-15.516-8.06-20.452c-3.285-4.984-7.128-8.182-10.68-9.954   c-3.357-1.692-6.313-2.096-8.125-2.13c-0.15-0.009-0.3-0.022-0.452-0.022H30.69c-0.152,0-0.3,0.014-0.45,0.022   c-1.811,0.034-4.768,0.437-8.128,2.13c-5.378,2.667-11.178,8.503-15.234,18.84C2.77,82.071,0.013,97.077,0,119.736   c0,5.859,0.189,12.228,0.595,19.16c0.249,4.25,3.775,7.532,7.978,7.533c0.158,0,0.316-0.005,0.476-0.015   c4.412-0.259,7.778-4.043,7.519-8.453C16.178,131.31,16,125.253,16,119.736c-0.034-24.21,3.494-37.812,6.962-44.913V224.82   c0,6.83,5.537,12.363,12.363,12.363c6.828,0,12.365-5.533,12.365-12.363v-84.617c-0.062-1.055-0.101-2.114-0.101-3.184   C47.589,116.076,59.582,97.894,77.054,88.941z"/><path d="M52.325,159.092v65.729c0,6.83,5.537,12.363,12.363,12.363c6.828,0,12.365-5.533,12.365-12.363V185.1   C66.14,179.507,57.374,170.314,52.325,159.092z"/><circle cx="50.009" cy="22.5" r="22.5"/><path d="M180.569,52.852c-3.359-1.692-6.315-2.096-8.127-2.13c-0.15-0.009-0.299-0.022-0.451-0.022h-38.635   c-0.152,0-0.301,0.014-0.451,0.022c-1.813,0.034-4.77,0.438-8.128,2.13c-5.378,2.667-11.176,8.503-15.234,18.84   c-1.317,3.331-2.494,7.146-3.488,11.529c5.462,0.45,10.694,1.714,15.578,3.674c1.183-5.269,2.594-9.203,3.996-12.073v13.865   c17.741,8.86,29.961,27.192,29.961,48.333c0,2.722-0.207,5.396-0.598,8.011v79.79c0,6.83,5.537,12.363,12.363,12.363   c6.828,0,12.365-5.533,12.365-12.363V74.86c0.593,1.217,1.191,2.612,1.782,4.241c2.818,7.81,5.188,20.629,5.179,40.637   c0,5.515-0.177,11.571-0.564,18.224c-0.259,4.41,3.107,8.194,7.519,8.453c0.159,0.01,0.318,0.015,0.475,0.015   c4.205,0,7.73-3.283,7.978-7.533c0.404-6.937,0.592-13.303,0.592-19.158c-0.041-30.183-4.861-46.888-11.434-56.933   C187.962,57.821,184.119,54.624,180.569,52.852z"/><path d="M125.628,185.354v39.467c0,6.83,5.537,12.363,12.363,12.363c6.828,0,12.365-5.533,12.365-12.363v-64.633   C145.159,171.083,136.414,179.967,125.628,185.354z"/><circle cx="152.675" cy="22.5" r="22.5"/><path d="M101.589,87.02c-27.615,0-50,22.387-50,50c0,27.615,22.385,50,50,50c27.613,0,50-22.385,50-50   C151.589,109.406,129.202,87.02,101.589,87.02z M101.587,175.02c-20.951,0-38-17.047-38-37.998c0-20.955,17.049-38.002,38-38.002   c20.955,0,38.002,17.047,38.002,38.002C139.589,157.973,122.542,175.02,101.587,175.02z"/><polygon points="100.794,115.02 100.794,131.02 77.794,131.02 77.794,143.02 100.794,143.02 100.794,159.02 124.89,137.02  "/></g><text x="0" y="252.184" fill="#000000" font-size="5px" font-weight="bold" font-family="'Helvetica Neue', Helvetica, Arial-Unicode, Arial, Sans-serif">Created by Gan Khoon Lay</text><text x="0" y="257.18399999999997" fill="#000000" font-size="5px" font-weight="bold" font-family="'Helvetica Neue', Helvetica, Arial-Unicode, Arial, Sans-serif">from the Noun Project</text></svg>