<svg xmlns="http://www.w3.org/2000/svg" version="1.1" viewBox="0 0 64 80" x="0px" y="0px"><path d="m34.540708 4.5993649c-1.6717334-0.9651757-3.8159132-0.39064444-4.7810889 1.2810889l-21.5 37.239092c-0.9651757 1.6717334-0.39064444 3.8159132 1.2810889 4.7810889l19.918584 11.5c1.6717334 0.9651757 3.8159132 0.39064444 4.7810889-1.2810889l21.5-37.239092c0.9651757-1.6717334 0.39064443-3.8159132-1.2810889-4.7810889zm6.3612159 5.9820508a1 1 0 0 1 0.3660254 1.3660254 1 1 0 0 1-1.3660254 0.3660254 1 1 0 0 1-0.36602541-1.3660254 1 1 0 0 1 1.3660254-0.36602541zm2.3480762 1.9330127 3.4641016 2-0.5 0.86602541-3.4641016-2zm-6.4820508 7.2272413 3.4641016 2-1.5 2.5980762 2.5980762 1.5-2 3.4641016-2.5980762-1.5-1.5 2.5980762-3.4641016-2 1.5-2.5980762-2.5980762-1.5 2-3.4641016 2.5980762 1.5zm0.36602541 1.3660254-1.5 2.5980762-2.5980762-1.5-1 1.7320508 2.5980762 1.5-1.5 2.5980762 1.7320508 1 1.5-2.5980762 2.5980762 1.5 1-1.7320508-2.5980762-1.5 1.5-2.5980762zm-13.098076 16.686533 0.86602541 0.5c-1.9359578 3.3531773-0.79099945 7.62622 2.5621778 9.5621778l-0.5 0.8660254c-3.8212121-2.2061778-5.1343811-7.1069911-2.9282032-10.928203zm1.7320508 1 0.86602541 0.5c-0.32180131 0.55737621-0.51318494 1.1516586-0.60471765 1.7505267l-1.0378591 0.27809352c0.0666854-0.86521147 0.31457387-1.7284517 0.77655138-2.5286202zm1.2971882 6.1164853c0.37870363 0.47286857 0.84158798 0.89184045 1.3989642 1.2136418l-0.5 0.86602541c-0.80016848-0.46197749-1.4464664-1.0856212-1.9368233-1.8015736zm-9.529239 4.141845 6.9282032 4-0.5 0.86602541-6.9282032-4z" style="color-rendering:auto;color:#000000;dominant-baseline:auto;font-feature-settings:normal;font-variant-alternates:normal;font-variant-caps:normal;font-variant-ligatures:normal;font-variant-numeric:normal;font-variant-position:normal;image-rendering:auto;isolation:auto;mix-blend-mode:normal;paint-order:fill markers stroke;shape-padding:0;shape-rendering:auto;solid-color:#000000;text-decoration-color:#000000;text-decoration-line:none;text-decoration-style:solid;text-indent:0;text-orientation:mixed;text-transform:none;white-space:normal;" fill="#000000"/><path d="m15.525425 14.335582-0.47478584 0.15438444c-2.3489657 0.76395997-4.3322616 2.3708847-5.5672995 4.5100332-1.2347898 2.1387187-1.6336002 4.6589157-1.121177 7.074748l0.10271552 0.49006026 0.97771417-0.20907562-0.10369208-0.4883688c-0.46123449-2.1745016-0.10097513-4.4422936 1.0104647-6.3673638 1.1116634-1.9254574 2.896443-3.3701496 5.0107579-4.0577935l0.4757624-0.15607587z" style="color-rendering:auto;color:#000000;dominant-baseline:auto;font-feature-settings:normal;font-variant-alternates:normal;font-variant-caps:normal;font-variant-ligatures:normal;font-variant-numeric:normal;font-variant-position:normal;image-rendering:auto;isolation:auto;mix-blend-mode:normal;paint-order:fill markers stroke;shape-padding:0;shape-rendering:auto;solid-color:#000000;text-decoration-color:#000000;text-decoration-line:none;text-decoration-style:solid;text-indent:0;text-orientation:mixed;text-transform:none;white-space:normal;" fill="#000000"/><path d="m16.539769 18.195873-0.46978158 0.17306057c-1.3163757 0.48471819-2.4211561 1.4162216-3.122547 2.6310663-0.7014213 1.2148973-0.95575749 2.6373114-0.71729676 4.0197382l0.0850159 0.49337306 0.9867461-0.1700319-0.085016-0.49337306c-0.19874969-1.1522104 0.0119629-2.3371265 0.59657609-3.3497063 0.5845878-1.0125358 1.5054839-1.7875053 2.6026427-2.1915032l0.46978158-0.17306056z" style="color-rendering:auto;color:#000000;dominant-baseline:auto;font-feature-settings:normal;font-variant-alternates:normal;font-variant-caps:normal;font-variant-ligatures:normal;font-variant-numeric:normal;font-variant-position:normal;image-rendering:auto;isolation:auto;mix-blend-mode:normal;paint-order:fill markers stroke;shape-padding:0;shape-rendering:auto;solid-color:#000000;text-decoration-color:#000000;text-decoration-line:none;text-decoration-style:solid;text-indent:0;text-orientation:mixed;text-transform:none;white-space:normal;" fill="#000000"/><path d="m55.535122 37.435191-0.97842907 0.2064076 0.10271552 0.49006025c0.46164036 2.1748724 0.10289006 4.442883-1.0087733 6.3683404-1.1114399 1.9250704-2.8952756 3.37096-5.0090665 4.05877l-0.47478582 0.15438443 0.30779229 0.95126312 0.47576238-0.15607589c2.3483838-0.76414459 4.3315332-2.3696231 5.566323-4.5083418 1.235038-2.1391485 1.6350277-4.6601954 1.1221536-7.0764394z" style="color-rendering:auto;color:#000000;dominant-baseline:auto;font-feature-settings:normal;font-variant-alternates:normal;font-variant-caps:normal;font-variant-ligatures:normal;font-variant-numeric:normal;font-variant-position:normal;image-rendering:auto;isolation:auto;mix-blend-mode:normal;paint-order:fill markers stroke;shape-padding:0;shape-rendering:auto;solid-color:#000000;text-decoration-color:#000000;text-decoration-line:none;text-decoration-style:solid;text-indent:0;text-orientation:mixed;text-transform:none;white-space:normal;" fill="#000000"/><path d="m51.68484 38.486889-0.9867461 0.17003191 0.0850159 0.49337306c0.19870703 1.1521662-0.0119883 2.3371705-0.59657609 3.3497063-0.58461315 1.0125797-1.5054244 1.7875202-2.6026427 2.1915032l-0.46978158 0.17306056 0.3461211 0.93956314 0.46978158-0.17306056c1.3164471-0.48470038 2.4211257-1.4161689 3.122547-2.6310663 0.7013909-1.2148447 0.95570628-2.6373643 0.71729676-4.0197382z" style="color-rendering:auto;color:#000000;dominant-baseline:auto;font-feature-settings:normal;font-variant-alternates:normal;font-variant-caps:normal;font-variant-ligatures:normal;font-variant-numeric:normal;font-variant-position:normal;image-rendering:auto;isolation:auto;mix-blend-mode:normal;paint-order:fill markers stroke;shape-padding:0;shape-rendering:auto;solid-color:#000000;text-decoration-color:#000000;text-decoration-line:none;text-decoration-style:solid;text-indent:0;text-orientation:mixed;text-transform:none;white-space:normal;" fill="#000000"/><text x="0" y="79" fill="#000000" font-size="5px" font-weight="bold" font-family="'Helvetica Neue', Helvetica, Arial-Unicode, Arial, Sans-serif">Created by Frey Wazza</text><text x="0" y="84" fill="#000000" font-size="5px" font-weight="bold" font-family="'Helvetica Neue', Helvetica, Arial-Unicode, Arial, Sans-serif">from the Noun Project</text></svg>