<svg xmlns="http://www.w3.org/2000/svg" xmlns:xlink="http://www.w3.org/1999/xlink" version="1.0" x="0px" y="0px" viewBox="0 0 100 125" enable-background="new 0 0 100 100" xml:space="preserve"><path d="M55.6263847,91.9725494h27.6367226c1.1035233,0,1.9960785-0.8925552,1.9960785-1.9960709V48.5944099  c0-1.1035194-0.8925552-1.9960747-1.9960785-1.9960747H16.7434711c-1.1035223,0-1.9960766,0.8925552-1.9960766,1.9960747v41.3820686  c0,1.1035156,0.8925543,1.9960709,1.9960766,1.9960709h27.9937496c1.1035194,0,1.9960747-0.8925552,1.9960747-1.9960709V66.7051468  h6.8970108v23.2713318C53.6303062,91.0799942,54.5228615,91.9725494,55.6263847,91.9725494z M64.6168365,63.7191505  l4.2518082-6.085598c2.4829254-1.6552811,4.0246048,2.7425766,6.4750748,6.085598  c0.2758789,0.3407936,0.4381638,0.7789574,0.4381638,1.2495766c0,12.1225128,1.0710678,11.4896088-4.9009323,11.4896088  c-8.049221,0-6.7022781,1.4118576-6.7022781-11.4896088C64.1786728,64.4981079,64.3409576,64.0599442,64.6168365,63.7191505z   M25.0198841,63.7191505l4.2518044-6.085598c2.4829235-1.6552811,4.0408382,2.7588043,6.4750767,6.085598  c0.2758789,0.3407936,0.4381599,0.7789574,0.4381599,1.2495766c0,12.1225128,1.0710678,11.4896088-4.8847046,11.4896088  c-8.0654449,0-6.7185001,1.4118576-6.7185001-11.4896088C24.5817204,64.4981079,24.7440033,64.0599442,25.0198841,63.7191505z"/><path d="M18.0255032,31.4086838V14.7584877c0-1.1035213,0.8925552-1.9960756,1.9960766-1.9960756h7.0917492  c1.1035213,0,1.9960766,0.8925543,1.9960766,1.9960756v8.3575554L48.7780571,8.4456949  c0.6978149-0.5355325,1.6877403-0.5679893,2.4180107-0.0324564l39.921524,29.7950859  c1.6390533,1.1846619,0.7627258,3.6513596-1.1359787,3.6513596H10.024971c-1.9149351,0-2.7425761-2.45047-1.2008915-3.6026764  L18.0255032,31.4086838z"/><text x="0" y="115" fill="#000000" font-size="5px" font-weight="bold" font-family="'Helvetica Neue', Helvetica, Arial-Unicode, Arial, Sans-serif">Created by sofi</text><text x="0" y="120" fill="#000000" font-size="5px" font-weight="bold" font-family="'Helvetica Neue', Helvetica, Arial-Unicode, Arial, Sans-serif">from the Noun Project</text></svg>