<svg xmlns="http://www.w3.org/2000/svg" xmlns:xlink="http://www.w3.org/1999/xlink" version="1.1" x="0px" y="0px" viewBox="0 0 100 125" enable-background="new 0 0 100 100" xml:space="preserve"><g><path fill="#000000" d="M25.4,59.1c-4.7,0-8.4,3.8-8.4,8.4s3.8,8.4,8.4,8.4s8.4-3.8,8.4-8.4S30,59.1,25.4,59.1z M25.4,72.3   c-2.6,0-4.7-2.1-4.7-4.7s2.1-4.7,4.7-4.7s4.7,2.1,4.7,4.7S28,72.3,25.4,72.3z"/><path fill="#000000" d="M70.3,59.1c-4.7,0-8.4,3.8-8.4,8.4s3.8,8.4,8.4,8.4s8.4-3.8,8.4-8.4S75,59.1,70.3,59.1z M70.3,72.3   c-2.6,0-4.7-2.1-4.7-4.7c0-2.6,2.1-4.7,4.7-4.7c2.6,0,4.7,2.1,4.7,4.7C75.1,70.2,73,72.3,70.3,72.3z"/><path fill="#000000" d="M93.5,54.7h-4.3c-0.8,0-1.5,0.7-1.5,1.5v2.3c0,0.8,0.7,1.5,1.5,1.5h4.3c0.8,0,1.5-0.7,1.5-1.5v-2.3   C95,55.4,94.3,54.7,93.5,54.7z"/><path fill="#000000" d="M93.6,46.9L77.9,26.2c-1.1-1.4-2.6-2.2-4.2-2.2H13.8c-2.5,0-4.7,2-5.4,4.8C5.1,42.6,4.8,54.4,5.1,61.2   c0.1,3.5,2.6,6.3,5.6,6.3h3.6c0-6.1,5-11.1,11.1-11.1s11.1,5,11.1,11.1h22.8c0-6.1,5-11.1,11.1-11.1c6.1,0,11.1,5,11.1,11.1h8   c2.9,0,5.2-2.6,5.6-5.8h-6.4c-1.5,0-2.8-1.3-2.8-2.8v-3c0-1.5,1.3-2.8,2.8-2.8H95v-1.9C95,49.7,94.5,48.1,93.6,46.9z M30.8,41.4   c0,1.4-1.2,2.6-2.6,2.6H18.2c-1.4,0-2.6-1.2-2.6-2.6V31.1c0-1.4,1.2-2.6,2.6-2.6h10.1c1.4,0,2.6,1.2,2.6,2.6V41.4z M49.8,41.4   c0,1.4-1.2,2.6-2.6,2.6H37.1c-1.4,0-2.6-1.2-2.6-2.6V31.1c0-1.4,1.2-2.6,2.6-2.6h10.1c1.4,0,2.6,1.2,2.6,2.6V41.4z M61.9,49.5h-2.7   c-0.5,0-0.9-0.4-0.9-0.9s0.4-0.9,0.9-0.9h2.7c0.5,0,0.9,0.4,0.9,0.9S62.4,49.5,61.9,49.5z M81.1,43.9H59.6c-1.4,0-2.6-1.2-2.6-2.6   V31c0-1.4,1.2-2.6,2.6-2.6h13.8c0.8,0,1.6,0.4,2.1,1l7.7,10.3C84.4,41.5,83.2,43.9,81.1,43.9z"/></g><text x="0" y="115" fill="#000000" font-size="5px" font-weight="bold" font-family="'Helvetica Neue', Helvetica, Arial-Unicode, Arial, Sans-serif">Created by parkjisun</text><text x="0" y="120" fill="#000000" font-size="5px" font-weight="bold" font-family="'Helvetica Neue', Helvetica, Arial-Unicode, Arial, Sans-serif">from the Noun Project</text></svg>