<svg xmlns="http://www.w3.org/2000/svg" xmlns:xlink="http://www.w3.org/1999/xlink" version="1.1" x="0px" y="0px" viewBox="0 0 100 125" enable-background="new 0 0 100 100" xml:space="preserve"><path fill-rule="evenodd" clip-rule="evenodd" d="M88.139,15.56c4.614,0.813,7.612,5.681,6.696,10.871  c-0.84,4.767-4.688,8.147-8.885,8.037c0.163,0.594,0.256,1.211,0.186,1.609c-0.051,0.287-0.327,0.48-0.614,0.43l-0.29-0.051  c-0.158,2.376-0.254,4.705-0.348,7.008c-0.357,8.73-0.7,17.1-4.389,26.378c0.148,0.16,0.297,0.322,0.445,0.485  c0.984,1.081,0.905,2.755-0.176,3.738c-1.08,0.983-2.754,0.904-3.738-0.176c-3.095-3.395-5.932-5.955-8.479-7.604l-0.094-0.06  c-0.123,1.232-0.259,2.812-0.308,4.395c-0.108,3.554,0.251,6.888,0.96,10.321c0.603,2.916,1.381,6.685,4.23,7.525  c1.681,0.494,2.644,2.258,2.149,3.938c-0.494,1.682-2.258,2.644-3.939,2.149c-6.408-1.891-7.679-7.635-8.614-12.156  c-0.441,1.072-0.82,2.12-1.16,3.195c-0.652,2.059-1.152,4.222-1.68,6.846c-0.343,1.722-2.017,2.84-3.739,2.497  s-2.841-2.018-2.498-3.74c0.567-2.83,1.117-5.192,1.853-7.516c3.276-10.349,1.53-2.094,1.876-13.351  c0.055-1.769,0.177-3.368,0.297-4.646c-0.581,0.27-1.153,0.554-1.716,0.834c-4.941,2.456-9.333,4.64-14.9-1.126  c-0.188-0.196-0.341-0.414-0.457-0.646c-0.646-0.369-1.166-0.967-1.426-1.726c-1.51-4.399-6.727-9.859-10.938-13.763  c-0.13,1.506-0.25,3.232-0.341,5.033c-0.525,10.297-2.388,22.457,4.468,30.683c1.058,1.269,2.223,2.666,3.3,4.087  c1.233,1.633,0.909,3.957-0.725,5.189c-1.633,1.233-3.957,0.909-5.19-0.725c-1.223-1.613-2.19-2.773-3.068-3.826  c-4.156-4.985-6.723-8.067-6.84-16.288c-1.386,5.219-2.46,12.099-2.361,17.516c0.032,2.041-1.597,3.723-3.639,3.755  c-2.042,0.031-3.723-1.598-3.754-3.639c-0.081-4.431,0.761-12.585,2.563-19.401c2.975-11.258,1.91-5.008,2.571-17.997  c0.071-1.401,0.16-2.78,0.26-4.074c-2.466,3.677-4.07,7.988-4.371,10.171c-0.24,1.736-1.842,2.949-3.579,2.709  S4.79,60.609,5.03,58.873c0.4-2.897,2.411-8.451,5.448-12.94c2.656-3.928,7.89-8.797,13.175-7.938  c6.82,1.109,20.471,19.26,21.743,22.964c0.14,0.409,0.192,0.826,0.166,1.232c2.698,2.352,5.326,1.046,8.263-0.415  c6.734-3.347,10.96-4.219,17.601,0.079c2.641,1.71,5.471,4.178,8.469,7.347c3.511-9.023,3.847-17.222,4.196-25.768  c0.096-2.338,0.192-4.701,0.354-7.116l-1.013-0.179c-0.287-0.051-0.48-0.326-0.431-0.614c0.07-0.397,0.369-0.946,0.726-1.448  c-3.98-1.332-6.441-5.825-5.601-10.592C79.044,18.294,83.525,14.747,88.139,15.56z"/><ellipse transform="matrix(0.2588 -0.9659 0.9659 0.2588 -8.5299 45.8395)" fill-rule="evenodd" clip-rule="evenodd" cx="25.605" cy="28.478" rx="8.482" ry="7.423"/><ellipse transform="matrix(0.2588 -0.9659 0.9659 0.2588 -1.3712 101.6975)" fill-rule="evenodd" clip-rule="evenodd" cx="65.581" cy="51.742" rx="6.362" ry="5.832"/><text x="0" y="115" fill="#000000" font-size="5px" font-weight="bold" font-family="'Helvetica Neue', Helvetica, Arial-Unicode, Arial, Sans-serif">Created by Krisada</text><text x="0" y="120" fill="#000000" font-size="5px" font-weight="bold" font-family="'Helvetica Neue', Helvetica, Arial-Unicode, Arial, Sans-serif">from the Noun Project</text></svg>