<svg xmlns="http://www.w3.org/2000/svg" xmlns:xlink="http://www.w3.org/1999/xlink" version="1.1" x="0px" y="0px" viewBox="0 0 100 125" enable-background="new 0 0 100 100" xml:space="preserve"><path fill="#000000" d="M52.145,18.092c1.003,0.401,2.426-0.289,3.161-1.533c0.736-1.243,1.609-2.121,1.942-1.95  c0.331,0.172,0.699-0.991,0.817-2.583c0.118-1.592,0.415-2.943,0.659-3.002c0.244-0.061,3.24,2.114,2.619,0.489  c0,0-3.07-8.015-10.157-7.973c-1.888,0.012-2.874,1.628-2.874,1.628c-0.907,1.486-1.666,4.126-1.685,5.866l1.319,6.235  C49.252,16.42,51.142,17.691,52.145,18.092z"/><g><path fill="#000000" d="M50.891,91.851C50.401,93.653,51.53,95,53.396,95h8.644c1.865,0,2.353-0.567,1.078-1.415   c-1.271-0.851-4.039-2.995-4.267-4.849l-0.943-20.123c-0.229-1.852-0.872-4.812-1.43-6.594l-6.231-19.857   c-0.559-1.781-1.584-4.652-2.278-6.385l-0.565-1.412c-0.504-1.261-0.407-2.006,0.157-2.006c0.211,0,0.488,0.104,0.822,0.324   c0,0,0,0,7.197,5.22c5.79,4.198,12.704,4.63,15.298,4.63c0.668,0,1.05-0.028,1.05-0.028c1.862-0.141,1.988-0.875,0.281-1.631   c0,0-6.727-2.982-16.035-10.43c-7.714-6.171-1.073-10.539-9.258-13.887c-0.596-0.245-1.206-0.363-1.814-0.363   c-5.848,0-11.773,10.925-8.105,26.702c0.014,0.044,0.025,0.09,0.031,0.137c0.783,3.324,1.991,6.799,3.716,10.494   C53.746,81.391,50.891,91.851,50.891,91.851z"/><path fill="#000000" d="M34.685,28.461c-2.726,4.613-2.966,6.68-2.818,7.546c0.344,2.004,1.795,3.797,3.186,5.105   c-0.47-2.536-0.719-5.024-0.732-7.426C34.31,31.876,34.436,30.125,34.685,28.461z"/><path fill="#000000" d="M41.669,93.585c-1.358-0.851-3.142-3.317-2.371-5.565l6.966-16.466c-1.52-4.738-3.724-10.479-6.919-17.326   c-0.593-1.271-1.133-2.536-1.624-3.812l0.182,12.739c0.034,2.376-0.459,6.195-1.095,8.485l-5.402,19.324   C30.77,93.254,32.194,95,34.571,95h5.247C42.194,95,43.027,94.433,41.669,93.585z"/></g><g><path fill="#000000" d="M73.148,96.027c-1.577,0-0.598-1.248-0.598-1.674l-0.173-46.731c0-0.618-0.191-1.09-0.527-1.296   c-0.333-0.207-0.842-0.167-1.393,0.108l-2.851,1.449c-0.539,0.27-1.194,0.052-1.464-0.488c-0.271-0.541-0.051-1.196,0.489-1.466   l3.135-1.567c1.04-0.52,2.096-0.535,2.895-0.042c0.801,0.494,1.26,1.445,1.26,2.609l-0.177,47.424   C73.745,94.779,74.727,96.027,73.148,96.027z"/></g><text x="0" y="115" fill="#000000" font-size="5px" font-weight="bold" font-family="'Helvetica Neue', Helvetica, Arial-Unicode, Arial, Sans-serif">Created by Olivier Guin</text><text x="0" y="120" fill="#000000" font-size="5px" font-weight="bold" font-family="'Helvetica Neue', Helvetica, Arial-Unicode, Arial, Sans-serif">from the Noun Project</text></svg>