<svg xmlns="http://www.w3.org/2000/svg" xmlns:xlink="http://www.w3.org/1999/xlink" version="1.1" x="0px" y="0px" viewBox="0 0 95 118.75" enable-background="new 0 0 95 95" xml:space="preserve"><g><path d="M61.191,56.37c0,1.838-1.49,3.328-3.328,3.328H52.74v5.122c0,1.837-1.488,3.327-3.326,3.327h-3.826   c-1.84,0-3.326-1.49-3.326-3.327v-5.122h-5.125c-1.836,0-3.328-1.49-3.328-3.328v-3.827c0-1.838,1.492-3.326,3.328-3.326h5.125   v-5.123c0-1.838,1.486-3.327,3.326-3.327h3.826c1.838,0,3.326,1.489,3.326,3.327v5.123h5.123c1.838,0,3.328,1.488,3.328,3.326   V56.37z"/><g><path d="M57.207,8.144H37.586c-6.475,0-11.746,5.269-11.746,11.745h6.908c0-2.666,2.172-4.837,4.838-4.837h19.621    c2.668,0,4.836,2.171,4.836,4.837h6.91C68.953,13.412,63.686,8.144,57.207,8.144z"/><path d="M84.76,21.915H10.24c-1.936,0-3.504,1.568-3.504,3.503v57.934c0,1.936,1.568,3.505,3.504,3.505h74.52    c1.936,0,3.504-1.569,3.504-3.505V25.418C88.264,23.483,86.695,21.915,84.76,21.915z M47.5,77.127    c-12.561,0-22.742-10.183-22.742-22.741c0-12.561,10.182-22.742,22.742-22.742c12.559,0,22.74,10.182,22.74,22.742    C70.24,66.944,60.059,77.127,47.5,77.127z"/></g></g><text x="0" y="110" fill="#000000" font-size="5px" font-weight="bold" font-family="'Helvetica Neue', Helvetica, Arial-Unicode, Arial, Sans-serif">Created by Guilherme Furtado</text><text x="0" y="115" fill="#000000" font-size="5px" font-weight="bold" font-family="'Helvetica Neue', Helvetica, Arial-Unicode, Arial, Sans-serif">from the Noun Project</text></svg>