<svg xmlns="http://www.w3.org/2000/svg" xmlns:xlink="http://www.w3.org/1999/xlink" version="1.1" x="0px" y="0px" viewBox="0 0 100 125" enable-background="new 0 0 100 100" xml:space="preserve"><g><path d="M84.637,48.243h-9.914c-0.843,0-1.525-0.683-1.525-1.525s0.683-1.525,1.525-1.525h9.914c0.843,0,1.525,0.683,1.525,1.525   S85.48,48.243,84.637,48.243z"/></g><g><path d="M50.016,18.223c-0.842,0-1.525-0.683-1.525-1.525V6.784c0-0.842,0.683-1.525,1.525-1.525s1.525,0.683,1.525,1.525v9.914   C51.541,17.54,50.858,18.223,50.016,18.223z"/></g><g><path d="M73.032,33.907c-0.608,0-1.184-0.367-1.42-0.968c-0.308-0.784,0.078-1.669,0.861-1.978l8.761-3.445   c0.784-0.307,1.67,0.077,1.979,0.861c0.308,0.784-0.078,1.669-0.861,1.978L73.59,33.8C73.407,33.872,73.218,33.907,73.032,33.907z"/></g><g><path d="M64.869,22.547c-0.306,0-0.614-0.091-0.882-0.282c-0.688-0.487-0.849-1.439-0.361-2.126l5.738-8.084   c0.489-0.687,1.441-0.848,2.127-0.361c0.688,0.487,0.849,1.439,0.361,2.126l-5.738,8.084   C65.816,22.324,65.347,22.547,64.869,22.547z"/></g><path d="M56.813,72.963c-4.102-4.614,13.011-8.355,13.011-26.246c0-23.966-17.448-24.261-21.116-24.261s-21.116,2.126-21.116,24.261  c0,17.891,17.113,21.632,13.011,26.246C35.197,79.044,16.501,71.387,16.501,95h32.207h32.207  C80.916,71.387,62.22,79.044,56.813,72.963z M48.681,52.826c-2.086-1.149-7.736-4.905-8.062-9.794  c-0.381-5.712,6.958-4.948,8.062-0.716c1.104-4.233,8.443-4.996,8.062,0.716C56.417,47.92,50.767,51.677,48.681,52.826z"/><g><path d="M22.274,48.243h-9.913c-0.842,0-1.525-0.683-1.525-1.525s0.683-1.525,1.525-1.525h9.913c0.842,0,1.525,0.683,1.525,1.525   S23.116,48.243,22.274,48.243z"/></g><g><path d="M23.966,33.907c-0.186,0-0.375-0.034-0.558-0.106l-8.761-3.445c-0.784-0.308-1.17-1.194-0.861-1.978   s1.194-1.17,1.978-0.861l8.761,3.445c0.784,0.308,1.17,1.194,0.861,1.978C25.149,33.539,24.574,33.907,23.966,33.907z"/></g><g><path d="M35.131,21.546c-0.478,0-0.948-0.224-1.245-0.643l-5.738-8.084c-0.488-0.687-0.326-1.639,0.361-2.126   c0.688-0.488,1.639-0.326,2.126,0.361l5.738,8.084c0.488,0.687,0.326,1.639-0.361,2.126C35.745,21.455,35.437,21.546,35.131,21.546   z"/></g><text x="0" y="115" fill="#000000" font-size="5px" font-weight="bold" font-family="'Helvetica Neue', Helvetica, Arial-Unicode, Arial, Sans-serif">Created by Gemma Evans</text><text x="0" y="120" fill="#000000" font-size="5px" font-weight="bold" font-family="'Helvetica Neue', Helvetica, Arial-Unicode, Arial, Sans-serif">from the Noun Project</text></svg>