<svg xmlns="http://www.w3.org/2000/svg" xmlns:xlink="http://www.w3.org/1999/xlink" version="1.1" x="0px" y="0px" viewBox="0 0 68 85" style="enable-background:new 0 0 68 68;" xml:space="preserve"><style type="text/css">
	.st0{fill:#010101;}
</style><g><g><g><path class="st0" d="M15.3,33.1H6.6C3.5,33.1,1,36,1,39.5v15.3c0,0.6,0.4,1,1,1h2.8v8.4C4.8,65.8,6,67,7.5,67h6.9     c1.5,0,2.7-1.2,2.7-2.8v-8.4h2.8c0.6,0,1-0.4,1-1V39.5C20.9,36,18.4,33.1,15.3,33.1z M18.9,53.9h-1.8v-7.5c0-0.6-0.4-1-1-1     c-0.6,0-1,0.4-1,1v17.9c0,0.4-0.3,0.8-0.7,0.8h-2.4v-9.6c0-0.6-0.4-1-1-1s-1,0.4-1,1V65H7.5c-0.4,0-0.7-0.3-0.7-0.8V46.3     c0-0.6-0.4-1-1-1c-0.6,0-1,0.4-1,1v7.5H3V39.5c0-2.4,1.6-4.4,3.6-4.4h8.7c2,0,3.6,2,3.6,4.4V53.9z"/></g></g><g><g><path class="st0" d="M10.9,32.7c3.4,0,6.1-2.8,6.1-6.3s-2.8-6.3-6.1-6.3s-6.1,2.8-6.1,6.3S7.6,32.7,10.9,32.7z M10.9,22.1     c2.3,0,4.1,1.9,4.1,4.3c0,2.4-1.9,4.3-4.1,4.3c-2.3,0-4.1-1.9-4.1-4.3C6.8,24,8.7,22.1,10.9,22.1z"/></g></g><g><g><path class="st0" d="M61.4,33.1h-8.7c-3.1,0-5.6,2.9-5.6,6.4v15.3c0,0.6,0.4,1,1,1h2.8v8.4c0,1.5,1.2,2.8,2.7,2.8h6.9     c1.5,0,2.7-1.2,2.7-2.8v-8.4H66c0.6,0,1-0.4,1-1V39.5C67,36,64.5,33.1,61.4,33.1z M65,53.9h-1.8v-7.5c0-0.6-0.4-1-1-1     c-0.6,0-1,0.4-1,1v17.9c0,0.4-0.3,0.8-0.7,0.8h-2.4v-9.6c0-0.6-0.4-1-1-1c-0.6,0-1,0.4-1,1V65h-2.4c-0.4,0-0.7-0.3-0.7-0.8V46.3     c0-0.6-0.4-1-1-1c-0.6,0-1,0.4-1,1v7.5h-1.8V39.5c0-2.4,1.6-4.4,3.6-4.4h8.7c2,0,3.6,2,3.6,4.4V53.9z"/></g></g><g><g><path class="st0" d="M57.1,32.7c3.4,0,6.1-2.8,6.1-6.3s-2.8-6.3-6.1-6.3c-3.4,0-6.1,2.8-6.1,6.3S53.7,32.7,57.1,32.7z M57.1,22.1     c2.3,0,4.1,1.9,4.1,4.3c0,2.4-1.9,4.3-4.1,4.3c-2.3,0-4.1-1.9-4.1-4.3C52.9,24,54.8,22.1,57.1,22.1z"/></g></g><g><g><path class="st0" d="M38.4,24.8h-8.7c-3.1,0-5.6,2.9-5.6,6.4v15.3c0,0.6,0.4,1,1,1h2.8v8.4c0,1.5,1.2,2.8,2.7,2.8h6.9     c1.5,0,2.7-1.2,2.7-2.8v-8.4h2.8c0.6,0,1-0.4,1-1V31.2C43.9,27.6,41.4,24.8,38.4,24.8z M41.9,45.5h-1.8V38c0-0.6-0.4-1-1-1     c-0.6,0-1,0.4-1,1v17.9c0,0.4-0.3,0.8-0.7,0.8H35V47c0-0.6-0.4-1-1-1c-0.6,0-1,0.4-1,1v9.6h-2.4c-0.4,0-0.7-0.3-0.7-0.8V38     c0-0.6-0.4-1-1-1c-0.6,0-1,0.4-1,1v7.5h-1.8V31.2c0-2.4,1.6-4.4,3.6-4.4h8.7c2,0,3.6,2,3.6,4.4V45.5z"/></g></g><g><g><path class="st0" d="M34,24.3c3.4,0,6.1-2.8,6.1-6.3c0-3.5-2.8-6.3-6.1-6.3c-3.4,0-6.1,2.8-6.1,6.3C27.9,21.5,30.6,24.3,34,24.3z      M34,13.7c2.3,0,4.1,1.9,4.1,4.3c0,2.4-1.9,4.3-4.1,4.3c-2.3,0-4.1-1.9-4.1-4.3C29.9,15.6,31.7,13.7,34,13.7z"/></g></g><g><g><path class="st0" d="M34,9.3c0.6,0,1-0.4,1-1V2c0-0.6-0.4-1-1-1c-0.6,0-1,0.4-1,1v6.3C33,8.8,33.4,9.3,34,9.3z"/></g></g><g><g><path class="st0" d="M42.7,18c0,0.6,0.4,1,1,1h6.3c0.6,0,1-0.4,1-1c0-0.6-0.4-1-1-1h-6.3C43.1,17,42.7,17.5,42.7,18z"/></g></g><g><g><path class="st0" d="M18.1,19h6.3c0.6,0,1-0.4,1-1c0-0.6-0.4-1-1-1h-6.3c-0.6,0-1,0.4-1,1C17.1,18.6,17.5,19,18.1,19z"/></g></g><g><g><path class="st0" d="M26.4,11.8c0.4,0.4,1,0.4,1.4,0c0.4-0.4,0.4-1,0-1.4L23.4,6c-0.4-0.4-1-0.4-1.4,0c-0.4,0.4-0.4,1,0,1.4     L26.4,11.8z"/></g></g><g><g><path class="st0" d="M41.6,11.8L46,7.4c0.4-0.4,0.4-1,0-1.4c-0.4-0.4-1-0.4-1.4,0l-4.4,4.4c-0.4,0.4-0.4,1,0,1.4     C40.5,12.2,41.2,12.2,41.6,11.8z"/></g></g></g><text x="0" y="83" fill="#000000" font-size="5px" font-weight="bold" font-family="'Helvetica Neue', Helvetica, Arial-Unicode, Arial, Sans-serif">Created by Vectors Market</text><text x="0" y="88" fill="#000000" font-size="5px" font-weight="bold" font-family="'Helvetica Neue', Helvetica, Arial-Unicode, Arial, Sans-serif">from the Noun Project</text></svg>