<svg height='100px' width='100px'  fill="#000000" xmlns="http://www.w3.org/2000/svg" viewBox="0 0 100 100" x="0px" y="0px"><title>•SET16-v3</title><path d="M83.43,78.053a3.925,3.925,0,0,0-2.471-2.862,10.556,10.556,0,0,0-3.773-1.209,1.762,1.762,0,0,0-.977.133,1.633,1.633,0,0,0-.39,1.041,4.75,4.75,0,0,0,.251,2.013,7.306,7.306,0,0,0,2.846,3.53,6.911,6.911,0,0,0,3.265,1.346c.371-.075,1.063-1.78,1.211-2.44A3.792,3.792,0,0,0,83.43,78.053ZM73.872,72.16c1.218-1.292,3.031-1.088,3.895-.995a12.349,12.349,0,0,1,2.519.493,8.319,8.319,0,0,0-6.627-13.347,8.9,8.9,0,0,0-6.2,3.3,7.027,7.027,0,0,0-1.942,5.4,1.579,1.579,0,0,1-3.123.465,8.548,8.548,0,0,1,.316-3.727c-5.9-.065-16.387-.037-22.521,2.194-.353.13-.8.288-1.32.474-2.528.883-7.213,2.528-9.518,4.043-.083.371-.176.734-.251,1.115,4.425-.093,8.347,1.041,12.158,2.147A42.505,42.505,0,0,0,52.039,75.85a7.717,7.717,0,0,0,4.62-1.162c.158-.093.325-.2.492-.307a5.367,5.367,0,0,1,3.449-1.2c3.067.307,3.569,2.826,3.811,4.034.055.232.12.576.176.734a8.517,8.517,0,0,0,1.813.827,10.734,10.734,0,0,0,2.648.957,7.981,7.981,0,0,0,4.527-1.078,4.638,4.638,0,0,1-.465-.966,6.786,6.786,0,0,1-.232-2.779A4.31,4.31,0,0,1,73.872,72.16Zm-8.588,9.573a9.616,9.616,0,0,1-2.76-1.385,4,4,0,0,1-1.209-2.509c-.269-1.339-.39-1.45-1.031-1.506a3.771,3.771,0,0,0-1.413.7c-.2.13-.4.26-.595.372a10.818,10.818,0,0,1-6.32,1.608,45.557,45.557,0,0,1-11.572-2.25c-4.294-1.245-8.346-2.425-13.012-1.914-.028.009-.047,0-.075.009h-.186c-.028,0-.065-.009-.13-.009a.2.2,0,0,0-.074-.019,1.366,1.366,0,0,1-.214-.056.556.556,0,0,1-.093-.037c-.065-.028-.121-.056-.186-.083a.589.589,0,0,1-.083-.065c-.056-.038-.112-.075-.158-.112l-.084-.084a.881.881,0,0,1-.13-.139c-.019-.028-.047-.065-.065-.093A1.446,1.446,0,0,1,25.8,74c-.019-.037-.037-.084-.056-.13a1.242,1.242,0,0,1-.093-.307.476.476,0,0,1-.018-.111c-.01-.01,0-.028,0-.038a.788.788,0,0,1-.01-.158,1.477,1.477,0,0,1,.01-.195c.8-5.6,2.574-9.229,4.833-13.812a2.485,2.485,0,0,1,1.589-1.44,1.524,1.524,0,0,1,1.915,1.152,5,5,0,0,1-1.078,2.6c-.967,1.97-1.432,2.835-2.138,4.591,2.407-1.087,5.158-2.054,7.073-2.723.5-.177.939-.335,1.283-.455,6.255-2.278,15.643-2.491,24.863-2.371a1.212,1.212,0,0,1,.26.028,13.222,13.222,0,0,1,.836-1.087,13.007,13.007,0,0,1,6.154-4.034,13.187,13.187,0,0,0-4.471-3.393,23.718,23.718,0,0,0-6.125-1.663l-.456-.075a15.786,15.786,0,0,1-4.74-1.254c-2.835-1.4-2.677-3.495-3.114-6.033a14.9,14.9,0,0,1-10.828.437,6.518,6.518,0,0,1-1.041,3.514c-1.626,2.453-2.723,3.02-4.675,3.4-.353.065-.669.131-.939.2-.9.232-1.8.381-2.686.529A15.119,15.119,0,0,0,28.125,52.2C25,53.7,23.4,57.316,21.906,61.211,19.638,67.1,17.3,73.2,16.692,79.521a1.354,1.354,0,0,0,1.19,1.468c15.633,1.924,32.168,2.863,45.45,3.607a6.319,6.319,0,0,0,3.467-.391,1.578,1.578,0,0,0,.637-.8.686.686,0,0,0,.019-.466.788.788,0,0,0-.338-.373A9.885,9.885,0,0,0,65.284,81.733ZM34.16,25.27a5.1,5.1,0,0,0,.979.2c-.114.633-.156,1.053-.156,1.053-.056.567-.093,1.079-.093,1.543,0,5.54,2.909,10.308,7.036,12.344a10.052,10.052,0,0,0,4.47,1.059c4.759,0,8.858-3.383,10.606-8.188a15.443,15.443,0,0,0,.9-5.215c0-7.38-5.158-13.393-11.507-13.393a10.243,10.243,0,0,0-5.734,1.8c-.042.03-.077.063-.118.094a5.718,5.718,0,0,0-5.191-2.6,5.768,5.768,0,0,0-1.193,11.3Z"></path></svg>