<svg height='100px' width='100px'  fill="#000000" xmlns="http://www.w3.org/2000/svg" xmlns:xlink="http://www.w3.org/1999/xlink" version="1.1" x="0px" y="0px" viewBox="0 0 124.296 256.445" style="enable-background:new 0 0 124.296 256.445;" xml:space="preserve"><g><path d="M74.289,64.263c12.428,0,22.5-10.073,22.5-22.5c0-12.427-10.072-22.5-22.5-22.5c-12.426,0-22.5,10.073-22.5,22.5   C51.789,54.19,61.863,64.263,74.289,64.263z M88.324,50.395c-2.909,4.711-8.104,7.868-14.035,7.868s-11.126-3.157-14.035-7.868   H88.324z"></path><path d="M45.991,22.516L38.708,0L3.889,11.263L3.068,8.725L0,9.718l13.843,42.793c-3.821,1.463-5.965,5.625-4.831,9.639   c6.595,23.342,12.418,33.379,20.772,35.8c1.294,0.375,2.539,0.542,3.734,0.542c5.628,0,10.167-3.704,13.726-6.872v35.523v18.94v98   c0,6.83,5.537,12.363,12.363,12.363c6.828,0,12.365-5.533,12.365-12.363v-90.271h4.635v90.271c0,6.83,5.537,12.363,12.363,12.363   c6.828,0,12.365-5.533,12.365-12.363v-98v-18.94V94.056c4.47,9.298,8.452,28.029,6.396,63.165   c-0.258,4.411,3.108,8.196,7.519,8.454c0.159,0.009,0.317,0.014,0.475,0.014c4.205,0,7.73-3.281,7.979-7.533   c2.472-42.248-2.813-69.811-15.706-81.925c-5.601-5.263-11.073-6.176-13.894-6.245c-0.166-0.011-0.33-0.025-0.498-0.025H54.973   c-0.379,0-0.749,0.036-1.114,0.089c-7.158,0.563-12.504,5.359-16.472,8.92c-1.036,0.93-2.451,2.201-3.497,2.965   c-1.472-1.866-4.793-7.541-9.481-24.135c-0.963-3.407-3.995-5.664-7.347-5.812l-5.89-18.209L45.991,22.516z"></path></g></svg>