<svg height='100px' width='100px'  fill="#000000" xmlns="http://www.w3.org/2000/svg" xmlns:xlink="http://www.w3.org/1999/xlink" xml:space="preserve" version="1.1" style="shape-rendering:geometricPrecision;text-rendering:geometricPrecision;image-rendering:optimizeQuality;" viewBox="0 0 435 591" x="0px" y="0px" fill-rule="evenodd" clip-rule="evenodd"><defs><style type="text/css">
   
    .fil0 {fill:#000000;fill-rule:nonzero}
   
  </style></defs><g><path class="fil0" d="M81 0l24 0 56 0 9 0 96 0 8 0 57 0 23 0 10 0 1 0 62 40 8 5 -4 8 -34 65 -5 9 -9 -6 -19 -12 0 53 -20 0 0 -66 0 -5 0 -71 -3 0 -10 0 -55 0c-1,14 -7,27 -17,36 -11,10 -25,16 -41,16 -16,0 -31,-6 -42,-16 -10,-9 -16,-22 -17,-36l-54 0 -10 0 -4 0 0 71 0 5 0 213 80 0 0 20 -90 0 -10 0 0 -10 0 -210 -19 12 -9 6 -5 -9 -34 -65 -4 -8 8 -5 62 -40 1 0 10 0zm283 23l0 63 21 13 24 -47 -45 -29zm-293 63l0 -63 -45 29 24 47 21 -13zm108 -66c1,8 5,16 11,21 7,7 17,11 28,11 10,0 20,-4 27,-11 6,-5 10,-13 11,-21l-77 0z"></path><path class="fil0" d="M193 174l229 0 10 0 0 2 0 8 0 2 0 61 0 10 0 324 0 10 -10 0 -86 0 -10 0 0 -10 0 -269 -36 0 0 269 0 10 -10 0 -87 0 -10 0 0 -10 0 -324 0 0 0 -10 0 -61 0 -10 0 0 0 -2 10 0zm193 22l0 41 26 0 0 -41 -26 0zm-156 41l0 -41 -27 0 0 41 27 0zm136 0l0 -41 -116 0 0 41 116 0zm46 20l-26 0 -10 0 -136 0 -10 0 -27 0 0 314 67 0 0 -269 0 -10 10 0 56 0 10 0 0 10 0 269 66 0 0 -314z"></path></g></svg>