<svg height='100px' width='100px'  fill="#000000" xmlns="http://www.w3.org/2000/svg" xmlns:xlink="http://www.w3.org/1999/xlink" version="1.1" x="0px" y="0px" viewBox="0 0 67 67" enable-background="new 0 0 67 67" xml:space="preserve"><g><path d="M58.4,39.4c-0.1,0.3-0.1,0.7,0.1,0.9c0.2,0.3,0.5,0.4,0.8,0.4h6.2c0.3,0,0.6-0.2,0.8-0.4c0.2-0.3,0.2-0.6,0.1-0.9l-3-7.6   c0-14.2,0.3-14.7-0.7-15L32.3,7.4c-0.2-0.1-0.4-0.1-0.6,0L1.2,16.8c-0.4,0.1-0.7,0.5-0.7,1c0,0.4,0.3,0.8,0.7,1l12.1,3.7v8.4   C6,31.6,0.5,37.8,0.5,45.1c0,8,6.5,14.5,14.5,14.5s14.5-6.5,14.5-14.5c0-0.8-0.1-1.6-0.2-2.3c5.5,0.2,21.4-0.1,21.4-5.6V22.4   l10.8-3.3v12.7L58.4,39.4z M60.8,38.8l1.6-4.1l1.6,4.1H60.8z M32,9.4l23.8,7.3H32c-0.6,0-1,0.4-1,1s0.4,1,1,1h23.8   c-32.9,10.1-5.2,1.6-23.8,7.3c-6.2-1.9-17.6-5.4-27.1-8.3L32,9.4z M15,57.6C8.1,57.6,2.5,52,2.5,45.1c0-6.6,5.2-12.1,11.8-12.5   c7.5-0.3,13.2,5.5,13.2,12.5C27.5,52,21.9,57.6,15,57.6z M48.7,37.2c0,1.5-5.8,3.7-16.7,3.7c-1,0-2.1,0-3.1-0.1   C27,35,21.6,30.8,15.3,30.6V23c17.7,5.5,16.5,5.2,17,5.1c1.7-0.5-6.1,1.9,16.4-5.1V37.2z"></path><path d="M15.9,43.8L15.9,43.8L15.8,40c1,0.1,2,0.5,2.9,1.2l1.3-1.8c-1.3-0.9-2.7-1.4-4.2-1.5v-1h-1.3v1c-2.5,0.1-4.4,1.6-4.4,4   c0,2.6,1.8,3.4,4.4,4v3.9c-1.2-0.2-2.3-0.8-3.5-1.7l-1.5,1.7c1.5,1.3,3.1,2,4.9,2.2v1.5h1.3V52c2.5-0.1,4.5-1.5,4.5-4.1   C20.4,45.3,18.5,44.4,15.9,43.8z M14.6,43.5c-1.1-0.4-1.9-0.7-1.9-1.8c0-1,0.9-1.6,1.9-1.7V43.5z M15.8,49.9v-3.6   c1.2,0.4,2.1,0.7,2.1,1.9C17.9,49.2,16.9,49.8,15.8,49.9z"></path></g></svg>