<svg height='100px' width='100px'  fill="#000000" xmlns="http://www.w3.org/2000/svg" xmlns:xlink="http://www.w3.org/1999/xlink" version="1.1" x="0px" y="0px" viewBox="0 0 2048 2048" style="enable-background:new 0 0 2048 2048;" xml:space="preserve"><g><path d="M496,251.6c53.7,0,102.2,21.8,137.4,56.9c35.2,35.2,56.9,83.8,56.9,137.4c0,53.7-21.8,102.2-56.9,137.4   c-35.2,35.2-83.8,56.9-137.4,56.9c-53.7,0-102.2-21.8-137.4-56.9c-35.2-35.2-56.9-83.8-56.9-137.4c0-53.7,21.8-102.2,56.9-137.4   C393.8,273.3,442.3,251.6,496,251.6L496,251.6z M588.2,353.7c-23.6-23.6-56.2-38.2-92.2-38.2c-36,0-68.6,14.6-92.2,38.2   c-23.6,23.6-38.2,56.2-38.2,92.2c0,36,14.6,68.6,38.2,92.2c23.6,23.6,56.2,38.2,92.2,38.2c36,0,68.6-14.6,92.2-38.2   c23.6-23.6,38.2-56.2,38.2-92.2C626.3,409.9,611.8,377.3,588.2,353.7L588.2,353.7z"></path><path d="M656.9,705.1l297.6,280.5c1.1,1.1,2.3,2.2,3.6,3.5c20.5,21.2,30,49,29.4,76.7c-0.6,27.2-11.2,54.5-30.8,75.3   c-1,1.1-2.1,2.2-3.3,3.4l0.1,0.1c-21.7,21.7-49.9,31.5-78.2,31c-28.8-0.5-57.8-11.9-79.4-32.3l-59.6-56.1   c0.2,65.7,0.4,131.4,0.6,197.1c0.5,151.2,1.1,302.6,1.1,401.6c0,30.5-12.4,58.1-32.5,78.2c-20,20-47.7,32.5-78.2,32.5   c-30.5,0-58.1-12.4-78.2-32.5c-20-20-32.5-47.7-32.5-78.2V1376l-39.2,0.2v309.6c0,30.5-12.4,58.1-32.5,78.2   c-20,20-47.7,32.5-78.2,32.5c-30.5,0-58.1-12.4-78.2-32.5c-20-20-32.5-47.7-32.5-78.2V884.4c0-59.4,21.9-114,58.1-156   c36.7-42.7,88-72.4,146-81.3c33.4-5.1,71-2,106.2,8.2C600.4,665.3,632.7,682.2,656.9,705.1L656.9,705.1z M910.8,1032.1L613.2,751.6   c-16.8-15.8-39.8-27.7-64.7-34.9c-26.3-7.7-54.3-10-78.9-6.2c-42.5,6.5-80.1,28.3-107,59.5c-26.5,30.8-42.6,70.9-42.6,114.5v801.3   c0,12.8,5.3,24.5,13.7,32.9c8.5,8.5,20.1,13.7,32.9,13.7c12.8,0,24.5-5.3,32.9-13.7c8.5-8.5,13.7-20.1,13.7-32.9v-341.3v-31.7   l31.9-0.2l103.2-0.5l32.1-0.2v32v341.8c0,12.8,5.3,24.5,13.7,32.9c8.5,8.5,20.1,13.7,32.9,13.7c12.8,0,24.5-5.3,32.9-13.7   c8.5-8.5,13.7-20.1,13.7-32.9c0-170.2-0.4-286-0.8-401.6c-0.3-90.3-0.6-180.6-0.8-271.1l-0.1-74l53.9,50.8l113.5,106.9   c10.1,9.5,23.4,14.8,36.7,15c11.7,0.2,23.2-3.7,31.9-12.5l0.5-0.4c0.4-0.4,0.9-0.9,1.5-1.6c8.7-9.2,13.3-21.2,13.6-33.1   c0.3-11.4-3.5-22.6-11.6-31C911.8,1033,911.3,1032.6,910.8,1032.1L910.8,1032.1z"></path><path d="M1125.8,654.6c9.6-14.8,29.4-19,44.1-9.4c14.8,9.6,19,29.4,9.4,44.1l-219.9,336.8c-9.6,14.8-29.4,19-44.1,9.4   s-19-29.4-9.4-44.1L1125.8,654.6L1125.8,654.6z"></path><path d="M928,257.7h832h32v32V864v32h-32H928h-32v-32V289.7v-32L928,257.7L928,257.7z M1728,321.7H960V832h768V321.7L1728,321.7z"></path><polygon points="1508.2,857.4 1708.2,1785.4 1645.7,1798.6 1445.7,870.6  "></polygon><polygon points="1242.3,870.6 1042.3,1798.6 979.8,1785.4 1179.8,857.4  "></polygon><polygon points="1120,1344 1568,1344 1568,1408 1120,1408  "></polygon></g></svg>