<svg height='100px' width='100px'  fill="#000000" xmlns:x="http://ns.adobe.com/Extensibility/1.0/" xmlns:i="http://ns.adobe.com/AdobeIllustrator/10.0/" xmlns:graph="http://ns.adobe.com/Graphs/1.0/" xmlns="http://www.w3.org/2000/svg" xmlns:xlink="http://www.w3.org/1999/xlink" version="1.1" x="0px" y="0px" viewBox="0 0 100 100" style="enable-background:new 0 0 100 100;" xml:space="preserve"><g><g i:extraneous="self"><g><path d="M5273.1,2400.1v-2c0-2.8-5-4-9.7-4s-9.7,1.3-9.7,4v2c0,1.8,0.7,3.6,2,4.9l5,4.9c0.3,0.3,0.4,0.6,0.4,1v6.4     c0,0.4,0.2,0.7,0.6,0.8l2.9,0.9c0.5,0.1,1-0.2,1-0.8v-7.2c0-0.4,0.2-0.7,0.4-1l5.1-5C5272.4,2403.7,5273.1,2401.9,5273.1,2400.1z      M5263.4,2400c-4.8,0-7.4-1.3-7.5-1.8v0c0.1-0.5,2.7-1.8,7.5-1.8c4.8,0,7.3,1.3,7.5,1.8C5270.7,2398.7,5268.2,2400,5263.4,2400z"></path><path d="M5268.4,2410.3c-0.6,0-1,0.4-1,1c0,0.6,0.4,1,1,1h4.3c0.6,0,1-0.4,1-1c0-0.6-0.4-1-1-1H5268.4z"></path><path d="M5272.7,2413.7h-4.3c-0.6,0-1,0.4-1,1c0,0.6,0.4,1,1,1h4.3c0.6,0,1-0.4,1-1C5273.7,2414.1,5273.3,2413.7,5272.7,2413.7z"></path><path d="M5272.7,2417h-4.3c-0.6,0-1,0.4-1,1c0,0.6,0.4,1,1,1h4.3c0.6,0,1-0.4,1-1C5273.7,2417.5,5273.3,2417,5272.7,2417z"></path></g><g><path d="M32.4,57.3l-7.1,3.6c0,0-7.5-5.1-8.3-5.6c-0.8-0.5-1.7-1-2.3-1.2c-2.5-0.8-8.9-1.4-10.7,2.8c-1.9,4.4-1.6,16-1.5,24.2     c0,0.7,0.5,1.3,1.2,1.3c1.8,0,12.8,0,13.6,0c0.8,0,1.1-0.5,1.2-1.1c0.1-0.4,0.8-9.7,0.8-13.8c0-0.4,0-0.9,0-1.4l3.6,2.4     c0.6,0.4,1.4,0.7,2.1,0.7c0.6,0,1.2-0.1,1.7-0.4l9-4.6c1.9-0.9,2.6-3.2,1.6-5.1C36.5,57.1,34.3,56.3,32.4,57.3z"></path><circle cx="11.9" cy="43.3" r="8.3"></circle><path d="M95.9,56.9c-1.8-4.2-8.2-3.6-10.7-2.8c-0.6,0.2-1.5,0.7-2.3,1.2c-0.8,0.5-8.3,5.6-8.3,5.6l-7.1-3.6     c-1.9-0.9-4.1-0.2-5.1,1.6c-0.9,1.9-0.2,4.1,1.6,5.1l9,4.6c0.5,0.3,1.1,0.4,1.7,0.4c0.7,0,1.5-0.2,2.1-0.7l3.6-2.4     c0,0.5,0,1,0,1.4c0,4.1,0.7,13.4,0.8,13.8c0.1,0.7,0.4,1.1,1.2,1.1c0.8,0,11.9,0,13.6,0c0.7,0,1.2-0.6,1.2-1.3     C97.5,72.8,97.8,61.3,95.9,56.9z"></path><circle cx="88.1" cy="43.3" r="8.3"></circle><path d="M63.5,47.2V43h1.3c1.7,1,4.8,2.7,8.5,3.9c1.1,0.3,2.1-0.8,1.6-1.8c-1-2.2-1.8-4.4-2.4-5.9V19.8c0-1.2-1-2.1-2.1-2.1H38.7     c-1.2,0-2.1,1-2.1,2.1v4.3h-7.1c-1.2,0-2.1,1-2.1,2.1v19.3C26.8,47,26,49.2,25,51.3c-0.5,1,0.5,2.2,1.6,1.8     c3.6-1.1,6.6-2.7,8.3-3.7h26.5C62.6,49.4,63.5,48.4,63.5,47.2z M35.1,28.2l1-0.1l0.4-0.9c0-0.1,0.1-0.1,0.2-0.1c0,0,0,0,0,0     c0.1,0,0.2,0,0.2,0.1l0.4,0.9l1,0.1c0.1,0,0.1,0.1,0.2,0.1c0,0.1,0,0.2-0.1,0.2l-0.8,0.6l0.2,1c0,0.1,0,0.2-0.1,0.2     c0,0-0.1,0-0.1,0c0,0-0.1,0-0.1,0l-0.8-0.5l-0.8,0.5c-0.1,0-0.2,0-0.2,0c-0.1,0-0.1-0.1-0.1-0.2l0.2-1l-0.8-0.6     c-0.1-0.1-0.1-0.1-0.1-0.2C34.9,28.3,35,28.2,35.1,28.2z M35.1,32.6L35.1,32.6l1-0.1l0.4-0.9c0-0.1,0.1-0.1,0.2-0.1h0     c0.1,0,0.2,0,0.2,0.1l0.4,0.9l1,0.1c0.1,0,0.2,0.1,0.2,0.1c0,0.1,0,0.2-0.1,0.2l-0.8,0.6l0.2,1c0,0.1,0,0.2-0.1,0.2     c-0.1,0-0.2,0.1-0.2,0l-0.8-0.5l-0.8,0.5c0,0-0.1,0-0.1,0c0,0-0.1,0-0.1,0c-0.1-0.1-0.1-0.1-0.1-0.2l0.2-1l-0.8-0.6     c-0.1-0.1-0.1-0.1-0.1-0.2C34.9,32.7,35,32.6,35.1,32.6z M30.5,28.2l1-0.1l0.4-0.9c0-0.1,0.1-0.1,0.2-0.1c0,0,0,0,0,0     c0.1,0,0.2,0,0.2,0.1l0.4,0.9l1,0.1c0.1,0,0.1,0.1,0.2,0.1c0,0.1,0,0.2-0.1,0.2L33,29.2l0.2,1c0,0.1,0,0.2-0.1,0.2     c-0.1,0-0.2,0.1-0.2,0l-0.9-0.5l-0.8,0.5c0,0-0.1,0-0.1,0c0,0-0.1,0-0.1,0c-0.1,0-0.1-0.1-0.1-0.2l0.2-1l-0.8-0.6     c-0.1-0.1-0.1-0.1-0.1-0.2C30.4,28.3,30.4,28.2,30.5,28.2z M30.5,32.6L30.5,32.6l1-0.1l0.4-0.9c0.1-0.1,0.3-0.1,0.4,0l0.4,0.9     l1,0.1c0.1,0,0.2,0.1,0.2,0.1c0,0.1,0,0.2-0.1,0.2L33,33.6l0.2,1c0,0.1,0,0.2-0.1,0.2c-0.1,0-0.2,0.1-0.2,0l-0.8-0.5l-0.8,0.5     c0,0-0.1,0-0.1,0c0,0-0.1,0-0.1,0c-0.1,0-0.1-0.1-0.1-0.2l0.2-1l-0.8-0.6c-0.1-0.1-0.1-0.1-0.1-0.2     C30.4,32.7,30.4,32.6,30.5,32.6z M60.8,46.6H30.1v-2.9h30.7V46.6z M60.8,41H30.1v-2.9h30.7V41z M42.3,30.2c0,0.1,0,0.2-0.1,0.2     c-0.1,0-0.2,0.1-0.2,0l-0.8-0.5l-0.8,0.5c0,0-0.1,0-0.1,0c0,0-0.1,0-0.1,0c-0.1,0-0.1-0.1-0.1-0.2l0.2-1l-0.8-0.6     c-0.1-0.1-0.1-0.1-0.1-0.2c0-0.1,0.1-0.1,0.2-0.1l1-0.1l0.4-0.9c0-0.1,0.1-0.1,0.2-0.1c0,0,0,0,0,0c0.1,0,0.2,0,0.2,0.1l0.4,0.9     l1,0.1c0.1,0,0.1,0.1,0.2,0.1c0,0.1,0,0.2-0.1,0.2l-0.8,0.6L42.3,30.2z M39.6,32.6L39.6,32.6l1-0.1l0.4-0.9     c0-0.1,0.1-0.1,0.2-0.1l0,0c0.1,0,0.2,0,0.2,0.1l0.4,0.9l1,0.1c0.1,0,0.2,0.1,0.2,0.1c0,0.1,0,0.2-0.1,0.2l-0.8,0.6l0.2,1     c0,0.1,0,0.2-0.1,0.2c-0.1,0-0.2,0.1-0.2,0l-0.8-0.5l-0.8,0.5c0,0-0.1,0-0.1,0c0,0-0.1,0-0.1,0C40,34.7,40,34.6,40,34.6l0.2-1     l-0.8-0.6c-0.1-0.1-0.1-0.1-0.1-0.2C39.5,32.7,39.5,32.6,39.6,32.6z M60.8,35.3H45.9v-2.9h14.9V35.3z M60.8,29.7H45.9v-2.9h14.9     V29.7z M39.3,24.1v-3.7h30.6v19.9h-6.3V26.2c0-1.2-1-2.1-2.1-2.1H39.3z"></path></g></g></g></svg>