<svg height='100px' width='100px'  fill="#000000" xmlns="http://www.w3.org/2000/svg" xmlns:xlink="http://www.w3.org/1999/xlink" version="1.1" x="0px" y="0px" viewBox="0 0 100 100" enable-background="new 0 0 100 100" xml:space="preserve"><path fill-rule="evenodd" clip-rule="evenodd" d="M89.73,13.895c-1.615-0.996-3.318-0.184-4.693,0.839  c-0.557,0.415-1.033,0.938-1.525,1.436c-1.273,1.299-2.479,2.669-3.811,3.906c-3.203,2.981-6.867,5.323-10.945,6.921  c-7.725,3.029-16.064,3.722-24.141,5.331c-3.24,0.645-6.414,1.541-9.387,3.043c-0.559,0.283-0.874,0.497-0.15,0.937  c4.881,1.148,9.794,2.077,14.827,2.225c1.152,0.034,1.98,0.525,2.24,1.783c0.617,2.994,0.824,6.164,0.865,9.215  c0.029,2.02-0.254,6.856-0.254,6.856c0.252-0.059,0.633-0.192,1.107-0.296c2.604-0.567,6.555,0.815,8.229,2.907  c1.711,2.142,2.207,5.391,1.154,7.936c-0.102,0.244-0.74,1.055-0.494,1.264c0.469,0.396,1.893-0.813,2.307-1.07  c1.227-0.77,2.455-1.522,3.59-2.426c1.848-1.473,3.74-2.617,6.029-0.135c-0.264-1.51-0.648-20.012-0.549-22.708  c0.064-1.688,0.039-2.222,0.666-3.833c0.588-1.51,1.779-2.739,2.973-3.792c1.486-1.31,2.971-2.619,4.447-3.938  c2.693-2.404,5.021-5.062,7.035-8.06c0.904-1.343,1.951-2.884,2.096-4.544C91.445,16.528,90.795,14.551,89.73,13.895z   M65.799,68.232c-1.391,1.041-3.047,1.938-4.703,2.467c-6.27,1.998-12.886-0.414-18.578-3.024c-0.69-0.317-1.398-0.466-2.007-0.131  c-0.672,0.374-0.442,1.175-0.37,1.8c0.11,0.937,0.543,1.756,1.212,2.423c2.391,2.374,5.103,4.274,8.213,5.595  c1.44,0.612,0.979,3.166,0.989,4.371c0.018,2.719,0.08,5.445,0.162,8.17c1.494,0.129,10.99-0.11,14.102-0.691  c0.021-3.542,0.236-8.646,0.166-12.186c-0.035-1.748,0.459-1.657,1.643-2.428c1.625-1.061,2.832-1.893,3.865-2.873  c1.68-1.592,2.869-3.275,2.68-5.721C72.873,62.086,66.91,67.397,65.799,68.232z M32.799,32.182c4.212,0,7.626-3.415,7.626-7.627  c0-4.212-3.414-7.627-7.626-7.627c-4.214,0-7.628,3.415-7.628,7.627C25.171,28.767,28.585,32.182,32.799,32.182z M58.34,27.027  c4.553,0,8.24-3.689,8.24-8.241c0-4.551-4.34-8.723-8.891-8.723s-8.117,4.058-7.588,8.723C50.611,23.309,53.791,27.027,58.34,27.027  z M56.014,69.427c3.119-0.235,5.662-2.589,5.662-5.782s-2.533-5.782-5.662-5.782c-3.123,0-5.782,1.336-6.038,5.212  C49.766,66.262,52.059,69.728,56.014,69.427z M39.094,67.107c0.142-0.569,0.761-1.371,1.871-1.24  c-3.461-5.27-4.816-17.253-3.476-18.084c1.348-0.837,9.113,0.182,12.56-2.128c1.236-0.829,1.566-3.308,0.916-4.452  c-0.698-1.23-2.049-1.291-3.327-1.389c-1.999-0.154-3.975-0.466-5.944-0.834c-6.036-1.128-11.929-2.765-16.93-6.486  c-4.032-3-6.259-7.194-8.124-11.671c-1.075-2.58-2.073-5.196-3.442-7.642c-0.512-0.916-1.339-1.262-2.365-1.144  c-1.013,0.117-1.535,0.776-1.869,1.671c-0.354,0.948-0.348,1.936-0.288,2.91c0.125,2.11,0.409,4.211,0.859,6.277  c0.779,3.587,2.041,7.048,3.707,10.318c1.296,2.545,3.227,4.791,4.117,7.548c4.827,14.928,3.123,31.95,2.607,36.584  c-0.214,1.91,11.294,6.965,13.626,8.033c0.681,0.313,5.008,1.873,5.022,2.094c2.634-1.64,7.767-6.339,9.348-9.076  c-2.01-1.49-4.177-2.727-6.144-4.316C38.576,71.459,38.832,68.164,39.094,67.107z"></path></svg>