<svg height='100px' width='100px'  fill="#000000" xmlns="http://www.w3.org/2000/svg" xmlns:xlink="http://www.w3.org/1999/xlink" version="1.1" x="0px" y="0px" viewBox="0 0 100 100" enable-background="new 0 0 100 100" xml:space="preserve"><path d="M73.374,54.227l5.728-7.637v15.314L73.374,54.227z M77.574,43.535H65.355l6.109,8.146L77.574,43.535z M63.828,46.59v15.385  l5.728-7.748L63.828,46.59z M22.678,94.579H4.375v-3.37h16.792l5.366-5.366H4.375V82.39h25.49v0.121l5.487-5.487H4.375v-3.452  h34.407v0.022l5.554-5.554H4.375v-3.121h9.886v-4.371c-2.115-0.342-3.735-2.162-3.735-4.374V38.4c0-3.046,2.469-5.515,5.515-5.515  s5.515,2.469,5.515,5.515v17.774c0,2.385-1.883,4.316-4.241,4.425v4.32h13.712v-4.371c-2.115-0.342-3.735-2.162-3.735-4.374V38.4  c0-3.046,2.469-5.515,5.515-5.515s5.515,2.469,5.515,5.515v17.774c0,2.385-1.883,4.316-4.241,4.425v4.32h14.471V26.872L72.51,11.138  l21.865,15.694v27.451v10.636v3.121h-6.674L61.162,94.579h-4.881L82.82,68.04h-7.882L48.399,94.579h-4.881L70.056,68.04h-7.944  L35.574,94.579h-4.881L57.231,68.04h-8.014L22.678,94.579z M68.41,32.884h6.109v-7.637H68.41V32.884z M60.773,64.919h4.637  l6.055-8.146l6.109,8.146h4.582V40.481H60.773V64.919z M94.375,69.695L69.491,94.579h4.881l20.002-20.002v-4.882H94.375z   M82.336,94.579h4.881l7.157-7.157V82.54L82.336,94.579z"></path></svg>