<svg height='100px' width='100px'  fill="#000000" xmlns="http://www.w3.org/2000/svg" xmlns:xlink="http://www.w3.org/1999/xlink" version="1.1" x="0px" y="0px" viewBox="0 0 67 67" enable-background="new 0 0 67 67" xml:space="preserve"><g><g><path d="M58.105011,46.2949944l-12.9899902,8.5100098l-8.4800415,5.3099365    c-0.9899902,0.6201172-2.1199951,0.9500732-3.2599487,0.9500732c-0.7000122,0-1.3800049-0.1199951-2.0400391-0.3599854    l-9.0299683-3.2299805c-1.3900146-0.4899902-2.8500366-0.7199707-4.3300171-0.6600342l-0.8400269,0.0299072V38.5749016    c1-0.1899414,2.3900146-0.3898926,3.8800049-0.3898926c3.2800293,0,5.7000122,0.9499512,7.1700439,2.8299561    c0.2399902,0.3000488,0.6300049,0.4700928,1.0799561,0.4700928h9.6700439c1.6799927,0,3.039978,1.5,3.039978,3.3398438    c0,1.8400879-1.3599854,3.3400879-3.039978,3.3400879h-9.210022c-0.460022,0.0100098-0.789978,0.1199951-0.9699707,0.3300781    c-0.2700195,0.3199463-0.2400513,0.8598633-0.1800537,1.2600098c0.0500488,0.3099365,0.3200073,0.5299072,0.6400146,0.5299072    h9.7999878c0.5800171,0,1.1400146-0.1600342,1.6199951-0.4699707l14.6400146-9.4400635    c1.539978-0.8798828,3.4099731-0.1599121,4.1400146,1.4499512C60.1549988,43.4550285,59.5649719,45.4550285,58.105011,46.2949944z    "></path></g><g><rect x="6.9580994" y="51.9521027" width="2.9677734" height="2.9672852"></rect><path d="M2.7149963,36.1549797v22.8300781h13.4199829V36.1549797H2.7149963z M10.9258728,55.919384H5.9580994v-4.9672852    h4.9677734V55.919384z"></path></g><g><path d="M41.8686829,16.7497082c0.010437,0.4345703,0.3290405,0.5627441,0.7749023,0.6948242l-0.0327759-1.3630371    C42.2090759,16.1272717,41.8589783,16.3456554,41.8686829,16.7497082z"></path><path d="M42.7710876,24.0937023c2.4335938,0,4.4130859-2.6821289,4.4130859-5.9785156    c0-3.296875-1.9794922-5.9790039-4.4130859-5.9790039c-2.4291992,0-4.4057617,2.6821289-4.4057617,5.9790039    C38.3653259,21.4115734,40.3418884,24.0937023,42.7710876,24.0937023z M42.6669006,18.4130383    c-1.0001831-0.2133789-1.7345581-0.5202637-1.7592773-1.5460205c-0.0231934-0.9641113,0.7219238-1.5559082,1.6828613-1.6281738    l-0.0094604-0.3937988l0.5057373-0.012085l0.0096436,0.4013672c0.5799561,0.0283203,1.131958,0.2121582,1.6565552,0.5515137    l-0.4959106,0.7370605c-0.3530884-0.2381592-0.7334595-0.3813477-1.1400146-0.4300537l0.0357056,1.4813232l0.0234985-0.0004883    c1.0240479,0.2142334,1.7752075,0.5478516,1.8001099,1.5843506c0.0238037,0.9884033-0.7549438,1.5657959-1.7460938,1.6378174    l0.0136719,0.5673828l-0.5057373,0.0119629l-0.0137939-0.5748291c-0.7229004-0.0565186-1.3771362-0.3272705-1.9631958-0.8126221    l0.5603027-0.6988525c0.4515381,0.3729248,0.9119263,0.5904541,1.3822021,0.6524658L42.6669006,18.4130383z"></path><circle cx="53.4082947" cy="18.1132355" r="1.5625"></circle><path d="M44.0148621,19.2558117c-0.0109253-0.4544678-0.3637695-0.5908203-0.8389893-0.7205811l0.0341187,1.4180908    C43.6340027,19.8991222,44.0249939,19.6774426,44.0148621,19.2558117z"></path><circle cx="31.8799744" cy="18.1132355" r="1.5625"></circle><path d="M56.0950012,9.7749767H29.2049866c-0.2299805,2.0100098-1.8299561,3.5999756-3.8299561,3.8199463v3.1101074    c2.5799561,1.8199463,4.2999878,4.7700195,4.4299927,8.1599121c0.0100098,0.1201172,0.0100098,0.2800293,0.0100098,0.4500732    c0,0.3900146-0.0200195,0.7698975-0.0599976,1.1400146h6.0699463l20.25-0.1000977    c0.1600342-2.0699463,1.7800293-3.75,3.8300171-3.9799805V13.594923    C57.9150085,13.3649426,56.3249817,11.7749767,56.0950012,9.7749767z M31.8750305,20.6750011    c-1.4100342,0-2.5599976-1.1500244-2.5599976-2.5600586c0-1.4099121,1.1499634-2.5599365,2.5599976-2.5599365    c1.4199829,0,2.5700073,1.1500244,2.5700073,2.5599365C34.4450378,19.5249767,33.2950134,20.6750011,31.8750305,20.6750011z     M42.7749939,25.094923c-2.9799805,0-5.4099731-3.1298828-5.4099731-6.9799805    c0-3.8499756,2.4299927-6.9799805,5.4099731-6.9799805c2.9800415,0,5.4100342,3.1300049,5.4100342,6.9799805    C48.1850281,21.9650402,45.7550354,25.094923,42.7749939,25.094923z M53.4049988,20.6750011    c-1.4100342,0-2.5599976-1.1500244-2.5599976-2.5600586c0-1.4099121,1.1499634-2.5599365,2.5599976-2.5599365    c1.4199829,0,2.5700073,1.1500244,2.5700073,2.5599365C55.9750061,19.5249767,54.8249817,20.6750011,53.4049988,20.6750011z"></path><path d="M64.2850037,8.1649914v19.7700195c0,1.2199707-0.9899902,2.2199707-2.210022,2.2299805l-26.6499634,0.1300049h-6.8699951    c0.4799805-0.8800049,0.8299561-1.8299561,1.0499878-2.8399658h6.2199707l21.2399902-0.1000977v-0.6599121    c0-1.8500977,1.5-3.3500977,3.3400269-3.3500977h0.5V12.6249523h-0.5c-1.8400269,0-3.3400269-1.5-3.3400269-3.3499756v-0.5    H28.2350159v0.5c0,1.8499756-1.5,3.3499756-3.3599854,3.3499756h-0.5v3.4699707    c-1.0300293-0.5699463-2.1600342-0.9599609-3.3699951-1.1599121V8.1649914c0-1.2299805,1-2.2299805,2.2299805-2.2299805    h38.8200073C63.2850037,5.9350109,64.2850037,6.9350109,64.2850037,8.1649914z"></path></g><g><path d="M18.2848816,23.2531261c0,0.7294922,0.5060425,0.9655762,1.2787476,1.2166748v-2.3216553    C18.8843689,22.2118664,18.2848816,22.5690441,18.2848816,23.2531261z"></path><path d="M20.4202576,26.3444347v2.4085693c0.7173462-0.0819092,1.4029541-0.430542,1.4029541-1.1546631    C21.8232117,26.8236828,21.2257385,26.587965,20.4202576,26.3444347z"></path><path d="M28.8050232,24.9049816c-0.1986084-5.0029297-4.3425903-9.0999756-9.4800415-9.0999756    c-5.25,0-9.5199585,4.2698975-9.5199585,9.5100098c0,5.2399902,4.2699585,9.4999981,9.5199585,9.4999981    c5.2616577,0,9.4900513-4.2968731,9.4900513-9.4999981C28.815033,25.1750011,28.815033,25.0349865,28.8050232,24.9049816z     M20.4202576,30.1808605v0.9682617h-0.8566284v-0.9807129c-1.2166748-0.1241455-2.3216553-0.6083984-3.2901001-1.4526367    l0.980896-1.1669922c0.744873,0.6456299,1.5145874,1.0428467,2.3092041,1.1669922v-2.6071777    c-1.769165-0.4150391-2.9176025-1.0046387-2.9176025-2.6940918c0-1.6264648,1.2731934-2.6228027,2.9176025-2.6940918v-0.6704102    h0.8566284v0.6828613c0.980835,0.0744629,1.9119873,0.4095459,2.793457,1.0056152l-0.8690796,1.2290039    c-0.5958862-0.4221191-1.229126-0.6828613-1.9243774-0.7821045v2.5203857h0.0496826    c1.7300415,0.421875,2.9796753,0.998291,2.9796753,2.7685547C23.4496155,29.1613293,22.0992126,30.1127453,20.4202576,30.1808605z    "></path></g></g></svg>