<svg height='100px' width='100px'  fill="#000000" xmlns="http://www.w3.org/2000/svg" xmlns:xlink="http://www.w3.org/1999/xlink" version="1.1" x="0px" y="0px" viewBox="0 0 100 100" enable-background="new 0 0 100 100" xml:space="preserve"><path d="M39.73,39.363c-1.252,0-2.268,1.015-2.268,2.268c0,1.252,1.016,2.268,2.268,2.268s2.268-1.016,2.268-2.268  C41.998,40.378,40.982,39.363,39.73,39.363z M34.064,36.643c-0.477,0.281-0.635,0.894-0.354,1.37  c0.186,0.316,0.52,0.492,0.861,0.492c0.172,0,0.348-0.044,0.506-0.139c4.689-2.766,7.812-1.563,9.258-0.602  c0.459,0.306,1.078,0.182,1.387-0.277c0.307-0.459,0.182-1.081-0.277-1.387C43.969,35.115,39.9,33.197,34.064,36.643z   M63.719,71.418h-3.99v-2.689c5.703-3.738,10.688-9.877,10.688-15.465v-1.402h0.59c3.52,0,5.16-3.057,5.16-9.623  c0-2.137-1.736-3.875-3.875-3.875h-1.875v-14.12c0-6.929-8.967-12.357-20.416-12.357s-20.418,5.428-20.418,12.357v14.12h-1.873  c-2.137,0-3.875,1.738-3.875,3.875c0,6.565,1.641,9.623,5.16,9.623h0.588v1.404c0,5.586,4.984,11.726,10.688,15.463v2.689h-3.988  c-10.414,0-18.887,8.473-18.887,18.887c0,0.553,0.447,1,1,1h63.211c0.553,0,1-0.447,1-1C82.605,79.891,74.133,71.418,63.719,71.418z   M70.416,43.439h0.391c0.273,0,0.369,0.02,0.369,0.41c0,0.229-0.029,0.593-0.029,0.593c-0.043,0.551,0.385,1.078,0.998,1.078  c0.518,0,0.955-0.398,0.996-0.922c0,0,0.035-0.433,0.035-0.749c0-1.441-0.951-2.41-2.369-2.41h-0.391v-1.076h1.875  c1.033,0,1.875,0.841,1.875,1.875c0,7.623-2.297,7.623-3.162,7.623h-0.588V43.439z M29.58,41.439h-0.389  c-1.418,0-2.371,0.969-2.371,2.41c0,0.315,0.037,0.749,0.037,0.749c0.041,0.524,0.479,0.922,0.996,0.922  c0.584,0,1.041-0.527,0.998-1.078c0,0-0.031-0.364-0.031-0.593c0-0.395,0.107-0.41,0.371-0.41h0.389v6.422h-0.588  c-0.863,0-3.16,0-3.16-7.623c0-1.034,0.842-1.875,1.875-1.875h1.873V41.439L29.58,41.439z M40.27,89.305H29.623  c0.166-1.857,0.789-3.639,1.838-5.197c0.309-0.459,0.186-1.08-0.271-1.389c-0.459-0.31-1.08-0.186-1.389,0.272  c-1.271,1.892-2.018,4.056-2.188,6.313h-8.188c0.52-8.849,7.881-15.888,16.855-15.888h3.99v15.888H40.27z M45.701,18.75H48.5v-2.797  h3v2.797h2.799v3H51.5v2.797h-3V21.75h-2.799V18.75z M31.58,50.871c0-0.004,0.002-0.006,0.002-0.01V39.363  c0-0.003-0.002-0.006-0.002-0.01v-0.507c0-5.711,8.264-10.357,18.418-10.357c10.156,0,18.418,4.646,18.418,10.357v12.964  L53.5,46.102V39.75c0-0.552-0.447-1-1-1s-1,0.448-1,1v5.587l-1.143-0.438c-0.23-0.088-0.484-0.088-0.715,0L31.58,51.812V50.871  L31.58,50.871z M31.609,53.939L50,46.904l18.389,7.038c-0.627,7.56-11.49,16.293-18.391,16.293  C43.1,70.234,32.236,61.5,31.609,53.939z M57.729,72.559c0,4.262-3.467,7.729-7.729,7.729s-7.729-3.468-7.729-7.729v-2.635  c2.666,1.442,5.379,2.311,7.729,2.311s5.062-0.867,7.729-2.311V72.559z M72.389,89.305c-0.172-2.259-0.92-4.424-2.191-6.313  c-0.309-0.458-0.93-0.579-1.389-0.271c-0.457,0.309-0.578,0.93-0.271,1.389c1.051,1.559,1.674,3.338,1.84,5.197H59.73V73.418h3.99  c8.975,0,16.338,7.039,16.855,15.887H72.389z M55.662,37.764c1.445-0.962,4.566-2.164,9.256,0.601  c0.158,0.094,0.334,0.139,0.508,0.139c0.342,0,0.676-0.176,0.861-0.492c0.279-0.476,0.121-1.089-0.354-1.37  c-5.836-3.444-9.904-1.527-11.381-0.543c-0.459,0.306-0.584,0.927-0.277,1.387C54.58,37.945,55.199,38.068,55.662,37.764z   M60.266,39.363c-1.252,0-2.268,1.015-2.268,2.268c0,1.252,1.016,2.268,2.268,2.268c1.254,0,2.268-1.016,2.268-2.268  C62.533,40.378,61.52,39.363,60.266,39.363z"></path></svg>