<svg height='100px' width='100px'  fill="#000000" xmlns:x="http://ns.adobe.com/Extensibility/1.0/" xmlns:i="http://ns.adobe.com/AdobeIllustrator/10.0/" xmlns:graph="http://ns.adobe.com/Graphs/1.0/" xmlns="http://www.w3.org/2000/svg" xmlns:xlink="http://www.w3.org/1999/xlink" version="1.1" x="0px" y="0px" viewBox="0 0 81 66" enable-background="new 0 0 81 66" xml:space="preserve"><g><g i:extraneous="self"><g><path d="M50.444,45.223h19.557v-2.444H50.444V45.223z M70.001,20.778H52.889v2.445h17.112V20.778z M70.001,35.444H51.666v2.445     h18.335V35.444z M70.001,28.111H52.889v2.444h17.112V28.111z M47.35,12.219c0.722,0.452,1.528,0.619,2.279,0.614     c2.467-0.067,4.737-1.372,6.928-1.328c2.19-0.044,4.459,1.261,6.93,1.328h0.031c0.737,0,1.533-0.167,2.247-0.614     c1.246-0.791,1.794-2.21,1.792-3.647c-0.002-1.236-0.417-2.555-1.221-3.776V0H46.779v4.792c-0.807,1.223-1.222,2.543-1.225,3.78     C45.553,10.009,46.101,11.431,47.35,12.219z M48.828,6.112h15.455c0.567,0.85,0.831,1.736,0.828,2.46     c-0.002,0.855-0.322,1.385-0.64,1.572c-0.276,0.167-0.563,0.241-0.985,0.244c-1.44,0.066-3.953-1.287-6.93-1.328     c-2.975,0.042-5.488,1.394-6.928,1.328c-0.425-0.002-0.713-0.076-0.988-0.246C48.322,9.957,48.002,9.43,48,8.572     C47.997,7.848,48.261,6.961,48.828,6.112z M42.5,1.222h-4.278c-3.375,0.002-6.109,2.733-6.113,6.111v2.56     c1.473,1.133,3.115,2.169,4.891,3.084V7.333c0.002-0.673,0.548-1.22,1.222-1.22L42.5,6.112V1.222z M74.998,1.222h-4.387v4.89     h4.387c0.676,0.003,1.11,0.548,1.112,1.222v48.889c-0.002,0.674-0.548,1.221-1.224,1.221H42.811     c-1.26,1.751-2.675,3.389-4.249,4.891h36.326c3.38,0,6.109-2.734,6.112-6.111V7.333C80.997,3.955,78.378,1.224,74.998,1.222z"></path><path d="M24.444,6.417C20.031,13.931,10.187,19.704,0,20.603C0,39.604,5.092,60.588,24.445,66     c19.35-5.412,24.444-26.396,24.444-45.397C38.597,19.033,28.859,13.931,24.444,6.417z M24.445,58.666     C12.773,55.74,6.723,37.329,6.723,25.642c4.974-0.308,14.23-3.5,17.722-9.753c3.492,6.253,12.748,9.446,17.723,9.753     C42.166,37.329,36.117,55.74,24.445,58.666z M27.5,34.832v-6.11h-6.111v6.11h-6.11v6.112h6.11v6.111H27.5v-6.111h6.11v-6.112     H27.5z"></path></g></g></g></svg>