<svg height='100px' width='100px'  fill="#000000" xmlns="http://www.w3.org/2000/svg" xmlns:xlink="http://www.w3.org/1999/xlink" version="1.1" x="0px" y="0px" viewBox="0 0 95 95" enable-background="new 0 0 95 95" xml:space="preserve"><g><path d="M61.191,55.039c0,2.94-2.383,5.323-5.324,5.323h-2.459v2.461c0,2.94-2.385,5.324-5.326,5.324H46.92   c-2.941,0-5.326-2.384-5.326-5.324v-2.461h-2.459c-2.941,0-5.324-2.383-5.324-5.323v-1.165c0-2.939,2.383-5.322,5.324-5.322h2.459   v-2.463c0-2.938,2.385-5.323,5.326-5.323h1.162c2.941,0,5.326,2.385,5.326,5.323v2.463h2.459c2.941,0,5.324,2.383,5.324,5.322   V55.039z"></path><g><path d="M57.207,8.144H37.586c-6.477,0-11.746,5.269-11.746,11.745h6.908c0-2.666,2.172-4.837,4.838-4.837h19.621    c2.668,0,4.838,2.171,4.838,4.837h6.908C68.953,13.412,63.686,8.144,57.207,8.144z"></path><path d="M84.76,21.915H10.24c-1.934,0-3.504,1.568-3.504,3.503v57.934c0,1.936,1.57,3.505,3.504,3.505h74.52    c1.936,0,3.504-1.569,3.504-3.505V25.418C88.264,23.483,86.695,21.915,84.76,21.915z M47.5,77.127    c-12.559,0-22.74-10.183-22.74-22.741c0-12.561,10.182-22.742,22.74-22.742s22.742,10.182,22.742,22.742    C70.242,66.944,60.059,77.127,47.5,77.127z"></path></g></g></svg>