<svg height='100px' width='100px'  fill="#000000" xmlns="http://www.w3.org/2000/svg" xmlns:xlink="http://www.w3.org/1999/xlink" version="1.1" x="0px" y="0px" viewBox="0 0 66 66" enable-background="new 0 0 66 66" xml:space="preserve"><g><g><path fill="#000000" d="M65.7,32.8l-6.5-6.3V7.4c0-0.6-0.4-1-1-1h-6.3c-0.6,0-1,0.4-1,1v11.1L42,10c-0.4-0.4-1-0.4-1.4,0L24.9,25    c-1.1-1-2.6-1.5-4.2-1.5h-2.6v-19c0-2.5-2-4.5-4.5-4.5s-4.5,2-4.5,4.5v19H6.5C2.9,23.5,0,26.4,0,30v17.3c0,0.6,0.4,1,1,1h17.8V65    c0,0.3,0.1,0.5,0.3,0.7s0.4,0.3,0.7,0.3h0l41.1,0c0.6,0,1-0.4,1-1V34.6l3.2,0c0.4,0,0.8-0.2,0.9-0.6C66.1,33.5,66,33.1,65.7,32.8z     M52.8,8.4h4.3v16.2l-4.3-4.2V8.4z M11.1,4.5c0-1.4,1.1-2.5,2.5-2.5s2.5,1.1,2.5,2.5v19h-5V4.5z M6.5,25.5c5.1,0,8.8,0,14.2,0    c2.5,0,4.5,2,4.5,4.5v0H2v0C2,27.5,4,25.5,6.5,25.5z M2,32h1.5v12.2c0,0.6,0.4,1,1,1c0.6,0,1-0.4,1-1V32h1.6v12.2c0,0.6,0.4,1,1,1    c0.6,0,1-0.4,1-1V32h1.6v12.2c0,0.6,0.4,1,1,1c0.6,0,1-0.4,1-1V32h1.6v12.2c0,0.6,0.4,1,1,1c0.6,0,1-0.4,1-1V32h1.6v12.2    c0,0.6,0.4,1,1,1c0.6,0,1-0.4,1-1V32h1.6v12.2c0,0.6,0.4,1,1,1c0.6,0,1-0.4,1-1V32h1.5v14.2H2V32z M59.8,64l-39.1,0V48.3h5.5    c0.6,0,1-0.4,1-1V34.6l32.6,0V64z M27.2,32.6V30c0-1.3-0.4-2.5-1-3.5l15-14.5C64,34,55.7,26,62.5,32.6L27.2,32.6z"></path></g><g><path fill="#000000" d="M41.6,19.2c-3,0-5.4,2.5-5.4,5.7s2.4,5.7,5.4,5.7S47,28,47,24.9S44.5,19.2,41.6,19.2z M41.6,28.6    c-1.9,0-3.4-1.6-3.4-3.7s1.5-3.7,3.4-3.7s3.4,1.6,3.4,3.7S43.4,28.6,41.6,28.6z"></path></g><g><path fill="#000000" d="M37.9,45.1c0.5,1.3,2,2.1,3.3,1.6L53,42.3c1.3-0.5,2-2,1.6-3.3l0,0l0.7-0.3c0,0,0.2,0.1,0.3,0.3l1.1,3    c0.1,0.2,0,0.4,0,0.4L49,45.1c-1.1,0.4-1.6,1.7-1.2,2.9l1.3,3.6c-0.8,0.7-1.1,1.8-0.7,2.9l2.4,6.7c0.5,1.4,2,2.1,3.4,1.6    c1.4-0.5,2.1-2,1.6-3.4l-2.4-6.7C53,51.8,52,51.1,51,51l-1.3-3.6c-0.1-0.2,0-0.4,0-0.4l7.6-2.8c1.1-0.4,1.6-1.7,1.2-2.9l-1.1-3    c-0.4-1.2-1.7-1.9-2.8-1.5l-0.7,0.3l0,0c-0.5-1.3-2-2-3.3-1.6l-11.7,4.3c-1.3,0.5-2,2-1.6,3.3L37.9,45.1z M51.5,53.5l2.4,6.7    c0.1,0.4-0.1,0.7-0.4,0.9c-0.3,0.1-0.7-0.1-0.9-0.4l-2.4-6.7c-0.1-0.4,0.1-0.7,0.4-0.9c0.1,0,0.1,0,0.2,0    C51.2,53,51.4,53.2,51.5,53.5z M39.5,41.7l11.7-4.3c0.3-0.1,0.7,0.1,0.8,0.4l0.7,1.9c0.1,0.3,0,0.7-0.4,0.8l-11.7,4.3    c-0.3,0.1-0.7-0.1-0.8-0.4l-0.7-1.9C39,42.1,39.2,41.8,39.5,41.7z"></path></g><g><path fill="#000000" d="M43,48.7c-6.4,0-10.8,0-16.1,0c-0.6,0-1,0.4-1,1c0,0.6,0.4,1,1,1h0.4l1.2,11c0.1,0.5,0.5,0.9,1,0.9h10.8    c0.5,0,0.9-0.4,1-0.9l1.2-11H43c0.6,0,1-0.4,1-1C44,49.1,43.6,48.7,43,48.7z M39.5,60.5h-9l-1.1-9.9h11.2L39.5,60.5z"></path></g></g></svg>