<svg height='100px' width='100px'  fill="#000000" xmlns="http://www.w3.org/2000/svg" xmlns:xlink="http://www.w3.org/1999/xlink" version="1.0" x="0px" y="0px" viewBox="0 0 100 100" enable-background="new 0 0 100 100" xml:space="preserve"><path d="M83.4473953,51.1654434L53.573082,26.6984482c-2.0469017-1.7870502-5.0992622-1.7870502-7.1461639,0L16.5662231,51.1535416  c-1.4338455,1.2518501-2.2565632,3.0623322-2.2565632,4.965744v34.1580963c0,1.562645,1.2785025,2.8412018,2.8411465,2.8412018  h65.6983948c1.5626373,0,2.8411407-1.2785568,2.8411407-2.8412018V56.1012688  C85.6903381,54.2093353,84.8725586,52.4097366,83.4473953,51.1654434z M47.9943657,77.6704559  c0,1.4431686-1.1699181,2.6130371-2.6129875,2.6130371H37.099884c-1.4431229,0-2.6130409-1.1698685-2.6130409-2.6130371v-8.2814484  c0-1.4431152,1.1699181-2.6130371,2.6130409-2.6130371h8.2814941c1.4430695,0,2.6129875,1.1699219,2.6129875,2.6130371V77.6704559z   M47.9943657,60.9050369c0,1.443119-1.1699181,2.6130409-2.6129875,2.6130409H37.099884  c-1.4431229,0-2.6130409-1.1699219-2.6130409-2.6130409v-8.281498c0-1.4430656,1.1699181-2.6129837,2.6130409-2.6129837h8.2814941  c1.4430695,0,2.6129875,1.1699181,2.6129875,2.6129837V60.9050369z M65.0526657,77.6704559  c0,1.4431686-1.1699219,2.6130371-2.6130409,2.6130371h-8.2814445c-1.4431725,0-2.6130371-1.1698685-2.6130371-2.6130371v-8.2814484  c0-1.4431152,1.1698647-2.6130371,2.6130371-2.6130371h8.2814445c1.443119,0,2.6130409,1.1699219,2.6130409,2.6130371V77.6704559z   M65.0526657,60.9050369c0,1.443119-1.1699219,2.6130409-2.6130409,2.6130409h-8.2814445  c-1.4431725,0-2.6130371-1.1699219-2.6130371-2.6130409v-8.281498c0-1.4430656,1.1698647-2.6129837,2.6130371-2.6129837h8.2814445  c1.443119,0,2.6130409,1.1699181,2.6130409,2.6129837V60.9050369z"></path><path d="M94.5991592,43.0142479L52.5128212,8.182766C51.7813683,7.5773773,50.8849716,7.2984371,50,7.3221378  c-0.8849716-0.0237007-1.7813683,0.2552395-2.5127678,0.8606281L32.0313644,20.9743309  c-0.7172432,0.5935402-1.8015804,0.083437-1.8015804-0.8475437v-6.3713846c0-1.5626974-1.2785015-2.8411999-2.8410931-2.8411999  h-7.576479c-1.5626431,0-2.8411465,1.2785025-2.8411465,2.8411999v18.4497833c0,0.7811584-0.3483257,1.5215683-0.9501228,2.0196075  l-10.6201,8.7894554c-1.4889677,1.2322807-1.899281,3.3985443-0.8533359,5.023819  c1.2467585,1.9374046,3.8845172,2.3021927,5.6068463,0.8767128l36.7445946-30.4105854  c1.7992249-1.4890213,4.4028778-1.4890213,6.2021027,0l36.7445984,30.4105854  c1.7223282,1.4254799,4.3600845,1.0606918,5.606842-0.8766594C96.498436,46.4127922,96.0881271,44.2465286,94.5991592,43.0142479z"></path></svg>