<svg height='100px' width='100px'  fill="#000000" xmlns="http://www.w3.org/2000/svg" data-name="Layer 1" viewBox="0 0 512 512" x="0px" y="0px"><title>search Profile</title><g data-name="Group"><path data-name="Compound Path" d="M261.36,171.52A102.615,102.615,0,1,0,364.038,274.134,102.762,102.762,0,0,0,261.36,171.52Zm0,189.229a86.615,86.615,0,1,1,86.678-86.615A86.745,86.745,0,0,1,261.36,360.749Z"></path><path data-name="Compound Path" d="M397.372,368a8,8,0,0,0-11.314,0l-9.718,9.718-15.185-15.23a132.805,132.805,0,0,0,33.56-88.351c0-73.532-59.823-133.355-133.355-133.355-3.191,0-6.354.12-9.49.342A45.233,45.233,0,0,0,208.065,112H188.137a7.868,7.868,0,0,0-5.475,2.016L153.48,141.325l-28.05-27.172A7.892,7.892,0,0,0,119.852,112H98.7A47.069,47.069,0,0,0,51.59,159.168c0,1.445-.59,2.757.41,4.2V279.323A28.386,28.386,0,0,0,80.454,308h.01l.321.093a28.131,28.131,0,0,0,14.282-4.039l5.172,174.1a30.621,30.621,0,0,0,53.244,19.531,30.615,30.615,0,0,0,53.245-19.561l2.415-81.29a133.151,133.151,0,0,0,140.706-23.029l15.178,15.222-9.873,9.873a8,8,0,0,0,0,11.315l54.562,54.561a29.818,29.818,0,0,0,42.168-.04l.833-.833c.1-.1.194-.2.288-.3a30.027,30.027,0,0,0-1.116-41.088ZM93,278.731C93,286.072,87.621,292,80.592,292h-.135A12.376,12.376,0,0,1,68,279.32V162.985c0-.268-.224-.537-.251-.8a28.543,28.543,0,0,1-.264-3.011A31.141,31.141,0,0,1,98.707,128h17.9l31.2,30.2c.051.05.107.016.159.064.116.108.234.176.355.276.09.073.182.124.274.193.126.094.253.178.383.264.1.064.195.118.293.177.131.079.262.154.4.225.1.054.209.1.315.151.134.064.268.126.405.181.11.045.221.082.333.121.136.048.273.1.411.138.115.033.23.059.346.088.139.034.278.069.419.1.114.021.229.035.344.052.144.02.289.043.434.056.11.01.219.011.329.016.128.006.255.019.383.019.025,0,.05,0,.076,0,.067,0,.135-.007.2-.009.184-.007.368-.015.551-.034.075-.008.149-.021.223-.031.175-.023.35-.048.523-.083.081-.016.16-.037.24-.056.165-.038.33-.079.494-.128.085-.025.168-.056.253-.085.155-.052.31-.106.462-.169.089-.036.176-.077.263-.116.145-.065.289-.132.43-.207.091-.048.179-.1.268-.151.135-.077.268-.156.4-.242.09-.059.177-.122.265-.185.126-.09.251-.183.372-.282.084-.067.166-.138.248-.21s.139.037.2-.025L191.3,128h16.763c1.045,0,2.107-.1,3.154.009a31.5,31.5,0,0,1,23.954,15.613A133.706,133.706,0,0,0,128.6,262H109.812l-.527-12.355c-.011-.38-.285-.928-.285-1.292V201.447a8,8,0,0,0-16,0ZM130.61,491.7a14.311,14.311,0,0,1-14.5-13.872L110.287,278h17.765A139.879,139.879,0,0,0,145,340.074v137A14.444,14.444,0,0,1,130.61,491.7Zm60.126-14.1A14.879,14.879,0,0,1,161,477.072V362.393c10,10.369,20.172,19.3,32.133,26.42Zm70.624-86.112a117.359,117.359,0,0,1-15.006-233.754,8.054,8.054,0,0,0,1.7-.2,117.354,117.354,0,1,1,13.3,233.951Zm179.887,61.257-.626.627a13.749,13.749,0,0,1-19.637.045l-48.86-48.859,19.591-19.591,48.908,48.908A13.88,13.88,0,0,1,441.247,452.746Z"></path><path data-name="Compound Path" d="M198,65.281V50.142a46,46,0,0,0-92,0V65.281a46,46,0,0,0,92,0Zm-76,0V50.142A30.224,30.224,0,0,1,151.951,20h.1A30.221,30.221,0,0,1,182,50.142V65.281a30,30,0,0,1-60,0Z"></path></g></svg>