<svg height='100px' width='100px'  fill="#000000" xmlns="http://www.w3.org/2000/svg" xmlns:xlink="http://www.w3.org/1999/xlink" version="1.1" x="0px" y="0px" viewBox="0 0 280.336 237.184" style="enable-background:new 0 0 280.336 237.184;" xml:space="preserve"><g><path d="M237.253,141.385c5.778-8.853,11.303-37.591,19.747-38.496c10.246-1.098,14.318,3.111,17.475,3.477   c3.156,0.365,8.783-4.391,4.023-8.783c-3.601-3.327-8.253-14.31-12.524-20.24c2.176-1.794,4.275-2.477,3.21-3.546   c-1.002-1.005-3.192-0.494-5.296,1.074c-0.535-0.509-1.06-0.893-1.571-1.13c-0.168-2.376-0.565-3.789-1.965-3.738   c-1.211,0.044-2.208,1.471-2.648,3.511c-6.573,1.045-16.487,5.991-19.092,8.882c-3.293,3.66-14.271,4.393-18.297,4.758   c0,0-23.42,4.758-42.084,2.928c-12.064-1.183-24.734-1.141-32.288,0.322c-5.472-0.351-8.819,1.549-10.802,2.606   c-2.059,1.098-3.018,3.156-3.568,6.588l-1.229,27.569c-1.241,0.397-2.144,1.905-2.103,6.017c0.049,4.926,1.43,11.717,3.049,11.699   c1.619-0.016,2.865-6.832,2.816-11.756c-0.039-3.931-0.891-5.466-2.056-5.92c0.283-13.583,2.999-25.781,2.999-25.781l3.992-2.994   c0.116,5.486,0.698,14.78,2.309,23.249l-5.51,20.218c-0.186,0.686-0.18,1.398,0.02,2.082l7.746,26.638   c-0.092,0.126-0.189,0.245-0.372,0.245c-0.404,0-0.404-1.035-0.809-1.035c-0.404,0-0.404,2.793-0.809,2.793   c-0.404,0-0.404-2.746-0.809-2.746c-0.403,0-0.403,1.544-0.808,1.544c-0.404,0-0.404,0.225-0.808,0.225   c-0.403,0-0.403-1.869-0.807-1.869c-0.403,0-0.403,2.342-0.808,2.342c-0.403,0-0.403,0.57-0.807,0.57   c-0.402,0-0.402-3.631-0.806-3.631c-0.403,0-0.403,3.852-0.807,3.852c-0.403,0-0.403-2.968-0.806-2.968   c-0.402,0-0.402,2.891-0.806,2.891c-0.403,0-0.403-1.957-0.806-1.957c-0.402,0-0.402,0.444-0.806,0.444   c-0.402,0-0.402-2.36-0.805-2.36c-0.402,0-0.402,1.874-0.805,1.874c-0.402,0-0.402,1.121-0.805,1.121   c-0.402,0-0.402,1.027-0.805,1.027c-0.402,0-0.402-1.914-0.805-1.914c-0.402,0-0.402-1.801-0.805-1.801   c-0.402,0-0.402,0.605-0.805,0.605c-0.401,0-0.401,1.415-0.804,1.415c-0.402,0-0.402-0.72-0.805-0.72   c-0.402,0-0.402,1.656-0.804,1.656c-0.401,0-0.401-2.609-0.804-2.609c-0.402,0-0.402,0.476-0.805,0.476   c-0.402,0-0.402,2.139-0.804,2.139c-0.401,0-0.401,0.821-0.804,0.821c-0.402,0-0.402-1.561-0.805-1.561   c-0.402,0-0.402-2.629-0.804-2.629c-0.401,0-0.401,4.121-0.804,4.121c-0.402,0-0.402-0.516-0.804-0.516   c-0.402,0-0.402-2.208-0.805-2.208c-0.401,0-0.401-0.98-0.804-0.98c-0.402,0-0.402-0.169-0.804-0.169   c-0.402,0-0.402,0.181-0.805,0.181c-0.401,0-0.401,0.171-0.804,0.171c-0.402,0-0.402,1.152-0.805,1.152   c-0.402,0-0.402-0.664-0.805-0.664c-0.402,0-0.402,3.13-0.804,3.13c-0.402,0-0.402-4.085-0.805-4.085   c-0.402,0-0.402,2.524-0.805,2.524c-0.403,0-0.403-0.802-0.806-0.802c-0.402,0-0.402,1.447-0.805,1.447   c-0.402,0-0.402-2.925-0.806-2.925c-0.402,0-0.402,2.577-0.805,2.577c-0.403,0-0.403-1.458-0.806-1.458   c-0.402,0-0.402,1.59-0.806,1.59s-0.403-0.277-0.806-0.277c-0.403,0-0.403-1.632-0.807-1.632c-0.403,0-0.403-0.483-0.807-0.483   c-0.402,0-0.402,1.841-0.806,1.841c-0.179,0-0.275-0.05-0.366-0.104v10.583h173.396v-6.32c0.544-0.087,0.993-0.186,0.993-0.352   c0-0.421-2.659-0.421-2.659-0.843c0-0.419-0.69-0.419-0.69-0.838c0-0.42,0.427-0.42,0.427-0.84c0-0.42,2.77-0.42,2.77-0.84   c0-0.421-1.271-0.4-1.565-0.702c-0.287-0.294-0.268-0.075-0.679-0.075c-0.412,0-0.412,1.382-0.823,1.382   c-0.41,0-0.41-1.852-0.82-1.852c-0.409,0-0.409,0.754-0.819,0.754c-0.408,0-0.408-1.139-0.815-1.139   c-0.408,0-0.408,2.926-0.816,2.926s-0.408-0.894-0.816-0.894c-0.409,0-0.409-1.924-0.818-1.924c-0.407,0-0.407,1.108-0.815,1.108   s-0.408-2.188-0.815-2.188c-0.409,0-0.409,1.611-0.817,1.611c-0.406,0-0.406-0.69-0.813-0.69c-0.406,0-0.406,2.961-0.813,2.961   c-0.407,0-0.407-3.932-0.813-3.932c-0.408,0-0.408,2.146-0.816,2.146c-0.406,0-0.406,0.612-0.814,0.612   c-0.405,0-0.405,0.496-0.81,0.496c-0.407,0-0.407-3.176-0.816-3.176c-0.408,0-0.408,1.679-0.815,1.679   c-0.407,0-0.407-0.571-0.814-0.571c-0.407,0-0.407,2.407-0.814,2.407c-0.407,0-0.407-2.973-0.814-2.973   c-0.408,0-0.408-0.308-0.815-0.308c-0.407,0-0.407,3.382-0.814,3.382c-0.407,0-0.407-0.693-0.813-0.693   c-0.406,0-0.406-2.618-0.813-2.618c-0.406,0-0.406,1.714-0.813,1.714c-0.406,0-0.406-1.561-0.813-1.561   c-0.407,0-0.407,1.409-0.814,1.409c-0.407,0-0.407,1.702-0.815,1.702c-0.406,0-0.406-0.654-0.814-0.654   c-0.407,0-0.407-0.743-0.813-0.743c-0.406,0-0.406-1.244-0.812-1.244c-0.405,0-0.405,1.485-0.811,1.485   c-0.405,0-0.405-0.153-0.811-0.153c-0.405,0-0.405-1.297-0.811-1.297c-0.406,0-0.406-0.357-0.811-0.357   c-0.405,0-0.405,3.055-0.812,3.055c-0.406,0-0.406-1.274-0.813-1.274c-0.407,0-0.407,0.652-0.814,0.652   c-0.407,0-0.407-2.938-0.814-2.938c-0.406,0-0.406,1.678-0.812,1.678c-0.405,0-0.405-1.397-0.811-1.397   c-0.404,0-0.404,1.127-0.81,1.127c-0.405,0-0.405,1.33-0.81,1.33s-0.404-0.634-0.809-0.634c-0.404,0-0.404-1.614-0.809-1.614   c-0.404,0-0.404,1.355-0.809,1.355s-0.404,1.808-0.808,1.808c-0.32,0-0.387-1.918-0.603-2.711c0.146-0.331,0.262-0.681,0.311-1.057   L237.253,141.385z M263.313,88.982c-1.313,0-2.379-1.064-2.379-2.379c0-1.314,1.066-2.379,2.379-2.379   c1.314,0,2.379,1.064,2.379,2.379C265.691,87.918,264.627,88.982,263.313,88.982z M227.921,172.082   c-0.126,0.223-0.225,0.497-0.467,0.497c-0.212,0-0.314-0.615-0.419-1.206C227.295,171.651,227.59,171.892,227.921,172.082z    M189.209,142.41c7.002-4.149,22.637-2.785,33.76-0.855l3.041,27.623c0.056,0.501,0.209,0.969,0.435,1.391   c-0.224,0.656-0.288,2.337-0.615,2.337c-0.405,0-0.405-1.693-0.812-1.693c-0.406,0-0.406-2.258-0.811-2.258   c-0.405,0-0.405,0.323-0.812,0.323c-0.405,0-0.405,3.19-0.811,3.19c-0.406,0-0.406-3.257-0.812-3.257   c-0.405,0-0.405,0.53-0.811,0.53c-0.405,0-0.405,2.46-0.811,2.46c-0.406,0-0.406-0.861-0.812-0.861   c-0.405,0-0.405-0.847-0.812-0.847c-0.406,0-0.406,0.499-0.813,0.499c-0.406,0-0.406,2.004-0.813,2.004   c-0.406,0-0.406-4.006-0.813-4.006c-0.406,0-0.406,1.202-0.813,1.202c-0.406,0-0.406,1.643-0.811,1.643   c-0.405,0-0.405-1.789-0.812-1.789c-0.405,0-0.405,0.353-0.811,0.353s-0.405-0.818-0.811-0.818c-0.405,0-0.405-0.578-0.811-0.578   c-0.405,0-0.405,2.69-0.81,2.69c-0.405,0-0.405,1.126-0.811,1.126c-0.404,0-0.404-1.566-0.809-1.566   c-0.405,0-0.405-2.076-0.811-2.076c-0.405,0-0.405,2.811-0.811,2.811c-0.405,0-0.405-1.841-0.811-1.841s-0.405,1.799-0.811,1.799   c-0.405,0-0.405-1.816-0.811-1.816c-0.405,0-0.405,0.451-0.812,0.451c-0.406,0-0.406,2.281-0.811,2.281   c-0.406,0-0.406-3.899-0.813-3.899c-0.406,0-0.406,4.084-0.813,4.084c-0.405,0-0.405-0.085-0.812-0.085   c-0.406,0-0.406-3.614-0.812-3.614c-0.405,0-0.405,2.813-0.811,2.813s-0.405,0.499-0.811,0.499c-0.404,0-0.404-2.002-0.81-2.002   s-0.405,0.148-0.811,0.148c-0.405,0-0.405,1.116-0.809,1.116c-0.404,0-0.404-1.821-0.81-1.821c-0.404,0-0.404,2.976-0.809,2.976   c-0.405,0-0.405-3.647-0.81-3.647c-0.404,0-0.404,3.611-0.809,3.611s-0.404-0.461-0.809-0.461c-0.404,0-0.404,0.019-0.809,0.019   c-0.404,0-0.404-3.095-0.809-3.095c-0.405,0-0.405,1.162-0.81,1.162s-0.404,1.692-0.809,1.692c-0.404,0-0.404-0.942-0.81-0.942   c-0.405,0-0.405-2.232-0.81-2.232c-0.404,0-0.404,0.306-0.81,0.306c-0.405,0-0.405,0.124-0.81,0.124   c-0.404,0-0.404-0.408-0.809-0.408c-0.405,0-0.405,0.389-0.811,0.389c-0.405,0-0.405,0.8-0.811,0.8   c-0.405,0-0.405,0.131-0.811,0.131c-0.405,0-0.405-0.302-0.811-0.302c-0.406,0-0.406,1.798-0.812,1.798s-0.405-3.09-0.811-3.09   c-0.406,0-0.406,3.767-0.812,3.767c-0.405,0-0.405-2.627-0.811-2.627s-0.405-0.147-0.811-0.147c-0.405,0-0.405,2.964-0.811,2.964   c-0.405,0-0.405-3.1-0.81-3.1c-0.404,0-0.404,2.2-0.809,2.2s-0.404-1.159-0.809-1.159c-0.404,0-0.404-1.15-0.809-1.15   s-0.404,0.278-0.809,0.278c-0.403,0-0.403,1.117-0.808,1.117c-0.404,0-0.404,0.722-0.809,0.722s-0.404,1.388-0.808,1.388   c-0.403,0-0.403-0.563-0.808-0.563c-0.116,0-0.199-0.271-0.268-0.652c0.438-0.857,0.564-1.872,0.268-2.854l-6.758-22.389   l1.939-2.594C173.235,145.857,182.924,146.134,189.209,142.41z M150.782,152.427l11.181,19.482   c-0.037,0.054-0.078,0.089-0.125,0.089c-0.404,0-0.404,0.874-0.808,0.874c-0.403,0-0.403-2.324-0.807-2.324   c-0.403,0-0.403-0.775-0.808-0.775c-0.404,0-0.404,0.557-0.808,0.557c-0.403,0-0.403,0.939-0.808,0.939   c-0.403,0-0.403-0.628-0.807-0.628c-0.404,0-0.404-0.494-0.809-0.494c-0.404,0-0.404,2.946-0.808,2.946   c-0.404,0-0.404-2.363-0.809-2.363s-0.404,2.181-0.809,2.181c-0.404,0-0.404,0.124-0.809,0.124c-0.404,0-0.404-0.746-0.809-0.746   c-0.405,0-0.405-1.615-0.81-1.615c-0.013,0-0.022-0.01-0.034-0.012c0.021-0.184,0.04-0.37,0.034-0.561L150.782,152.427z"></path><path d="M85.951,74.789l9.043,43.78v-10.688V74.766c0.592,1.215,1.191,2.611,1.781,4.238c2.818,7.811,5.188,20.629,5.18,40.637   c0,5.514-0.176,11.574-0.564,18.223c-0.26,4.412,3.109,8.195,7.522,8.453c0.158,0.008,0.316,0.014,0.475,0.014   c4.201,0,7.727-3.283,7.975-7.535c0.404-6.932,0.592-13.299,0.592-19.154c-0.039-30.184-4.861-46.885-11.434-56.93   c-3.283-4.988-7.127-8.186-10.678-9.957c-2.48-1.25-4.737-1.793-6.483-2.009L85.951,74.789z"></path><polygon points="81.429,73.453 84.652,50.699 51.791,50.699 55.015,73.453 67.947,73.453  "></polygon><path d="M65.629,173.646c-5.092-0.229-10.069-1.166-14.377-2.284c0.038,0.392,0.05,0.79,0.02,1.194l-2.33,30.945   c-0.285,3.768-3.59,6.836-7.369,6.836H40.9v14.482c0,6.83,5.537,12.363,12.363,12.363c6.828,0,12.365-5.533,12.365-12.363V173.646z   "></path><path d="M94.994,168.004c-4.796,1.882-14.538,5.187-24.731,5.643v51.174c0,6.83,5.537,12.363,12.363,12.363   c6.828,0,12.367-5.533,12.367-12.363V168.004z"></path><path d="M71.606,44.699c9.703-1.587,17.313-9.378,18.632-19.168c-2.029-0.103-4.17-0.322-6.371-0.664   c-11.52-1.791-20.4-6.304-20.146-10.17c1.525,3.46,10.442,6.119,21.247,6.119c8.154,0,15.248-1.513,18.893-3.743   c1.663-1.017,2.609-2.183,2.609-3.423c0-3.959-9.627-7.168-21.502-7.168c-0.406,0-0.803,0.013-1.203,0.02   C79.701,2.483,74.115,0,67.947,0c-12.426,0-22.5,10.074-22.5,22.5c0,11.181,8.156,20.451,18.841,22.199   C65.48,44.894,66.701,45,67.947,45C69.194,45,70.415,44.894,71.606,44.699z"></path><path d="M5.729,172.406l2.328,30.945c0.207,2.742,2.627,4.986,5.377,4.986h28.139c2.75,0,5.168-2.244,5.375-4.986l2.33-30.945   c0.03-0.401-0.002-0.786-0.064-1.161c1.142-0.576,2.167-1.225,3.034-1.972c1.64-1.398,2.763-3.275,2.755-5.438   c-0.018-11.823-8.792-21.604-20.559-24.427c0.067-0.504,0.092-1.021,0.061-1.547c-0.391-6.65-0.566-12.707-0.566-18.221   c-0.035-24.215,3.495-37.82,6.963-44.92v33.16v10.688l9.318-45.116h0.084l-3.226-22.768c-1.806,0.164-4.283,0.685-7.028,2.069   c-5.377,2.666-11.176,8.502-15.236,18.84c-4.105,10.379-6.863,25.387-6.877,48.047c0.002,5.855,0.19,12.225,0.596,19.158   c0.022,0.387,0.081,0.762,0.156,1.131c-0.645,0.2-1.28,0.416-1.902,0.659C6.964,144.412,0.016,153.314,0,163.835   c-0.008,2.163,1.115,4.04,2.755,5.438c0.376,0.317,0.791,0.615,1.223,0.904c0.563,0.377,1.169,0.731,1.817,1.06   C5.73,171.614,5.698,172.002,5.729,172.406z M27.094,165.254c11.045,0,20,1.791,20,4s-8.955,4-20,4c-11.047,0-20-1.791-20-4   S16.047,165.254,27.094,165.254z M4.717,167.005c-1.206-1.06-1.708-2.053-1.716-3.17c0.002-6.108,2.701-11.639,7.126-15.687   c2.203-2.013,4.832-3.647,7.756-4.782c0.635-0.246,1.285-0.464,1.945-0.662c1.437,2.192,3.909,3.626,6.684,3.626   c0.156,0,0.314-0.004,0.475-0.014c2.817-0.166,5.203-1.773,6.495-4.061c4.394,1.002,8.311,3.076,11.394,5.893   c4.424,4.048,7.124,9.578,7.126,15.687c-0.008,1.117-0.51,2.11-1.716,3.17c-0.413,0.37-0.915,0.722-1.478,1.058   c-1.407-2.883-7.918-4.062-13.905-4.524c-2.961-0.229-5.793-0.284-7.809-0.284c-4.833,0-14.343,0.315-19.119,2.597   c-1.059,0.506-1.882,1.108-2.372,1.826c-0.058-0.039-0.112-0.078-0.167-0.118C5.177,167.377,4.933,167.192,4.717,167.005z"></path></g></svg>