<svg height='100px' width='100px'  fill="#000000" xmlns="http://www.w3.org/2000/svg" xmlns:xlink="http://www.w3.org/1999/xlink" version="1.1" x="0px" y="0px" viewBox="0 0 100 100" enable-background="new 0 0 100 100" xml:space="preserve"><g><circle cx="39.672" cy="19.506" r="7.545"></circle><path d="M53.565,55.819l-7.825-7.824l-1.145-13.712c-0.125-1.501-1.105-2.715-2.426-3.211l0.002-0.009l-12.444-6.229l-0.007,0.008   c-0.936-0.394-2.021-0.42-3.019,0.031l-13.832,6.288c-0.99,0.449-1.739,1.306-2.051,2.35L7.047,46.087   c-0.599,1.994,0.533,4.099,2.527,4.695c0.363,0.11,0.727,0.162,1.085,0.162c1.624,0,3.122-1.056,3.613-2.689l2.765-9.888   l5.03-2.515l-5.484,16.111l0.012,0.012c-0.135,0.371-0.238,0.757-0.268,1.169l-1.167,17.916l-9.32,11.244   c-1.43,1.967-0.995,4.718,0.972,6.149c0.781,0.567,1.688,0.84,2.584,0.84c1.36,0,2.701-0.629,3.563-1.812l10.06-13.832   c0.484-0.665,0.771-1.454,0.83-2.274l1.989-10.374l5.273,11.649L27.82,83.628c-0.697,2.328,0.624,4.782,2.952,5.481   c0.422,0.126,0.847,0.187,1.265,0.187c1.894,0,3.642-1.232,4.214-3.139l3.772-12.574c0.31-1.029,0.231-2.134-0.219-3.109   l-6.95-15.056l5.56-12.021l-0.079,6.602c0.074,0.889,0.462,1.722,1.093,2.353l8.802,8.802c0.737,0.737,1.702,1.105,2.667,1.105   c0.965,0,1.93-0.368,2.667-1.105C55.039,59.683,55.039,57.293,53.565,55.819z"></path><path d="M80.406,59.182l-13.832-3.772c-0.749-0.2-1.541,0.071-2.005,0.688l-3.026,4.035L11.862,46.619   c-1.003-0.276-2.041,0.319-2.314,1.325c-0.274,1.005,0.319,2.042,1.325,2.314l48.236,13.12l-2.083,2.777   c-0.375,0.5-0.478,1.152-0.275,1.742c0.202,0.591,0.683,1.044,1.285,1.209l13.741,3.772c0.167,0.046,0.335,0.067,0.501,0.067   c0.828,0,1.588-0.549,1.817-1.387c0.276-1.004-0.314-2.043-1.319-2.318l-11.069-3.039l1.32-1.76l12.526,3.407   c0.166,0.046,0.332,0.066,0.496,0.066c0.83,0,1.59-0.551,1.819-1.391c0.274-1.005-0.319-2.042-1.325-2.315l-11.083-3.013   l1.359-1.812l12.595,3.436c1.002,0.272,2.042-0.318,2.316-1.324C82.004,60.493,81.412,59.455,80.406,59.182z"></path><path d="M94.987,33.453c0-0.039,0.012-0.076,0.012-0.115h-0.022c0-0.114,0.007-0.229-0.027-0.346l-5.03-17.604   c-0.155-0.541-0.648-0.913-1.208-0.913H76.241l-0.105-2.564c-0.027-0.675-0.582-1.207-1.255-1.207c-0.676,0-1.23,0.532-1.258,1.207   l-0.103,2.564H61.049c-0.562,0-1.056,0.372-1.211,0.913l-5.03,17.604c-0.032,0.116-0.027,0.231-0.027,0.346h-0.02   c0,0.039,0.01,0.076,0.012,0.115c0,0.022,0.002,0.044,0.005,0.066c0.098,3.387,2.858,6.105,6.27,6.105   c3.409,0,6.169-2.719,6.268-6.105c0.005-0.022,0.005-0.044,0.007-0.066c0-0.039,0.012-0.076,0.012-0.115h-0.022   c0-0.114,0.007-0.229-0.027-0.346l-4.57-16.001h10.701l-0.918,22.714c-3.787,0.582-6.42,2.515-6.42,4.949h17.604   c0-2.447-2.638-4.386-6.42-4.958l-0.921-22.705h10.703l-4.573,16.001c-0.032,0.116-0.027,0.231-0.027,0.346h-0.02   c0,0.039,0.01,0.076,0.012,0.115c0,0.022,0.002,0.044,0.005,0.066c0.098,3.387,2.859,6.105,6.27,6.105   c3.409,0,6.169-2.719,6.268-6.105C94.985,33.497,94.985,33.476,94.987,33.453z M57.326,33.338l3.723-13.027l3.721,13.027H57.326z    M84.989,33.338l3.723-13.027l3.721,13.027H84.989z"></path></g></svg>