<svg height='100px' width='100px'  fill="#000000" xmlns="http://www.w3.org/2000/svg" xmlns:xlink="http://www.w3.org/1999/xlink" version="1.1" x="0px" y="0px" viewBox="0 0 128 128" style="enable-background:new 0 0 128 128;" xml:space="preserve"><g><path d="M15.1853638,76.3674316c-5.3035278,0-9.5300293,4.4341431-9.2758179,9.7316284l1.0075684,20.9954834   c0.0511475,1.0661011,0.9303589,1.9041748,1.9976807,1.9041748h12.5411377c1.0673218,0,1.9465942-0.8380737,1.9977417-1.9041748   l1.0075073-20.9954834C24.7153931,80.8015747,20.4889526,76.3674316,15.1853638,76.3674316z"></path><path d="M89.8530884,76.3674316h-0.000061c-5.3035278,0-9.5299683,4.4341431-9.2757568,9.7316284l1.0075073,20.9954834   c0.0511475,1.0661011,0.9304199,1.9041748,1.9976807,1.9041748h12.5411987c1.0672607,0,1.9465332-0.8380737,1.9976807-1.9041748   l1.0075684-20.9954834C99.3831177,80.8015747,95.1566162,76.3674316,89.8530884,76.3674316z"></path><path d="M45.5133667,91.9436035l0.642395-5.151062c0.6901245-5.5336914-3.6184082-10.4232788-9.1949463-10.4350586h-0.000061   c-5.5765381-0.0117798-9.9056396,4.8595581-9.2389526,10.3961182l0.6270752,5.2069702   c0.1859131,1.5440063,0.0106201,3.1101074-0.512146,4.5748291l-0.1188354,0.3330688   c-0.8615723,2.4141235-1.3045654,4.9575806-1.3099365,7.520813l-0.0054321,2.6052246   c-0.0023193,1.1062012,0.8937988,2.0042114,2,2.0042114h16.9871216c1.1029053,0,1.9976807-0.8928833,2-1.9957886   l0.0056152-2.6459351c0.0055542-2.6397705-0.453064-5.2599487-1.3549805-7.7409058   C45.4972534,95.1222534,45.3166504,93.520874,45.5133667,91.9436035z"></path><path d="M27.0582275,69.0808105c-0.2102661,0.4880371-0.3130493,1.0435791-0.263855,1.6570435   c0.0997314,1.2434692,0.8848877,2.3818359,2.0231323,2.8922729c1.2068481,0.5412598,2.4720459,0.3481445,3.430542-0.3025513   c0.3061523,0.2196045,0.6245117,0.427124,0.9683838,0.6062622c2.3752441,1.2373657,5.0827637,1.1583862,7.3041382,0.0371094   c0.0198364,0.1323853,0.0421753,0.2660522,0.0875854,0.4098511c0.2980347,0.9436646,1.0473022,1.7373047,2.020874,1.9147339   c1.3748169,0.2505493,2.7150269-0.6260376,3.0259399-2.0020142c0.0823364-0.3643188,0.0837402-0.7277222,0.0169067-1.0722656   c-0.0526733-0.2712402,0.0186157-0.5581665,0.2017822-0.7650146c0.3747559-0.4233398,0.6537476-0.9406128,0.7872314-1.5313721   c0.3545532-1.5690308-0.4104004-3.1201782-1.7595215-3.848999c0.0487061-1.6877441-0.432373-3.3526611-1.3799438-4.7446289   c0.2385864-0.3511963,0.4061279-0.760498,0.4512939-1.2236938c0.1069946-1.0977173-0.5268555-2.192627-1.5370483-2.635376   c-0.3528442-0.1546631-0.7128296-0.2271118-1.0629883-0.2286377c-0.7061157-0.0030518-1.3608398-0.3531494-1.6524658-0.9962158   c-0.3677368-0.8109741-1.0952148-1.4458008-2.0317993-1.6574707c-1.0795288-0.2439575-2.1508179,0.1385498-2.8413086,0.90625   c-0.4793091,0.5328369-1.2038574,0.7005005-1.8910522,0.4969482c-0.2510986-0.0744019-0.5198364-0.1165161-0.8041992-0.119873   c-1.1779175-0.013855-2.2996216,0.7096558-2.7521973,1.7973022c-0.1674805,0.4026489-0.2415771,0.8129883-0.2348022,1.2109985   c0.0133057,0.7842407-0.4370117,1.4645996-1.1682739,1.74823c-1.0454712,0.4055176-1.8760376,1.3019409-2.1422119,2.4797974   c-0.2721558,1.2044678,0.1133423,2.4008789,0.9175415,3.2213745   C27.2303467,67.7985229,27.3172607,68.4793701,27.0582275,69.0808105z"></path><path d="M85.649292,72.3287354c-0.6711426,0.2518921-1.3728638,0.3795776-2.0856323,0.3795776   c-0.1365967,0-0.2686157-0.0203857-0.4033203-0.0294189c0.5180054,0.4837036,1.1029053,0.9115601,1.762085,1.2549438   c3.918457,2.0412598,8.7497559,0.5195312,10.7910767-3.3989258c2.0412598-3.918457,0.5195312-8.7498169-3.3989258-10.7910767   c-1.6953735-0.8831787-3.5611572-1.0968018-5.2984009-0.7404785l2.1141357,5.7022095   C90.2639771,67.7631836,88.7023315,71.1829224,85.649292,72.3287354z"></path><path d="M120.1104126,96.6160889c-0.5430298-1.4938354-0.7236328-3.0952148-0.5269775-4.6724854l0.642395-5.151062   c0.6901245-5.5336914-3.6184082-10.4232788-9.1949463-10.4350586s-9.9057007,4.8595581-9.2389526,10.3961182l0.6270142,5.2069702   c0.1859741,1.5440063,0.0106812,3.1101074-0.512085,4.5748291l-0.1187134,0.3326416   c-0.8616333,2.4143677-1.3046875,4.9581909-1.3100586,7.5216675l-0.0054932,2.6047974   c-0.0022583,1.1062012,0.8937988,2.0042114,2,2.0042114h16.9871826c1.1029053,0,1.9976807-0.8928833,2-1.9957886   l0.0055542-2.6459351C121.4709473,101.7172241,121.0123291,99.0970459,120.1104126,96.6160889z"></path><path d="M104.2506104,63.1427612c-2.0413208,3.918457-0.5195312,8.7498169,3.3989258,10.7910767   s8.7497559,0.5195312,10.7910767-3.3989258c1.2285156-2.3582764,1.1586304-5.0436401,0.0603027-7.2559814   c0.8820801-0.3360596,1.6283569-1.0181274,1.9979858-1.9669189c0.6939087-1.78125-0.1875-3.7877197-1.968689-4.4816895   c-0.9874878-0.3847046-2.0369263-0.2714233-2.9008789,0.1971436c-0.279541-0.4279785-0.68573-0.7786255-1.1983643-0.9783325   c-1.3068848-0.5090942-2.7789917,0.1375732-3.2880859,1.444458c-0.1749268,0.4489136-0.2046509,0.9155884-0.1268311,1.3577881   C108.2505493,58.9682617,105.6212158,60.5116577,104.2506104,63.1427612z"></path><path d="M74.2639771,54.0301514l5.6396484,14.1935425c0.284668,0.7164917,0.7615967,1.2965088,1.3427124,1.7198486   c0.6691895,0.4874268,1.4780884,0.7647705,2.3173218,0.7647705c0.4599609,0,0.9273682-0.0811157,1.3828735-0.2520752   c2.0303345-0.7619629,3.0623779-3.0220947,2.3085327-5.0554199l-2.1313477-5.7485962l-6.7490845-18.203186   c-1.4538574-3.9212036-5.1942139-6.5236206-9.3762817-6.5236206h-7.4047241c-2.8845825,0-5.5515747-1.5339355-7.0020752-4.0272827   L44.0214844,12.7286377c-0.7687378-1.3214722-2.1453857-2.036377-3.5453491-2.036499   c-0.8948364-0.000061-1.7990723,0.2919922-2.5606689,0.9043579v0.000061   c-1.4906006,1.1986084-1.9529419,3.2694702-1.1137085,4.9882202l14.7027588,30.111084   c2.432373,4.5508423,0.1169434,11.9151611-1.1943359,20.1260986c-0.9174805,5.7453003-0.9799805,9.5338745-0.5372314,14.5067749   c0.8930664,10.0305786,2.0079346,28.5461426,2.4638672,36.3612671c0.1191406,2.0410767,1.8086548,3.6314697,3.8532104,3.6314697   h0.5609131c2.0505371,0,3.7431641-1.6033325,3.8543091-3.6508179l1.90625-35.1307373   c0.0317383-0.5848999,0.5142822-1.043396,1.1000366-1.0452271c0.0011597,0,0.0023193,0,0.003479,0   c0.585144,0,1.0691528,0.4562378,1.1032104,1.0408325l2.0474854,35.1504517   c0.1188965,2.0411377,1.8087769,3.635498,3.8533936,3.635498c2.0407104,0,3.7286987-1.5864868,3.8527222-3.6233521   c0.4679565-7.6848755,1.5558472-25.7335205,2.0690918-35.7580566c0.2584839-5.0474243,0.1638184-10.4251709-0.6975098-15.118103   c-0.9868164-5.3768921-1.3536377-7.3776855-1.6167603-9.3598633c-0.1341553-1.010437-0.1077881-2.0359497,0.0685425-3.039917   L74.2639771,54.0301514z"></path><path d="M64,32c5.5228271,0,10-4.4771729,10-10c0-0.5698242-0.0587158-1.1248169-0.1502686-1.6685791   c1.279541,2.0220337,3.4310303,4.1716919,6.8328247,4.1716919c4.9735107,0,4.9146118-3.8973389,4.9146118-3.8973389   c-2.1879883-0.1367798-4.0258179-2.3916016-6.5939331-8.0770874c-3.0418701-6.7342529-7.5985107-6.3499756-7.5985107-6.3499756   c-5.1810303,0-6.3572388,4.4589233-6.6000366,5.8619385C64.5385132,12.0194092,64.2716675,12,64,12   c-5.5228271,0-10,4.4771118-10,10C54,27.5228271,58.4771729,32,64,32z M62.2477417,18.3272095   c1.7114868,2.2855225,4.6749268,4.7183228,9.6119995,5.135498C71.1697388,27.1769409,67.9110718,30,64,30   c-4.4111938,0-8-3.5888062-8-8c0-0.2227173,0.0155029-0.4415894,0.0334473-0.65979   C59.2990112,20.977478,61.5683594,18.9956055,62.2477417,18.3272095z"></path><ellipse transform="matrix(0.9538053 -0.3004254 0.3004254 0.9538053 -12.9817553 10.1609793)" cx="26.5498962" cy="47.2936707" rx="7.9999962" ry="8.0000057"></ellipse><ellipse transform="matrix(0.9538053 -0.3004254 0.3004254 0.9538053 -19.3785992 7.6496768)" cx="15.1853943" cy="66.8388367" rx="8.00002" ry="7.9999814"></ellipse><ellipse transform="matrix(0.9538053 -0.3004254 0.3004254 0.9538053 -9.5895367 32.2221489)" cx="99.9830017" cy="47.2936707" rx="8.0000057" ry="7.9999962"></ellipse></g></svg>