<svg height='100px' width='100px'  fill="#000000" xmlns="http://www.w3.org/2000/svg" viewBox="0 0 64 64" x="0px" y="0px"><title>Corporate outline</title><path d="M32,16.09a7,7,0,1,0-7-7A7,7,0,0,0,32,16.09Zm0-12a5,5,0,1,1-5,5A5,5,0,0,1,32,4.08Z"></path><path d="M51.33,24.48V17.59l-5.28-4a2.77,2.77,0,0,0,0-.3A2.08,2.08,0,1,0,44,15.38a2,2,0,0,0,.85-.18l4.48,3.38v5.9H43.91a8.19,8.19,0,0,0-8-6.63H28.11a8.19,8.19,0,0,0-8,6.63H6.92v7.68h6.66V61.92H50.42V32.16h6.66V24.48ZM28.11,19.85h7.78a6.15,6.15,0,0,1,6,4.63H22.15A6.15,6.15,0,0,1,28.11,19.85ZM48.42,59.92H15.58V32.16H48.42Zm6.66-29.76H8.92V26.48H55.08Z"></path><path d="M38.82,39.91H17.71V56.09H46.29V39.91H38.82Zm5.47,14.18H19.71V41.91H44.29Z"></path></svg>