<svg height='100px' width='100px'  fill="#000000" xmlns="http://www.w3.org/2000/svg" xmlns:xlink="http://www.w3.org/1999/xlink" xml:space="preserve" version="1.1" style="shape-rendering:geometricPrecision;text-rendering:geometricPrecision;image-rendering:optimizeQuality;" viewBox="0 0 846.66 846.66" x="0px" y="0px" fill-rule="evenodd" clip-rule="evenodd"><defs><style type="text/css">
   
    .fil0 {fill:#000000}
   
  </style></defs><g><path class="fil0" d="M761.06 273.77l43.44 545.16c-254.11,0 -508.23,0 -762.34,0l43.44 -545.16 148.35 0c27.82,48.84 62.23,96.45 84.85,125.55l34.17 43.97 34.16 -43.97c22.62,-29.1 57.04,-76.71 84.85,-125.55l289.08 0zm-408.09 -246.02c67.03,0 121.38,54.35 121.38,121.38 0,67.04 -121.38,223.64 -121.38,223.64 0,0 -121.39,-156.6 -121.39,-223.64 0,-67.03 54.35,-121.38 121.39,-121.38zm0 50.79c39.71,0 71.9,32.2 71.9,71.91 0,39.71 -32.19,71.9 -71.9,71.9 -39.72,0 -71.91,-32.19 -71.91,-71.9 0,-39.71 32.19,-71.91 71.91,-71.91zm-236.61 275.12c3.29,-33.53 54.27,-28.52 50.98,5 -1.3,13.25 -2.29,26.21 -2.82,39.51 -1.45,33.59 -52.5,31.38 -51.06,-2.19 0.57,-14.04 1.53,-28.34 2.9,-42.32zm0.37 130.8c-4.26,-33.35 46.44,-39.83 50.7,-6.48 3.09,24.13 8.69,48.84 18.5,71.17 13.5,30.82 -33.36,51.35 -46.86,20.54 -11.83,-26.94 -18.61,-56.12 -22.34,-85.23zm106.7 173.92c-30.98,-13.09 -11.08,-60.2 19.9,-47.11 13.56,5.78 27.63,8.2 42.32,8.26 33.58,0.13 33.38,51.18 -0.18,51.05 -21.2,-0.08 -42.49,-3.87 -62.04,-12.2zm161.39 -29.34c-24.32,23.1 -59.5,-13.92 -35.17,-37.03 15.7,-14.9 26.78,-30.06 40.54,-46.26 21.66,-25.61 60.64,7.37 38.98,32.98 -15.09,17.76 -27.04,33.88 -44.35,50.31zm106.46 -92.39c-33.51,-2.23 -30.1,-53.17 3.39,-50.94 24.27,1.56 45.76,12.74 64.79,27.27 26.66,20.32 -4.27,60.92 -30.93,40.6 -10.29,-7.86 -24,-16.08 -37.25,-16.93zm99.71 76.41c-21.4,-25.91 17.99,-58.43 39.38,-32.53 9.48,11.41 15.92,25.23 24.84,36.64 20.67,26.49 -19.6,57.93 -40.28,31.44 -8.67,-11.08 -15.13,-24.92 -23.94,-35.55zm67.64 97.89c-17.27,-28.81 26.53,-55.07 43.8,-26.27 7.83,13.01 17.38,26 24.56,39.14 16.13,29.46 -28.71,54.01 -44.83,24.56 -6.87,-12.57 -16.05,-25.01 -23.53,-37.43z"></path></g></svg>