<svg height='100px' width='100px'  fill="#000000" xmlns="http://www.w3.org/2000/svg" xmlns:xlink="http://www.w3.org/1999/xlink" version="1.1" x="0px" y="0px" viewBox="0 0 100 100" style="enable-background:new 0 0 100 100;" xml:space="preserve"><path d="M74.3,25.6c1.1-1.3,1.8-2.9,1.8-4.8v-8.3c0-4-3.2-7.2-7.2-7.2H31.1c-4,0-7.2,3.2-7.2,7.2v8.3c0,1.8,0.7,3.5,1.8,4.8  c-4.3,2.2-7.3,6.7-7.3,11.9v43.9c0,7.4,6,13.3,13.3,13.3h36.6c7.4,0,13.3-6,13.3-13.3V37.5C81.7,32.3,78.7,27.8,74.3,25.6z   M31.1,24.1c-1.8,0-3.3-1.5-3.3-3.3v-8.3c0-1.8,1.5-3.3,3.3-3.3h37.8c1.8,0,3.3,1.5,3.3,3.3v8.3c0,1.8-1.5,3.3-3.3,3.3h-0.6H31.7  H31.1z M77.7,81.3c0,5.2-4.2,9.4-9.4,9.4H31.7c-5.2,0-9.4-4.2-9.4-9.4V37.5c0-5.2,4.2-9.4,9.4-9.4h36.6c5.2,0,9.4,4.2,9.4,9.4V81.3z  "></path><rect x="30.4" y="10.5" width="2.9" height="12.2"></rect><rect x="39.6" y="10.5" width="2.9" height="12.2"></rect><rect x="49.2" y="10.5" width="2.9" height="12.2"></rect><rect x="58.3" y="10.5" width="2.9" height="12.2"></rect><rect x="66.6" y="10.5" width="2.9" height="12.2"></rect><path d="M40.7,74.9l7.4-16.2c1.7-3.6,0-7.9-3.6-9.6c-3.6-1.7-7.9,0-9.4,3.6l-7.4,16.2c-1.7,3.6,0,7.9,3.6,9.6  C34.8,80.1,39.1,78.4,40.7,74.9z M43.3,51.6c2.2,1,3.3,3.6,2.2,6l-3.6,8L33.8,62l3.6-8C38.6,51.6,41.1,50.6,43.3,51.6z"></path><path d="M71.5,57c2.5-3.1,1.8-7.6-1.2-10.1L56.2,36c-3.1-2.5-7.6-1.8-10.1,1.2c-2.5,3.1-1.8,7.6,1.2,10.1l14.1,10.9  C64.6,60.8,69.1,60.2,71.5,57z M54.5,38.4l7,5.4l-5.4,7l-7-5.4c-1.9-1.6-2.4-4.3-0.8-6.2C49.8,37.1,52.6,36.8,54.5,38.4z"></path><path d="M51.7,63.9c-4.9,3.7-6,10.7-2.2,15.6c3.7,4.9,10.7,6,15.6,2.2c4.9-3.7,6-10.7,2.2-15.6C63.7,61.1,56.7,60.2,51.7,63.9z   M65.1,79.2c0.6,0.7,0.3,1.5-0.2,1.9c-0.6,0.4-1.5,0.3-1.9-0.2L52,66.5c-0.6-0.7-0.3-1.5,0.2-1.9c0.7-0.6,1.5-0.3,1.9,0.2L65.1,79.2  z"></path></svg>