<svg height='100px' width='100px'  fill="#000000" xmlns="http://www.w3.org/2000/svg" xmlns:xlink="http://www.w3.org/1999/xlink" version="1.1" x="0px" y="0px" viewBox="0 0 66 66" enable-background="new 0 0 66 66" xml:space="preserve"><g><g><path d="M45.9,14.1c1.8,0,3.2-1.4,3.2-3.2c0-1.8-1.4-3.2-3.2-3.2s-3.2,1.4-3.2,3.2C42.7,12.7,44.2,14.1,45.9,14.1z"></path></g><g><path d="M45.9,1C35.2,1,26.5,8.4,26.5,17.4c0,4.6,2.3,9.1,6.4,12.2c-1,2.4-3,4.1-5.8,5c-0.7,0.2-0.7,1.2,0,1.4    c3,1.2,9.5,1.2,14.8-2.5c1.4,0.2,2.7,0.4,4.1,0.4c10.7,0,19.5-7.4,19.5-16.5C65.4,8.4,56.6,1,45.9,1z M45.9,6.3    c2.6,0,4.7,2.1,4.7,4.7c0,2.6-2.1,4.7-4.7,4.7c-2.6,0-4.7-2.1-4.7-4.7C41.2,8.4,43.3,6.3,45.9,6.3z M55,26c0,0.4-0.3,0.8-0.8,0.8    H37.6c-0.4,0-0.8-0.3-0.8-0.8v-3.4c0-3.8,3.1-6.9,6.9-6.9c0.3,0,0.6,0.2,0.7,0.4l1.5,2.9l1.5-2.9c0.1-0.3,0.4-0.4,0.7-0.4    c3.8,0,6.9,3.1,6.9,6.9V26z"></path></g><g><path d="M48.5,17.3l-1.9,3.8c-0.3,0.6-1.1,0.5-1.3,0l-1.9-3.8c-2.8,0.2-4.9,2.5-4.9,5.3v2.6h15.1v-2.6    C53.5,19.9,51.3,17.5,48.5,17.3z"></path></g><g><path d="M19.2,22.9l-8.8-8.8c-1.8-1.8-4.5-1.9-6.3-0.5l15.7,15.7C21.1,27.3,21,24.6,19.2,22.9z"></path></g><g><path d="M34,49.2l-17-17l1.8-1.8L3.1,14.7c-3.3,6.1-3.9,14.8,2.1,20.8l24.1,24.1c6.4,6.4,15.9,6.5,22.1,3.4L35.8,47.4L34,49.2z"></path></g><g><path d="M43.2,46.9c-1.7-1.7-4.4-1.9-6.3-0.5L52.5,62c1.4-1.9,1.2-4.6-0.5-6.3L43.2,46.9z"></path></g></g></svg>