<svg height='100px' width='100px'  fill="#000000" xmlns="http://www.w3.org/2000/svg" xmlns:xlink="http://www.w3.org/1999/xlink" version="1.1" x="0px" y="0px" viewBox="0 0 67 67" enable-background="new 0 0 67 67" xml:space="preserve"><g><g><path d="M26.8199997,11.1105957c0,4.25-3.4499989,7.6999989-7.6999989,7.6999989s-7.710001-3.4499989-7.710001-7.6999989    s3.46-7.71,7.710001-7.71S26.8199997,6.8605952,26.8199997,11.1105957z"></path></g><g><path d="M25.0699997,51.620594l-9.0200005,10.9500008c-1.5037994,1.8470001-4.1072989,2.302803-6.1599989,1.1500015    c-2.7585006-1.530201-3.2679005-5.0785027-1.21-7.5400009l4.8800001-5.8300018H9.8800001    c-3.96,0-7.1800003-3.2199974-7.1800003-7.1899986V31.7305946C2.7,25.8805962,7.46,21.1305962,13.3100004,21.1305962    c2.1173992,0,3.8790998,1.4298,4.3900003,3.3199997L14.46,23.9405956    c-2.4878998-0.3684006-4.7249002,1.0051994-5.5900002,3.1900005c-1.2213998,3.0958996,0.7363005,6.4962997,4.0100002,7    l4.9100008,0.7399979l-0.0600014,6.8700027h2.6700001c2.3600006,0,4.4500008,1.329998,5.460001,3.4599991    S26.5599995,49.790596,25.0699997,51.620594z"></path></g><path d="M10.7275,27.8695946L10.7275,27.8695946c-0.7493,1.884901,0.4511003,3.9766006,2.4566002,4.2806015l8.1829996,1.2402992   c1.7198009,0.260601,3.4757996-0.1096992,4.9438-1.0424995l8.8848019-5.6457996   c1.6040001-1.0193005,1.9414978-3.2189007,0.7168999-4.6722012l0,0c-1.0427017-1.2374001-2.8550034-1.4794998-4.1859016-0.5592995   l-8.1145992,5.6109009c-0.2539005,0.1755981-0.5657005,0.2466984-0.8705997,0.1983986l-8.5925007-1.3593998   C12.6931,25.6902962,11.2719002,26.4997959,10.7275,27.8695946z"></path><g><path d="M58.8800011,45.7705956c0.0499992,0.2900009-0.0300026,0.5900002-0.2200012,0.8100014    c-0.1899986,0.2299995-0.4700012,0.3599968-0.7700005,0.3599968H37.7799988c-0.2999992,0-0.579998-0.1399994-0.7700005-0.3699989    c-0.1899986-0.2299995-0.2699966-0.5299988-0.2099991-0.8199997l0.920002-4.7599983    c0.3899994-0.1200027,0.7700005-0.2900009,1.1199989-0.5100021l8.1300011-5.1499977    c0.5099983-0.3199997,0.9399986-0.7300034,1.2899971-1.2300034l3.9800034-5.8399982    c1.0099983-1.4699993,1.0599976-3.4099998,0.1299973-4.9400005c-1.7128983-2.8067989-5.7524986-2.8959999-7.6100006-0.2299995    l-3.4899979,4.9899998l-1.2000008,0.7600002l1.1899986-6.1499996c0.651001-3.2550011,3.4846001-5.6499996,6.8500023-5.6499996    c2.3699989,0,4.5499992,1.1999989,5.8400002,3.1999989C55.2943993,22.282896,54.7420998,22.5567951,58.8800011,45.7705956z"></path></g><path d="M50.5918999,27.1332951l-3.9882011,5.8354015c-0.1847,0.270298-0.422699,0.499897-0.699398,0.6747971l-8.1336021,5.1423035   c-1.5023003,0.9497986-3.4921989,0.1264992-3.8843002-1.6071014l0,0c-0.239399-1.0584984,0.2112007-2.1534996,1.1264-2.7369003   l7.6718025-4.8910007l3.7182999-5.3142986c1.0522003-1.5039005,3.3015976-1.4344997,4.2590981,0.1313l0,0   C51.1850014,25.2230949,51.1576004,26.3055954,50.5918999,27.1332951z"></path><g><path d="M50.8199997,48.9405937v11.4700012c0,2.25-1.8400002,4.0900002-4.0900002,4.0900002    c-2.2599983,0-4.0999985-1.8400002-4.0999985-4.0900002V48.9405937H50.8199997z"></path></g><g><path d="M64.3000031,28.6305962v5.7599983c0,2.7099991-1.8700027,4.9799995-4.3800049,5.6100006    c-3.1728973-18.0755005-2.8778992-17.9636993-3.6399994-19.6599998l1.2600021,0.2199993    C61.4500008,21.2605953,64.3000031,24.6605949,64.3000031,28.6305962z"></path></g><g><path d="M44.0299988,16.1105957c-3.4496002,0-6.2362976-2.5632-6.7199974-5.7400007    c-0.7165031-4.5763993,3.2294998-8.4885998,7.7899971-7.7899995c2.8900032,0.45,5.2100029,2.77,5.6500015,5.6600003    C51.4025993,12.4087954,48.1781998,16.1105957,44.0299988,16.1105957z"></path></g></g></svg>