<svg height='100px' width='100px'  fill="#000000" xmlns="http://www.w3.org/2000/svg" xmlns:xlink="http://www.w3.org/1999/xlink" version="1.1" x="0px" y="0px" viewBox="0 0 100 100" enable-background="new 0 0 100 100" xml:space="preserve"><g display="none"><rect x="-1140.877" y="-877.172" display="inline" fill="#000000" width="1370.931" height="1263.231"></rect></g><g display="none" opacity="0.31"><g display="inline"><path d="M20.173,62.876c5.212,0,9.452-4.24,9.452-9.452c0-5.212-4.24-9.452-9.452-9.452c-5.212,0-9.452,4.24-9.452,9.452    C10.721,58.635,14.961,62.876,20.173,62.876z"></path><path d="M60.824,76.787H34.418l-4.914,13.6H22.63h-7.906v-1.609v0V87.17h12.522l4.914-13.6h1.208    c-1.638-3.355-5.051-5.567-8.905-5.567h-8.579c-5.468,0-9.916,4.443-9.916,9.905V95h46.223L60.824,76.787z"></path><path d="M67.215,5C52.428,5,40.399,16.227,40.399,30.027c0,5.157,1.686,10.122,4.877,14.359c0.312,0.413,0.393,0.957,0.216,1.443    l-4.08,11.217l12.635-4.459c0.419-0.259,0.944-0.31,1.407-0.097c3.722,1.701,7.678,2.563,11.76,2.563    c14.787,0,26.818-11.227,26.818-25.026C94.032,16.227,82.002,5,67.215,5z M52.838,33.688c-2.04,0-3.694-1.654-3.694-3.694    s1.654-3.694,3.694-3.694c2.04,0,3.694,1.654,3.694,3.694S54.878,33.688,52.838,33.688z M67.215,33.688    c-2.04,0-3.694-1.654-3.694-3.694s1.654-3.694,3.694-3.694s3.694,1.654,3.694,3.694S69.255,33.688,67.215,33.688z M81.593,33.688    c-2.04,0-3.694-1.654-3.694-3.694s1.654-3.694,3.694-3.694c2.04,0,3.694,1.654,3.694,3.694S83.633,33.688,81.593,33.688z"></path></g></g><g><path d="M40.098,64.444c0,5.46,4.442,9.902,9.902,9.902s9.902-4.442,9.902-9.902c0-5.46-4.442-9.902-9.902-9.902   S40.098,58.983,40.098,64.444z"></path><path d="M19.629,64.372c-4.303,0-7.804,3.501-7.804,7.804c0,4.303,3.501,7.804,7.804,7.804c4.303,0,7.804-3.501,7.804-7.804   C27.433,67.873,23.932,64.372,19.629,64.372z"></path><path d="M88.175,72.176c0-4.303-3.501-7.804-7.804-7.804c-4.303,0-7.804,3.501-7.804,7.804c0,4.303,3.501,7.804,7.804,7.804   C84.674,79.979,88.175,76.479,88.175,72.176z"></path><path d="M84.938,86.124H69.721c0.524,1.553,0.837,3.203,0.837,4.932V95h24.557C94.427,89.988,90.139,86.124,84.938,86.124z"></path><path d="M29.442,91.056c0-1.714,0.289-3.359,0.808-4.901c-0.248-0.018-0.498-0.031-0.75-0.031H15.062   c-5.201,0-9.489,3.864-10.176,8.876h24.557V91.056z"></path><path d="M66.581,91.056c0-6.365-5.179-11.544-11.544-11.544H44.963c-6.365,0-11.544,5.179-11.544,11.544V95h33.161V91.056z"></path><path d="M50,49.596c12.294,0,22.297-10.003,22.297-22.298C72.297,15.003,62.294,5,50,5S27.703,15.003,27.703,27.297   C27.703,39.593,37.706,49.596,50,49.596z M50,8.21c10.525,0,19.088,8.562,19.088,19.088c0,10.525-8.562,19.089-19.088,19.089   s-19.088-8.563-19.088-19.089C30.912,16.772,39.475,8.21,50,8.21z"></path><path d="M42.278,36.382c1.181,0.681,2.935,1.187,4.797,1.397l0.6,0.061v2.145c0,0.56,0.452,1.012,1.012,1.012h2.435   c0.553,0,1.012-0.452,1.012-1.012v-2.341l0.506-0.135c4.129-1.039,5.593-3.879,5.593-5.991c0-3.913-3.373-5.539-6.679-6.618   c-3.103-1.026-4.095-1.646-4.095-2.564c0-0.823,0.951-1.646,3.083-1.646c2.348,0,3.819,0.668,4.446,0.958   c0.135,0.061,0.277,0.094,0.418,0.094c0.391,0,0.749-0.229,0.917-0.58l0.965-2.044c0.115-0.236,0.128-0.52,0.034-0.769   c-0.088-0.256-0.277-0.459-0.52-0.573c-1.16-0.547-2.422-0.897-3.846-1.066l-0.594-0.074v-2.031c0-0.553-0.452-1.005-1.012-1.005   h-2.395c-0.553,0-1.012,0.452-1.012,1.005v2.26l-0.506,0.128c-3.333,0.843-5.323,2.982-5.323,5.714   c0,3.603,3.569,5.208,7.071,6.308c3.232,1.052,3.67,1.963,3.67,2.719c0,1.167-1.511,2.017-3.589,2.017   c-1.768,0-3.67-0.452-5.087-1.208c-0.148-0.081-0.31-0.121-0.479-0.121c-0.108,0-0.216,0.02-0.324,0.054   c-0.263,0.095-0.479,0.29-0.594,0.547l-0.931,2.071C41.644,35.572,41.82,36.126,42.278,36.382z"></path></g></svg>