<svg height='100px' width='100px'  fill="#000000" xmlns="http://www.w3.org/2000/svg" xmlns:xlink="http://www.w3.org/1999/xlink" version="1.1" x="0px" y="0px" viewBox="0 0 100 100" enable-background="new 0 0 100 100" xml:space="preserve"><circle fill-rule="evenodd" clip-rule="evenodd" cx="64.602" cy="24.538" r="5.483"></circle><path fill-rule="evenodd" clip-rule="evenodd" d="M76.183,41.081l-0.005,13.568c0,1.38-1.061,2.496-2.441,2.496  c-1.375,0-2.306-1.116-2.306-2.496V42.438c0-0.453-0.801-0.453-0.801,0v35.758c0,1.517-1.23,2.749-2.75,2.749h-0.004  c-1.518,0-2.75-1.232-2.75-2.749V57.171c0-0.304-0.291-0.551-0.524-0.551c-0.23,0-0.523,0.247-0.523,0.551v21.025  c0,1.517-1.23,2.749-2.75,2.749h-0.006c-1.517,0-2.748-1.232-2.748-2.749V42.438c0-0.453-0.819-0.453-0.819,0v12.211  c0,1.38-0.957,2.496-2.331,2.496c-1.379,0-2.4-1.116-2.4-2.496l-0.017-13.568c0-6.231,5.55-9.629,11.595-9.629  C70.648,31.452,76.183,34.85,76.183,41.081z"></path><circle fill-rule="evenodd" clip-rule="evenodd" cx="37.568" cy="26.569" r="5.492"></circle><path fill-rule="evenodd" clip-rule="evenodd" d="M45.305,35.734c2.885,5.711,5.638,18.477,5.638,18.477  c0.381,1.044-0.156,2.195-1.201,2.574c-1.044,0.382-2.194-0.158-2.573-1.196l-3.731-12.306l-0.005,4.176l5.745,18.334h-6.262v12.743  c0,1.33-1.073,2.409-2.398,2.409c-1.324,0-2.396-1.079-2.396-2.409V66.463c0-0.371-0.246-0.67-0.552-0.67  c-0.307,0-0.553,0.299-0.553,0.67v12.073c0,1.33-1.073,2.409-2.397,2.409c-1.325,0-2.397-1.079-2.397-2.409V65.793h-6.264  l5.767-18.336l-0.003-4.174L27.97,55.589c-0.38,1.038-1.53,1.578-2.577,1.196c-1.041-0.379-1.579-1.53-1.197-2.574  c0,0,2.749-12.766,5.637-18.477c0.666-1.319,2.684-2.217,4.163-2.217h7.144C42.619,33.518,44.637,34.415,45.305,35.734z"></path><path d="M91.525,35.013c-2.287-0.404-4.465,1.123-4.868,3.412c-0.388,2.212,0.742,5.954,2.89,6.556l-0.098,0.26  c-0.118,0.021-0.199,0.075-0.215,0.16c-0.02,0.111,0.093,0.183,0.283,0.232l-1.814,21.262l0.3,0.055l1.815-21.266  c0.177,0.01,0.291-0.024,0.31-0.128c0.015-0.083-0.044-0.16-0.147-0.221l-0.002-0.278c2.225,0.166,4.568-2.963,4.956-5.171  C95.339,37.595,93.813,35.416,91.525,35.013z"></path><path d="M86.991,46.425c0.172-0.048,0.274-0.115,0.254-0.221c-0.013-0.077-0.089-0.126-0.199-0.146l-0.097-0.253  c0.513-0.146,0.966-0.473,1.35-0.924c-1.704-1.379-2.488-4.517-2.134-6.542c0.123-0.701,0.41-1.332,0.797-1.883  c-0.597-0.19-1.24-0.261-1.899-0.146c-2.176,0.389-3.63,2.465-3.247,4.644c0.368,2.108,2.605,5.087,4.725,4.926l-0.005,0.267  c-0.1,0.058-0.156,0.131-0.145,0.21c0.019,0.095,0.14,0.116,0.297,0.109l1.637,20.679l0.308,0.004L86.991,46.425z"></path><circle fill-rule="evenodd" clip-rule="evenodd" cx="81.928" cy="51.869" r="2.937"></circle><path fill-rule="evenodd" clip-rule="evenodd" d="M77.791,56.77c-1.543,3.052-3.017,9.88-3.017,9.88  c-0.202,0.558,0.085,1.174,0.644,1.378c0.558,0.201,1.174-0.087,1.377-0.643l1.994-6.579l0.004,2.234l-3.072,9.805h3.347v6.811  c0,0.714,0.575,1.29,1.282,1.29c0.709,0,1.283-0.576,1.283-1.29v-6.454c0-0.199,0.132-0.356,0.294-0.356  c0.164,0,0.298,0.157,0.298,0.356v6.454c0,0.714,0.573,1.29,1.279,1.29c0.71,0,1.284-0.576,1.284-1.29v-6.811h3.348l-3.084-9.805  l0.003-2.234l2.008,6.579c0.201,0.556,0.817,0.844,1.376,0.643c0.559-0.204,0.845-0.82,0.641-1.378c0,0-1.469-6.828-3.015-9.88  c-0.356-0.708-1.435-1.183-2.228-1.183h-3.82C79.229,55.587,78.146,56.062,77.791,56.77z"></path><path d="M10.254,45.3c-0.007-0.088-0.085-0.15-0.206-0.185l-0.071-0.278c2.266-0.386,3.828-4.095,3.664-6.4  c-0.167-2.387-2.232-4.185-4.618-4.015c-2.385,0.164-4.183,2.232-4.012,4.619c0.161,2.307,2.224,5.763,4.517,5.827l-0.034,0.286  c-0.111,0.052-0.178,0.125-0.172,0.212c0.007,0.113,0.131,0.157,0.326,0.161l1.759,21.955l0.311-0.045L9.96,45.505  C10.147,45.474,10.26,45.411,10.254,45.3z"></path><circle fill-rule="evenodd" clip-rule="evenodd" cx="17.192" cy="50.953" r="2.916"></circle><path fill-rule="evenodd" clip-rule="evenodd" d="M23.351,59.75l-0.003,7.214c0,0.733-0.563,1.327-1.298,1.327  c-0.73,0-1.226-0.594-1.226-1.327v-6.492c0-0.242-0.425-0.242-0.425,0v19.011c0,0.808-0.655,1.463-1.463,1.463h-0.002  c-0.809,0-1.461-0.655-1.461-1.463V68.306c0-0.162-0.156-0.293-0.281-0.293c-0.123,0-0.278,0.131-0.278,0.293v11.177  c0,0.808-0.656,1.463-1.461,1.463h-0.005c-0.805,0-1.46-0.655-1.46-1.463V60.472c0-0.242-0.437-0.242-0.437,0v6.492  c0,0.733-0.51,1.327-1.239,1.327c-0.731,0-1.275-0.594-1.275-1.327l-0.009-7.214c0-3.315,2.951-5.119,6.164-5.119  C20.407,54.631,23.351,56.435,23.351,59.75z"></path></svg>