<svg height='100px' width='100px'  fill="#000000" xmlns="http://www.w3.org/2000/svg" xmlns:xlink="http://www.w3.org/1999/xlink" version="1.1" x="0px" y="0px" viewBox="-55 147 500 500" style="enable-background:new -55 147 500 500;" xml:space="preserve"><g><path d="M34.5,346.2c-1.7,6-1.4,12.5-1.1,18.8c0.1,1.2,0.1,2.5,0.2,3.7c0.2,6.4,0,13.5-2.7,19.8c11-4.1,15.1-16.6,18.7-27.7   c3.1-9.5,5.7-17.6,12.1-19.8c3.2-1.1,7-0.5,11.5,1.8c-6.3,6.4-10.2,15.2-10.3,25c-0.1,19.8,16,36,35.8,36   c19.9,0.1,36-15.9,36.1-35.8c0.1-19.8-16-36-35.8-36c-6.4,0-12.4,1.6-17.6,4.5c-3.6-5.7-10.4-10.2-17-10.8   C51.5,324.4,38,333.7,34.5,346.2z"></path><path d="M445,227.4c-0.1-32.6-22.1-53-49-52.9c-27,0.1-48.8,20.6-48.7,53.2c0.1,41.9,35.1,61.1,45.9,66.1   c4.5,29.2-14.3,61.7-12,90.7l-30.5,14.9c-18.5,9.1-38.9,13.8-59.6,13.8l0,0c-20.6,0-41-4.7-59.6-13.8l-27.9-13.6   c-9.3-4.1-15.6-1.4-18.5,0.6l-26.6,13c-18.5,9.1-38.9,13.8-59.6,13.8c-20.6,0-41-4.7-59.6-13.8L8.8,384.5   c2.3-29.1-16.5-61.5-12-90.7c10.8-4.9,45.8-24.1,45.9-66.1C42.8,195.1,21,174.6-6,174.5s-48.9,20.3-49,52.9   c-0.1,42.4,34.4,61.4,45.3,66.4c-2.7,19,3.2,37.6,7.9,56.1c2.6,10.3,4.7,21.6,4,32.4c-3.9-0.3-7.8,1.1-10.2,4.3   c-4.1,5.2-3,12.5,2,16.4l1.7,1.3c-1.2,2-2.7,3.9-4.4,5.8c-2.8,3.1,1.8,7.6,4.5,4.5c1.9-2.1,3.5-4.2,5-6.3L36.6,436   c16.8,13,24.2,34.8,18.8,55.3l-14.3,54.9h19.3v57c0,9,7.4,16.3,16.4,16.3s16.4-7.4,16.4-16.3v-57h11.3v57c0,9,7.4,16.3,16.4,16.3   s16.4-7.4,16.4-16.3v-57h19.3l-14.3-54.9c-5.3-20.5,2.1-42.3,18.8-55.3l33.7-26.2l33.7,26.2c24.2,18.2,23.9,67,23.9,67v99.5   c0,8.3,5.9,15.7,14.2,16.8c10,1.3,18.6-6.5,18.6-16.2v-85.2c0-3.1,2.5-5.6,5.7-5.6c3.1,0,5.7,2.5,5.7,5.6v85.2   c0,9.7,8.6,17.5,18.6,16.2c8.2-1.1,14.2-8.5,14.2-16.8V503c0,0-0.2-48.9,23.9-67l35.8-27.8c1.4,2.1,3.1,4.3,5,6.3   c2.8,3.1,7.3-1.5,4.5-4.5c-1.7-1.8-3.1-3.8-4.4-5.8l1.7-1.3c5-3.9,6.1-11.2,2-16.4c-2.5-3.2-6.4-4.6-10.2-4.3   c-0.6-10.8,1.5-22.1,4.1-32.4c4.7-18.5,10.6-37.1,7.9-56.1C410.6,288.8,445.1,269.8,445,227.4z"></path><path d="M255.1,368c0.1,19.8,16.2,35.8,36.1,35.8c19.9-0.1,35.9-16.2,35.8-36c0-0.1,0-0.1,0-0.2h-71.9   C255.1,367.7,255.1,367.8,255.1,368z"></path><path d="M229.1,361.9h97.5c-2.9-17-17.7-30-35.6-29.9c-14.7,0.1-27.2,8.9-32.8,21.4h-29.1c-2.3,0-4.3,1.9-4.3,4.2   C224.8,360,226.7,361.9,229.1,361.9z"></path></g></svg>