<svg height='100px' width='100px'  fill="#000000" xmlns="http://www.w3.org/2000/svg" xmlns:xlink="http://www.w3.org/1999/xlink" version="1.1" x="0px" y="0px" viewBox="0 0 100 100" enable-background="new 0 0 100 100" xml:space="preserve"><path d="M60.01,22.264c-0.527-1.055-1.274-2.007-2.215-2.786l0.782-3.326c-0.188-0.119-0.37-0.244-0.568-0.354  s-0.4-0.198-0.601-0.295L55,17.927c-1.159-0.386-2.363-0.516-3.536-0.405l-1.798-2.901c-0.437,0.099-0.867,0.222-1.29,0.369  l0.009,3.413c-1.055,0.527-2.007,1.274-2.786,2.215l-3.326-0.782c-0.119,0.188-0.244,0.37-0.354,0.568  c-0.109,0.197-0.198,0.4-0.295,0.6l2.423,2.408c-0.386,1.16-0.516,2.363-0.405,3.536l-2.901,1.798  c0.099,0.437,0.222,0.867,0.369,1.29l3.413-0.009c0.527,1.055,1.274,2.007,2.215,2.786l-0.781,3.326  c0.188,0.119,0.37,0.244,0.568,0.354c0.197,0.109,0.4,0.198,0.601,0.294l2.408-2.423c1.159,0.386,2.362,0.516,3.536,0.405  l1.798,2.901c0.437-0.099,0.867-0.222,1.29-0.369l-0.009-3.413c1.055-0.527,2.007-1.274,2.786-2.215l3.325,0.782  c0.119-0.188,0.244-0.37,0.354-0.568s0.198-0.4,0.294-0.6l-2.423-2.408c0.386-1.16,0.516-2.363,0.405-3.536l2.901-1.798  c-0.099-0.437-0.222-0.867-0.369-1.289L60.01,22.264z M56.583,28.284c-0.623,1.124-1.647,1.938-2.884,2.292  c-0.438,0.125-0.887,0.188-1.331,0.188c-0.807,0-1.604-0.205-2.328-0.607c-2.32-1.288-3.16-4.223-1.872-6.543  c1.287-2.319,4.22-3.16,6.543-1.873C57.03,23.028,57.871,25.963,56.583,28.284z"></path><path d="M38.641,39.829c-0.054-0.283-0.141-0.55-0.25-0.804l1.438-2.429c-0.121-0.153-0.249-0.299-0.382-0.439l-2.623,1.076  c-0.47-0.287-0.998-0.469-1.557-0.538l-1.391-2.473c-0.096,0.014-0.191,0.022-0.288,0.04c-0.096,0.018-0.188,0.046-0.282,0.069  l-0.379,2.811c-0.494,0.27-0.918,0.635-1.25,1.075l-2.836-0.032c-0.072,0.18-0.137,0.362-0.193,0.549l2.233,1.727  c-0.007,0.276,0.01,0.557,0.064,0.84c0.054,0.283,0.141,0.55,0.25,0.804l-1.439,2.429c0.121,0.153,0.249,0.298,0.382,0.439  l2.623-1.076c0.47,0.287,0.999,0.469,1.558,0.538l1.389,2.473c0.096-0.014,0.191-0.022,0.287-0.04  c0.096-0.018,0.188-0.047,0.282-0.069l0.38-2.812c0.494-0.27,0.918-0.635,1.249-1.075l2.835,0.032  c0.072-0.18,0.137-0.362,0.193-0.549l-2.233-1.727C38.713,40.392,38.695,40.112,38.641,39.829z M35.06,41.956  c-0.769,0.147-1.511-0.357-1.658-1.126c-0.147-0.769,0.357-1.511,1.126-1.658c0.769-0.147,1.511,0.357,1.658,1.125  C36.333,41.067,35.829,41.809,35.06,41.956z"></path><path d="M83.146,43.782c-0.656-0.937-1.276-1.822-1.645-2.449c-1.399-2.387-1.513-2.687-0.964-5.432  c0.504-2.523-0.19-4.882-0.926-7.379c-0.222-0.751-0.448-1.521-0.648-2.32l-0.099-0.409C74.829,8.904,59.82,5.164,47.94,5  C21.592,4.606,14.846,26.885,14.576,34.709c-0.25,7.24,3.617,16.408,6.309,20.324c2.566,3.732,4.521,11.326,4.756,18.468  c0.212,6.442-7.099,18.83-8.238,20.717C17.042,94.854,17.313,96,18.396,96H61c1.229,0,1.431-1.108,1.437-1.471  c0.039-2.586,0.511-4.305,0.928-5.822c0.415-1.512,0.773-2.817,0.501-4.387c-0.56-3.214,0.229-6.225,2.011-7.671  c0.829-0.675,3.958-1.075,6.472-1.397c2.637-0.338,4.914-0.63,6.111-1.26c2.838-1.495,2.414-6.108,2.046-7.216  c-0.031-0.095-0.068-0.193-0.107-0.296c-0.236-0.627-0.367-0.973,0.347-1.686c1.439-1.439,1.339-2.726,0.789-3.848  c0.449-0.362,0.791-0.815,0.998-1.334c0.231-0.58,0.395-1.517-0.143-2.68c-0.216-0.468-0.263-0.85-0.138-1.138  c0.188-0.437,0.772-0.71,1.229-0.862c1.711-0.57,3.521-1.422,3.351-4.327C86.738,49.021,85.245,46.778,83.146,43.782z   M41.957,44.958l-3.173-0.036c-0.087,0.08-0.172,0.161-0.264,0.236l-0.425,3.145c-0.543,0.232-1.117,0.413-1.721,0.529  s-1.204,0.159-1.795,0.144l-1.555-2.767c-0.112-0.035-0.221-0.079-0.331-0.121l-2.936,1.204c-0.958-0.716-1.769-1.631-2.354-2.705  l1.622-2.738c-0.013-0.058-0.031-0.114-0.042-0.173c-0.011-0.059-0.015-0.117-0.025-0.176l-2.517-1.947  c0.148-1.214,0.564-2.363,1.19-3.382l3.173,0.036c0.087-0.08,0.172-0.161,0.263-0.236l0.425-3.145  c0.544-0.232,1.118-0.413,1.721-0.529c0.604-0.115,1.204-0.159,1.795-0.144l1.555,2.767c0.113,0.036,0.222,0.08,0.333,0.122  l2.935-1.204c0.958,0.716,1.769,1.63,2.354,2.705l-1.622,2.738c0.013,0.058,0.031,0.114,0.042,0.173  c0.011,0.059,0.015,0.117,0.025,0.176l2.517,1.947C43,42.791,42.583,43.939,41.957,44.958z M62.92,26.437  c-0.016,0.614-0.079,1.229-0.203,1.84l2.554,2.539c-0.239,0.664-0.519,1.32-0.868,1.958c-0.015,0.028-0.026,0.057-0.041,0.084  s-0.034,0.052-0.05,0.08c-0.357,0.633-0.765,1.218-1.202,1.772l-3.506-0.824c-0.452,0.428-0.941,0.808-1.454,1.146l0.01,3.608  c-0.648,0.304-1.313,0.567-1.998,0.768c-0.062,0.018-0.124,0.036-0.186,0.053c-0.688,0.192-1.391,0.321-2.101,0.405l-1.901-3.067  c-0.614-0.016-1.229-0.079-1.84-0.203l-2.539,2.554c-0.664-0.239-1.32-0.519-1.957-0.867c-0.028-0.015-0.057-0.026-0.084-0.041  c-0.028-0.015-0.052-0.034-0.08-0.05c-0.633-0.357-1.218-0.765-1.772-1.202l0.824-3.506c-0.429-0.453-0.808-0.941-1.147-1.454  l-3.608,0.01c-0.304-0.648-0.567-1.313-0.768-1.998c-0.018-0.062-0.036-0.124-0.053-0.186c-0.192-0.688-0.321-1.391-0.406-2.102  l3.067-1.901c0.016-0.614,0.079-1.229,0.203-1.84l-2.554-2.539c0.239-0.664,0.519-1.32,0.867-1.958  c0.015-0.028,0.026-0.057,0.042-0.084s0.034-0.052,0.05-0.08c0.357-0.633,0.765-1.218,1.202-1.772l3.506,0.824  c0.453-0.428,0.941-0.808,1.454-1.146l-0.01-3.608c0.648-0.304,1.313-0.567,1.998-0.768c0.062-0.018,0.124-0.036,0.186-0.053  c0.688-0.192,1.391-0.321,2.102-0.405l1.901,3.067c0.614,0.016,1.229,0.079,1.84,0.203l2.539-2.554  c0.664,0.239,1.32,0.519,1.957,0.867c0.028,0.015,0.057,0.026,0.084,0.041s0.052,0.034,0.08,0.05  c0.633,0.357,1.218,0.765,1.772,1.202l-0.824,3.506c0.428,0.452,0.808,0.941,1.146,1.454l3.608-0.01  c0.304,0.647,0.567,1.313,0.768,1.998c0.018,0.062,0.036,0.124,0.053,0.186c0.192,0.688,0.321,1.391,0.406,2.102L62.92,26.437z"></path><path d="M53.74,23.49c-0.431-0.239-0.898-0.353-1.359-0.353c-0.99,0-1.951,0.522-2.465,1.447c-0.364,0.657-0.451,1.416-0.244,2.138  c0.206,0.722,0.682,1.321,1.339,1.685c0.656,0.366,1.417,0.451,2.139,0.245c0.722-0.207,1.32-0.683,1.686-1.339  C55.587,25.958,55.096,24.242,53.74,23.49z"></path></svg>