<svg height='100px' width='100px'  fill="#000000" xmlns="http://www.w3.org/2000/svg" xmlns:xlink="http://www.w3.org/1999/xlink" version="1.1" x="0px" y="0px" viewBox="0 0 512 512" style="enable-background:new 0 0 512 512;" xml:space="preserve"><g><path d="M494.9381714,315.7192688l-32.8100586-36.380127l-36.369873,32.8100586   c-4.1000977,3.7001953-4.4299316,10.0200195-0.7299805,14.1201172c3.6999512,4.1098633,10.0200195,4.4299316,14.1298828,0.7299805   l11.7200928-10.5700684c-13.3699951,92.6999512-98.0999756,159.170166-192,149.1901855   c-5.4899902-0.6000977-10.4100342,3.3898926-11,8.8798828c-0.5799561,5.5,3.4000244,10.4199219,8.8900146,11   c6.9799805,0.75,13.9199219,1.1098633,20.8000488,1.1098633c96.2399902,0,179.5100098-71.1899414,193.1799316-167.8498535   l9.3400879,10.3498535c1.9699707,2.1901855,4.6999512,3.3100586,7.4299316,3.3100586   c2.3898926,0,4.7800293-0.8498535,6.6899414-2.5800781C498.3082886,326.1394348,498.6383667,319.8193665,494.9381714,315.7192688z"></path><path d="M268.4882202,256.4992981v10h210v-10c0-48.489975-33.0400391-89.410141-77.7900391-101.4199066   c20.0100098-10.0100098,33.7900391-30.7202148,33.7900391-54.5800781c0-33.6401367-27.3699951-61.0000038-61-61.0000038   c-33.6400146,0-61,27.3598671-61,61.0000038c0,23.8598633,13.7700195,44.5600586,33.7800293,54.5800781   C301.5182495,167.099411,268.4882202,208.0093231,268.4882202,256.4992981z"></path><path d="M289.5783081,63.0493584l-32.0100098-37.0800781c-3.6101074-4.1799316-9.9200439-4.6499023-14.1000977-1.0400391   c-4.1799316,3.6101074-4.6499023,9.9299297-1.0400391,14.1101055l8.6000977,9.9599609   c-105.5-7.8000488-198.6700439,70.4399414-208.7399902,176.2399902c-0.5200195,5.5,3.5100098,10.380127,9.0100098,10.9099121   c0.3199463,0.0300293,0.6398926,0.0400391,0.9599609,0.0400391c5.0999756,0,9.4499512-3.8798828,9.9499512-9.0498047   c9.1001015-95.7602539,94.0500488-166.3701172,189.7099609-158l-12.4899902,10.7797852   c-4.1799316,3.6101074-4.6398926,9.9199219-1.0299072,14.1000977c1.9799805,2.2900391,4.7698975,3.4699707,7.5699463,3.4699707   c2.3200684,0,4.6500244-0.8000488,6.5300293-2.4299316L289.5783081,63.0493584z"></path><path d="M146.6981812,378.0793762c20.0100098-10.0100098,33.7900391-30.7202148,33.7900391-54.5800781   c0-33.6401367-27.3699951-61-61-61c-33.6400146,0-61.0000038,27.3598633-61.0000038,61   c0,23.8598633,13.7700233,44.5600586,33.7800331,54.5800781c-44.7500038,12.0200195-77.7800293,52.9299316-77.7800293,101.4199219   v10h210v-10C224.4882202,431.0093079,191.4481812,390.0891418,146.6981812,378.0793762z"></path></g></svg>