<svg height='100px' width='100px'  fill="#000000" xmlns="http://www.w3.org/2000/svg" xmlns:xlink="http://www.w3.org/1999/xlink" version="1.1" x="0px" y="0px" viewBox="0 0 90 90" enable-background="new 0 0 90 90" xml:space="preserve"><path fill="#000000" d="M72.991,21.081c-8.857,0-16.038,7.181-16.038,16.038c0,8.858,7.181,16.039,16.038,16.039  s16.037-7.181,16.037-16.039C89.028,28.262,81.849,21.081,72.991,21.081z M59.799,31.997c0.576-1.483,1.391-2.847,2.402-4.04h4.256  c-0.178,0.748-0.236,1.533-0.14,2.34c0.07,0.601,0.227,1.168,0.44,1.7H59.799z M73.601,34.622c-2.826,0.336-5.391-1.683-5.728-4.511  c-0.334-2.826,1.685-5.389,4.511-5.726c2.825-0.336,5.388,1.684,5.725,4.511C78.445,31.722,76.428,34.284,73.601,34.622z   M79.234,31.997c0.402-1.008,0.568-2.131,0.432-3.287c-0.03-0.255-0.076-0.505-0.136-0.753h4.251  c1.013,1.193,1.827,2.557,2.401,4.04H79.234z"></path><circle fill="#000000" cx="72.99" cy="29.504" r="1.903"></circle><path fill="#000000" d="M65.654,63.642l5.313,4.032l-2.358-12.069h-3.888l2.612,5.842c0.146,0.327,0.059,0.709-0.212,0.943  L65.654,63.642z"></path><polygon fill="#000000" points="70.252,55.604 72.164,65.389 74.075,55.604 "></polygon><path fill="#000000" d="M79.602,55.604h-3.885L73.36,67.674l5.312-4.032l-1.469-1.252c-0.271-0.234-0.358-0.616-0.212-0.943  L79.602,55.604z"></path><path fill="#000000" d="M71.356,69.994l-7.473-5.671c-0.194-0.147-0.313-0.375-0.32-0.616c-0.007-0.247,0.097-0.479,0.281-0.639  l1.771-1.515l-2.659-5.949h-0.012c-2.924,0-5.292,2.371-5.291,5.292v15.897c0,2.924,2.368,5.291,5.292,5.291h4.875h3.535V69.994z"></path><path fill="#000000" d="M83.035,55.604h-0.334h-1.335l-2.658,5.949l1.771,1.515c0.187,0.159,0.29,0.392,0.283,0.639  c-0.008,0.241-0.125,0.469-0.319,0.616l-7.476,5.671v12.091h5.192h4.874c2.923,0,5.291-2.367,5.291-5.291V60.896  C88.325,57.976,85.958,55.604,83.035,55.604z M85.043,75.627h-2.394v2.397h-3.253v-2.397h-2.397v-3.252h2.397v-2.397h3.253v2.397  h2.394V75.627z"></path><path fill="#000000" d="M53.54,43.048c-0.146-0.202-1.662-2.272-4.142-4.638l3.25-3.252c0.586-0.587,0.586-1.542,0-2.13  c-0.589-0.587-1.543-0.587-2.129,0l-3.389,3.389c-1.185-0.955-2.5-1.889-3.928-2.703l2.185-3.607  c0.429-0.713,0.201-1.639-0.512-2.07c-0.711-0.433-1.639-0.202-2.069,0.509l-2.323,3.841c-1.348-0.551-2.765-0.961-4.24-1.178  v-4.347c0-0.833-0.671-1.506-1.504-1.506c-0.832,0-1.508,0.673-1.508,1.506v4.2c-2.014,0.1-3.939,0.591-5.737,1.327l-2.321-3.843  c-0.431-0.712-1.357-0.943-2.069-0.51c-0.711,0.432-0.942,1.357-0.508,2.069l2.18,3.608c-1.428,0.815-2.743,1.749-3.926,2.704  l-3.388-3.39c-0.587-0.587-1.544-0.587-2.13,0c-0.59,0.588-0.59,1.543,0,2.13l3.251,3.253c-2.482,2.364-3.999,4.435-4.145,4.637  c-0.336,0.463-0.336,1.089,0,1.551c0.354,0.49,8.794,12.013,19.553,12.013c10.758,0,19.194-11.522,19.549-12.013  C53.875,44.137,53.875,43.511,53.54,43.048z M33.991,52.8c-4.953,0-8.978-4.028-8.978-8.976c0-4.952,4.024-8.979,8.978-8.979  c4.949,0,8.976,4.026,8.976,8.979C42.967,48.771,38.94,52.8,33.991,52.8z M17.193,43.824c1.266-1.558,4.411-5.115,8.52-7.573  c-1.831,2.001-2.96,4.651-2.96,7.573c0,2.917,1.129,5.569,2.962,7.569C21.605,48.937,18.459,45.379,17.193,43.824z M42.255,51.409  c1.838-2.002,2.972-4.661,2.972-7.585c0-2.922-1.128-5.572-2.955-7.573c4.104,2.459,7.252,6.018,8.515,7.573  C49.523,45.382,46.372,48.951,42.255,51.409z"></path><path fill="#000000" d="M33.991,38.632c-0.366,0-0.724,0.037-1.066,0.108c0.753,0.495,1.255,1.345,1.255,2.314  c0,1.529-1.239,2.769-2.769,2.769c-1.04,0-1.937-0.582-2.408-1.429c-0.13,0.452-0.203,0.932-0.203,1.43  c0,2.866,2.325,5.19,5.191,5.19c2.867,0,5.19-2.324,5.19-5.19C39.182,40.955,36.858,38.632,33.991,38.632z"></path><path fill="#000000" d="M53.625,64.799c-5.138,4.203-11.695,6.728-18.833,6.728c-16.428,0-29.79-13.363-29.79-29.789  s13.362-29.792,29.79-29.792c9.545,0,18.05,4.519,23.506,11.521c0.916-0.984,1.932-1.877,3.027-2.661  C55.127,12.962,45.541,7.915,34.792,7.915c-18.649,0-33.82,15.173-33.82,33.822c0,18.647,15.171,33.821,33.82,33.821  c6.966,0,13.446-2.12,18.833-5.746V64.799z"></path></svg>