<svg xmlns="http://www.w3.org/2000/svg" xmlns:xlink="http://www.w3.org/1999/xlink" version="1.1" x="0px" y="0px" viewBox="0 0 100 125" enable-background="new 0 0 100 100" xml:space="preserve"><path d="M88.407,0.67h-47.64c-1.703,0-4.237,1.129-4.237,4.237v8.506h-0.698c-3.118,0-4.716,2.352-4.809,4.772  c-0.029,0.228-0.048,0.46-0.048,0.705l-0.03,20.819h-2.069v-14c-2.862,1.612-7.684,5.177-7.684,12.202l-0.001,7.198h-2.068v-8.422  c-2.734,1.442-8.244,4.995-8.244,12.51V100h30.463V86.561c0,0,12.811-12.413,12.811-19.793V37.463h34.254  c1.701,0,4.236-1.128,4.236-4.236V4.907C92.644,3.204,91.515,0.67,88.407,0.67z M43.649,51.752c0,1.127-2.307,1.127-2.307,0V37.463  h2.296L43.649,51.752z M90.052,33.227c0,1.397-1.034,1.631-1.653,1.645H54.143V31.15c0-7.468-10.504-7.816-10.504,0v3.722h-2.871  c-1.4,0-1.632-1.039-1.646-1.645V4.907c0-1.401,1.039-1.632,1.646-1.646h47.64c1.398,0,1.632,1.039,1.645,1.646V33.227z"/><path d="M73.104,8.162c3.278,0,5.942,2.661,5.942,5.942c0,3.28-2.664,5.933-5.942,5.933c-3.274,0-5.934-2.653-5.934-5.933  C67.17,10.822,69.829,8.162,73.104,8.162z"/><path d="M86.061,30.121v-2.339c0-3.842-2.753-6.019-6.516-6.019H66.664c-3.765,0-6.514,2.177-6.514,6.019v2.339H86.061z"/><polygon points="57.345,10.807 43.627,10.807 43.627,8.216 57.345,8.216 57.345,10.807 "/><polygon points="57.345,16.291 43.627,16.291 43.627,13.7 57.345,13.7 57.345,16.291 "/><polygon points="57.345,21.775 43.627,21.775 43.627,19.185 57.345,19.185 57.345,21.775 "/><text x="0" y="115" fill="#000000" font-size="5px" font-weight="bold" font-family="'Helvetica Neue', Helvetica, Arial-Unicode, Arial, Sans-serif">Created by Luis Prado</text><text x="0" y="120" fill="#000000" font-size="5px" font-weight="bold" font-family="'Helvetica Neue', Helvetica, Arial-Unicode, Arial, Sans-serif">from the Noun Project</text></svg>