<svg xmlns="http://www.w3.org/2000/svg" xmlns:xlink="http://www.w3.org/1999/xlink" version="1.1" x="0px" y="0px" viewBox="0 0 64 80" style="enable-background:new 0 0 64 64;" xml:space="preserve"><g><g><path d="M15.6,56.2c0.2,0.1,0.3,0.4,0.2,0.6c-0.1,0.2-0.3,0.3-0.7,0c-1.9-1.3-3.2-3.9-2.8-6.2c0-0.2,0.2-0.5,0.2-0.6l-0.1-0.4    c0,0-1.1-0.1-0.5-1.1c0,0,0.3-0.5,0.6-0.7c0.1-0.1,0.3,0,0.3,0.2C12.9,49.2,12.8,54.1,15.6,56.2z"/><path d="M52.1,39.7c0,0.1-0.1,0.2-0.1,0.3c-0.3,0.5-1.2,1.7-4.9,3.4c0,0-0.1,0-0.1,0c-0.1,0-0.2,0.1-0.3,0.1    c-0.1,0-0.2-0.3-0.4-0.4l-2.6-4.8c0,0,0,0,0,0s0,0,0,0l0,0c0-0.1,0-0.2,0.2-0.4c0,0,0.1-0.1,0.1-0.1c0.2-0.1,0.3-0.4,0.2-0.7    c-0.3-0.7-1.2-2.2-4-4.8c-0.6-0.5-1.5-0.2-1.7,0.5l-1.3,5.8c-0.1,0.4-0.3,0.6-0.7,0.7c-2.3,0.7-4.9,1.2-7.8,1.1    c-1.9-0.1-4.1,0.8-5,1.3c-0.8,0.3-2.4,1.1-2.4,2.7c0,0.3,0,0.9,0.4,1.4c0.3,0.4,0.3,1-0.1,1.3c-1.6,1.5-1.9,2-2.1,2.5    c-0.3,0.5-0.7,1.6-0.3,2.8c0.3,0.9,1,1.7,2,2.1c0.4,0.2,1.3,0.3,2.2,0.3c0.3,0,0.6,0,0.9,0c0.6-0.1,1.1-0.7,0.9-1.3c0,0,0,0,0,0    c-0.1-0.5-0.6-0.8-1.1-0.7c-0.8,0.1-1.7,0-2.1-0.1c-1.5-0.7-0.5-2.2-0.5-2.2c0.1-0.5,4.1-4,5-4.8c0.3-0.2,0.8-0.6,0.8-1    c-0.1-0.5-0.5-0.1-0.8,0c-1.3,0.4-2.1,0.5-2.7,0.3c-1.1-0.5,0.3-1.1,0.8-1.3c0.6-0.3,2.6-1.1,4-1c4.9,0.3,9.4-1.3,12.1-2.6    c0.2-0.1,0.4-0.2,0.6-0.3c0.5-0.2,1.1-0.1,1.3,0.4l1.4,2.6c0.3,0.6,0,1.3-0.6,1.5c-0.2,0.1-0.3,0.1-0.5,0.2    c-1.6,0.5-3.9,1.2-7.1,1.9c-0.4,0.1-0.7,0.4-0.8,0.9c-0.1,0.5-0.1,1,0,1.5c0,0,0,0,0,0c0.1,1,0.3,1.8,0.8,2.6    c2.2,3.3,2.4,7.9,2.4,7.9v3.2c0,0.6-0.5,1-1,1H18.8c-0.6,0-1-0.5-1-1v-1.8c0-0.2,0-0.5,0-0.7c0-0.4-0.2-0.5-0.4-0.8    c-0.4-0.4-0.8-0.9-1.2-1.4c0.2-0.1,0.4-0.3,0.5-0.5c0.1-0.2,0.1-0.3,0.1-0.5c0-0.4-0.2-0.8-0.5-1.1c-2.5-1.9-2.4-6.6-2.4-7.6    c0-0.4-0.2-0.7-0.5-0.9c0,0-0.1,0-0.1-0.1c0.4-1.7,1.2-3.3,2.3-4.6c0.6-0.8,1.4-1.5,2.2-2.1c0.4-0.3,0.6-0.4,0.6-0.9    c0-0.4-0.1-0.8-0.3-1.1c-0.2-0.4-0.7-0.7-1-1c-1.1-1.4-0.9-3.1,0.2-4.4c0.5-0.5,0.9-1.1,1.4-1.6c0.4-0.4,0.9-0.9,1.3-1.2    c0.6-0.5,1-0.6,1.2-1.5c0.1-0.7,0.3-1.4,0.4-2.1c0.1-0.4,0.2-1.1,0.5-1.9c0-0.1,0.1-0.2,0.1-0.3c0.3-0.6,0.7-1.2,1.2-1.4    c0,0,1-0.3,1.7-1.4c0.1-0.1,0.2-0.3,0.3-0.4c0,0-0.3-1.4-1.2-0.6c0,0-1.6,2.3-2.3,1.4c0,0-0.4-1.5-1.4-1.1c0,0-0.9-0.4-0.7-0.7    c-0.1,0.2-0.6-0.1-0.7-0.2c-0.1-0.1-0.1-0.3-0.1-0.4c0-0.1-0.1-0.1-0.1-0.1c-0.4,0-0.7,0.4-1.1,0.6c-0.4,0.1-0.9-0.3-0.7-0.7    c0,0,0.5-1.2-1.5-2.4c-0.6-0.4-1.1-1-1.5-1.6c-2.4-3.4-0.2-7-0.2-7C14.2,7,15,5.8,16,4.9c1.2-1.2,2.8-2,4.4-2.5    c0,0,2.4-3.6,5.2,0.3c0,0,5,4.3,4.1,8.1c-0.3,1.4-1.4,3.1-0.4,4.3c0.6,0.7,1.3,1.4,2.1,1.9c0.2,0.1,1.5,0.6,2.5,0.8    c1.4-0.4,2.9,0.1,3.5,0.3c2.2,0.6,3.7,2.7,5.1,4.4c2.7,3.2,5.2,6.7,7.5,10.2C51.2,34.6,52.5,37.2,52.1,39.7z"/></g></g><text x="0" y="79" fill="#000000" font-size="5px" font-weight="bold" font-family="'Helvetica Neue', Helvetica, Arial-Unicode, Arial, Sans-serif">Created by Mohammed Rabiul Alam</text><text x="0" y="84" fill="#000000" font-size="5px" font-weight="bold" font-family="'Helvetica Neue', Helvetica, Arial-Unicode, Arial, Sans-serif">from the Noun Project</text></svg>