<svg xmlns="http://www.w3.org/2000/svg" xmlns:xlink="http://www.w3.org/1999/xlink" version="1.1" x="0px" y="0px" viewBox="0 0 100 125" style="enable-background:new 0 0 100 100;" xml:space="preserve"><g><path d="M28,39.4c0.8,0,1.5,0.1,2.3,0.2c0.7,0.1,1.3,0.4,2,0.6c0.6,0.3,1.1,0.9,1.2,1.6l2.4,15.1c0.1,0.7-0.1,1.4-0.6,1.8   c-1.4,1.2-3.1,2.1-5,2.5C33.7,71.6,42,79.9,52.5,83.3c0.4-1.9,1.3-3.6,2.5-5c0.5-0.5,1.1-0.7,1.8-0.6l15.1,2.4   c0.7,0.1,1.3,0.6,1.6,1.2c0.3,0.6,0.5,1.3,0.6,2c0.1,0.7,0.2,1.5,0.2,2.3c0,5.7-4.3,10.4-9.9,11c-0.4,0-0.7,0-1.1,0   c-25.2,0-45.6-20.1-46.2-45.1c0-0.3,0-0.7,0-1.1c0-0.4,0-0.8,0-1.1C17.7,43.7,22.3,39.4,28,39.4z"/><g><path d="M63.1,21.8c-2.2-0.3-4-0.7-4-2.3c0-1.3,1.2-2.4,3.7-2.4c1.9,0,3.6,1,4.3,2l2.7-1.4c-1.1-2.3-3.3-3.2-5.6-3.5V11h-3v3.3    c-2.8,0.4-5.4,2-5.4,5.1c0,4,3.4,5,7,5.4c2.4,0.3,4.2,0.9,4.2,2.6c0,1.9-2,2.7-4.1,2.7c-2.2,0-4.3-0.9-5-2.8l-2.8,1.5    c1.1,2.8,3.3,4,6.2,4.3v3.3h3v-3.3c3.4-0.4,6.2-2.1,6.2-5.6C70.3,23.2,66.8,22.2,63.1,21.8z"/><g><path d="M77,9.2c-0.2-0.2-0.4-0.4-0.6-0.6c-0.9-0.8-1.8-1.5-2.8-2.1c-3.1-2-6.7-3-10.5-3h-0.3c-5.1,0.1-10,2.1-13.7,5.7     c-3.7,3.6-5.8,8.4-6,13.6c-0.1,4.4,1.1,8.6,3.7,12.1c0.1,0.1,0.1,0.2,0,0.2c-0.6,1.9-1.7,2.7-3,3.7c-0.6,0.5-1.3,1-1.9,1.6     c-0.7,0.7-0.8,1.8-0.2,2.7c0.4,0.7,1.1,1.1,1.7,1.1c0.1,0,0.1,0,0.2,0L63,43.3c0,0,0,0,0.1,0c3.9,0,7.5-1.1,10.5-3     c1-0.6,2-1.3,2.8-2.1c4-3.7,6.6-8.9,6.6-14.8C83,18,80.8,12.9,77,9.2z M73.5,36.3c-0.9,0.7-1.8,1.3-2.8,1.9     C68.4,39.4,65.8,40,63,40h-0.1l-16.2,0.7c1.2-1,2.6-2.3,3.2-4.7c0.3-1,0.1-2.1-0.5-3c-2.1-3-3.2-6.5-3.1-10.2     c0.3-8.8,7.6-16,16.4-16.2c0.1,0,0.2,0,0.3,0c2.7,0,5.3,0.6,7.7,1.9c1,0.5,1.9,1.1,2.8,1.9c0.4,0.3,0.8,0.7,1.2,1.1     c3.2,3.2,5,7.4,5,11.9C79.7,28.6,77.3,33.2,73.5,36.3z"/></g></g></g><text x="0" y="115" fill="#000000" font-size="5px" font-weight="bold" font-family="'Helvetica Neue', Helvetica, Arial-Unicode, Arial, Sans-serif">Created by MOHAMMED SALIM</text><text x="0" y="120" fill="#000000" font-size="5px" font-weight="bold" font-family="'Helvetica Neue', Helvetica, Arial-Unicode, Arial, Sans-serif">from the Noun Project</text></svg>