<svg xmlns="http://www.w3.org/2000/svg" data-name="Layer 1" viewBox="0 0 128 160" x="0px" y="0px"><title>miscellaneous 74 </title><path d="M111.38867,25.69708C105.03619,10.79,88.745.4707,70.8493.01953,56.67462-.35352,42.95337,4.62982,33.259,13.65515,25.21887,21.13947,17.67719,34.822,20.11713,47.17639a29.53736,29.53736,0,0,0,.8941,3.207c.80322,2.51361,1.56152,4.88861.50128,6.68744-.01367.02344-.01367.02246-6.64563,11.618a8.70835,8.70835,0,0,0-1.84784,5.6416c.34009,4.498,4.46075,5.42377,6.92218,5.9765.28925.06543.57361.12891.84918.19629a4.76173,4.76173,0,0,1,.77295.2373,8.99023,8.99023,0,0,1-.4212,3.36127c-.19739.59277-1.07874,3.61719.99768,4.957a1.1793,1.1793,0,0,0,.15637.08984c.53644.30664.67328.876.40845,1.69232a4.719,4.719,0,0,0-.06354,3.99023,2.97084,2.97084,0,0,0,1.99146,1.42188c.216.124.58728.39453.51892.75879-1.51465,5.04486-1.26935,11.49792,3.94769,14.56042,4.1637,2.44238,9.2312,1.92969,13.69781,1.47949,1.326-.13379,2.57776-.25977,3.74054-.30566a1.85636,1.85636,0,0,0,.19641-.0166,8.42751,8.42751,0,0,1,3.593.15918c.41144.58594,4.72559,6.89642,4.194,12.9364a2.00036,2.00036,0,0,0,1.81854,2.167c.05957.00488.11823.00781.17682.00781a2.00133,2.00133,0,0,0,1.99146-1.8252c.685-7.78119-4.74017-15.35925-4.93463-15.62488-1.541-2.27344-5.53168-2.03027-7.28864-1.7959-1.25568.05273-2.53571.18164-3.8891.31836-4.05029.4082-8.23547.832-11.26959-.94922-4.17633-2.45111-2.50153-8.77338-2.12433-10.0155.01074-.03223.01953-.06543.02734-.09863a4.7356,4.7356,0,0,0-2.71649-5.3916c.02637-.085.0567-.166.086-.23535a1.77251,1.77251,0,0,0,.06744-.168,5.2325,5.2325,0,0,0-1.66022-6.19623,4.052,4.052,0,0,1,.14069-.6709,12.89557,12.89557,0,0,0,.58533-5.15424c-.28534-2.71777-2.83179-3.33984-3.78943-3.57422-.3-.07324-.60876-.14355-.92242-.21387-2.81616-.63281-3.70929-1.043-3.80994-2.37592a4.802,4.802,0,0,1,1.12665-3.0293,1.90635,1.90635,0,0,0,.14368-.21777s6.62024-11.57513,6.673-11.66693c1.97675-3.35541.80908-7.01068-.129-9.94714a26.46688,26.46688,0,0,1-.78076-2.7666c-2.14288-10.85248,4.68939-23.06525,11.94385-29.81909C44.92133,8.26459,57.61169,3.70306,70.74768,4.01752c16.35663.41309,31.20947,9.75482,36.959,23.24689,7.27008,17.05847,2.356,39.29565-13.14667,59.48395a10.80692,10.80692,0,0,0-2.19373,7.47943,78.72108,78.72108,0,0,0,5.82678,24.66681,2.00115,2.00115,0,0,0,3.678-1.57812A74.83607,74.83607,0,0,1,96.3551,93.90161a6.81391,6.81391,0,0,1,1.38074-4.71771C114.12866,67.83441,119.23236,44.1012,111.38867,25.69708Z"/><path d="M74.37,71.87a26.91868,26.91868,0,0,0,5.77-2.39l2.11,2.1a5.38589,5.38589,0,0,0,7.58-.28l2.51-2.51a5.786,5.786,0,0,0,1.73-4.05,4.94948,4.94948,0,0,0-1.44-3.53l-2.1-2.1a27.35093,27.35093,0,0,0,2.39-5.77h2.97a5.38058,5.38058,0,0,0,5.16-5.57V44.23a5.37151,5.37151,0,0,0-5.16-5.56H93.74L90.53,32.9l2.1-2.1a4.94823,4.94823,0,0,0,1.44-3.54,5.81813,5.81813,0,0,0-1.72-4.05L89.83,20.7a5.38555,5.38555,0,0,0-7.58-.28l-2.11,2.11a26.454,26.454,0,0,0-5.77-2.4V17.17A5.37956,5.37956,0,0,0,68.81,12H65.26a5.37956,5.37956,0,0,0-5.56,5.17v2.96a26.738,26.738,0,0,0-5.78,2.4l-2.11-2.11a5.38584,5.38584,0,0,0-7.58.28l-2.51,2.52a5.3856,5.3856,0,0,0-.28,7.58l2.1,2.1a26.50239,26.50239,0,0,0-2.39,5.77H38.18a5.37956,5.37956,0,0,0-5.17,5.56v3.54a5.38863,5.38863,0,0,0,5.17,5.57h2.97a26.63,26.63,0,0,0,2.39,5.76l-2.11,2.11a5.38662,5.38662,0,0,0,.29,7.58l2.52,2.51a5.38589,5.38589,0,0,0,7.58.28l2.1-2.1a27.21126,27.21126,0,0,0,5.78,2.39v2.97A5.37807,5.37807,0,0,0,65.26,80h3.55a5.37807,5.37807,0,0,0,5.56-5.16ZM69.15,62A17.361,17.361,0,0,1,52.02,44.44,14.29368,14.29368,0,0,1,66.12,30,11.83275,11.83275,0,0,1,77.8,41.96a9.86466,9.86466,0,0,1-9.74,9.96,8.29361,8.29361,0,0,1-8.2-8.37,7.04073,7.04073,0,0,1,6.96-7.1,2,2,0,0,1,0,4,3.02859,3.02859,0,0,0-2.95,3.1,4.28772,4.28772,0,0,0,4.19,4.37,5.86709,5.86709,0,0,0,5.74-5.96A7.83518,7.83518,0,0,0,66.12,34,10.2812,10.2812,0,0,0,56.03,44.44,13.355,13.355,0,0,0,69.15,58c9.31,0,16.9-7.82,16.9-17.44a2,2,0,1,1,4,0C90.05,52.38,80.67,62,69.15,62Z"/><text x="0" y="143" fill="#000000" font-size="5px" font-weight="bold" font-family="'Helvetica Neue', Helvetica, Arial-Unicode, Arial, Sans-serif">Created by priyanka</text><text x="0" y="148" fill="#000000" font-size="5px" font-weight="bold" font-family="'Helvetica Neue', Helvetica, Arial-Unicode, Arial, Sans-serif">from the Noun Project</text></svg>