<svg xmlns="http://www.w3.org/2000/svg" viewBox="0 0 64 80" x="0px" y="0px"><title>a</title><g data-name="09 Food"><path d="M62,36H59.819a12.015,12.015,0,0,0-6.332-8.659l5.927-5.927c5.269-5.269,6.017-10.812,2-14.828L59.071,4.243a10.021,10.021,0,0,0-14.142,0l-8.27,8.27A12,12,0,0,0,26,6a11.873,11.873,0,0,0-4,.713V2a2,2,0,0,0-4,0V6.713A11.873,11.873,0,0,0,14,6,12.013,12.013,0,0,0,2,18c0,5.465,2.958,13.3,7.046,18H2a2,2,0,0,0-2,2V62a2,2,0,0,0,2,2H62a2,2,0,0,0,2-2V38A2,2,0,0,0,62,36Zm-21.678-.227c.025-.086.05-.172.078-.258.051-.157.109-.31.169-.462.03-.074.057-.15.089-.222q.124-.287.271-.561c.015-.03.028-.061.044-.09.115-.211.241-.415.374-.615.038-.057.081-.111.12-.167.1-.14.2-.277.306-.41.055-.067.112-.132.169-.2q.15-.175.31-.341c.063-.065.126-.129.191-.192.112-.108.226-.211.344-.312.065-.056.128-.113.2-.167.137-.11.279-.214.423-.316.051-.036.1-.076.154-.111.2-.133.4-.258.612-.373.045-.024.093-.045.139-.069.167-.087.337-.171.511-.246.077-.034.157-.063.236-.095.147-.058.3-.114.448-.164.088-.029.177-.056.266-.082.15-.043.3-.082.455-.117.09-.02.18-.041.271-.059.165-.031.333-.055.5-.077.081-.009.16-.023.241-.03.251-.024.5-.039.76-.039a7.92,7.92,0,0,1,1.461.141h.021A8.024,8.024,0,0,1,55.747,36H40.263C40.283,35.924,40.3,35.848,40.322,35.773Zm-2.377-18.89,9.812-9.812a6.024,6.024,0,0,1,8.486,0l2.343,2.343a4.077,4.077,0,0,1,1.16,4.363,12.089,12.089,0,0,1-3.16,4.809l-7.47,7.47C48.739,26.019,48.366,26,48,26c-.394,0-.782.022-1.167.059-.127.012-.251.036-.377.052-.255.033-.509.067-.759.116-.146.028-.288.066-.432.1-.225.052-.448.107-.668.171-.149.045-.3.095-.442.145-.208.071-.414.145-.617.227q-.219.087-.433.185c-.2.089-.392.182-.584.281-.137.071-.274.144-.409.22-.191.108-.376.222-.56.34-.126.081-.253.16-.376.246-.188.13-.367.269-.547.409-.11.086-.222.168-.328.257-.2.167-.388.343-.575.523-.078.073-.159.142-.234.217q-.387.39-.737.811c-.043.052-.08.108-.123.161-.186.233-.367.471-.537.718-.073.106-.138.219-.207.327-.128.2-.255.4-.372.612-.071.127-.135.258-.2.389-.1.2-.2.4-.292.6-.062.14-.118.283-.175.426-.081.2-.158.41-.227.62-.05.148-.1.3-.14.449-.062.213-.116.429-.167.646-.035.153-.069.3-.1.459-.015.077-.036.152-.05.229H30.957c.011-.012.021-.026.032-.039q.343-.4.676-.823c.056-.072.11-.146.166-.219.168-.22.334-.444.5-.674l.2-.291q.245-.355.482-.724c.048-.076.1-.149.146-.226.2-.319.4-.646.59-.978.043-.074.084-.15.127-.225q.225-.4.44-.8c.057-.109.115-.218.171-.328.135-.263.268-.528.4-.8.044-.09.088-.179.131-.27q.251-.53.484-1.07c.029-.068.056-.136.085-.2q.188-.442.363-.89.068-.171.132-.342c.018-.046.036-.092.053-.138l.453.453a2,2,0,0,0,2.828-2.828L37.438,22.61c.018-.085.038-.17.056-.254.075-.354.144-.707.2-1.054.006-.031.009-.061.014-.093q.08-.473.136-.934c.013-.1.024-.207.035-.31q.041-.366.066-.722c.008-.1.016-.2.021-.294.019-.323.031-.641.031-.949C38,17.63,37.982,17.259,37.945,16.883ZM6,18a8.009,8.009,0,0,1,8-8,7.916,7.916,0,0,1,4.8,1.612c.01.007.022.009.032.016a2,2,0,0,0,.5.262c.037.013.073.023.11.034a1.98,1.98,0,0,0,.558.089H20a1.967,1.967,0,0,0,.557-.089c.038-.011.074-.021.111-.034a2.013,2.013,0,0,0,.5-.262c.01-.007.022-.009.032-.016A7.914,7.914,0,0,1,26,10a8.008,8.008,0,0,1,7.858,6.528v.009c.046.253.08.5.1.736S34,17.754,34,18c0,7.77-6.29,18-10,18a4.011,4.011,0,0,1-2.489-1.324,2.005,2.005,0,0,0-1.5-.684H20a2.016,2.016,0,0,0-1.5.674A4.023,4.023,0,0,1,16,36C12.29,36,6,25.77,6,18ZM4,60V58h8a2,2,0,0,0,0-4H4V48H22a2,2,0,0,0,0-4H4V40H60v4H52a2,2,0,0,0,0,4h8v4H42a2,2,0,0,0,0,4H60v4Z"/><path d="M48.586,15.414a2,2,0,0,0,2.828-2.828l-2-2a2,2,0,0,0-2.828,2.828Z"/><path d="M42.586,21.414a2,2,0,0,0,2.828-2.828l-2-2a2,2,0,0,0-2.828,2.828Z"/></g><text x="0" y="79" fill="#000000" font-size="5px" font-weight="bold" font-family="'Helvetica Neue', Helvetica, Arial-Unicode, Arial, Sans-serif">Created by Berkah Icon</text><text x="0" y="84" fill="#000000" font-size="5px" font-weight="bold" font-family="'Helvetica Neue', Helvetica, Arial-Unicode, Arial, Sans-serif">from the Noun Project</text></svg>