<svg xmlns:dc="http://purl.org/dc/elements/1.1/" xmlns:cc="http://creativecommons.org/ns#" xmlns:rdf="http://www.w3.org/1999/02/22-rdf-syntax-ns#" xmlns:svg="http://www.w3.org/2000/svg" xmlns="http://www.w3.org/2000/svg" xmlns:sodipodi="http://sodipodi.sourceforge.net/DTD/sodipodi-0.dtd" xmlns:inkscape="http://www.inkscape.org/namespaces/inkscape" viewBox="0 0 32 40.00000125" version="1.1" x="0px" y="0px"><g transform="translate(0,-1020.3622)"><path d="m 15.999,1026.6127 c -4.8199,0 -13,6.5 -13,6.5 0,0 8.1801,6.5 13,6.5 4.8199,0 13.002,-6.5 13.002,-6.5 0,0 -8.1821,-6.5 -13.002,-6.5 z m -0.5,3.5 1,0 0,0.7675 c 0.3893,0.1315 0.7258,0.3961 0.8926,0.7969 l -0.9238,0.3848 c -0.081,-0.1937 -0.3445,-0.3317 -0.6114,-0.2637 -0.2668,0.068 -0.3886,0.2688 -0.3515,0.4668 0.037,0.1977 0.2527,0.3725 0.5332,0.3535 l 0.019,0 0.018,0 c 0.3944,0 0.749,0.1447 0.9883,0.375 0.2393,0.2303 0.3583,0.5184 0.4121,0.7871 l 0,0 c 0.1307,0.6961 -0.3162,1.3577 -0.9785,1.5821 l 0,0.75 -1,0 0,-0.7618 c -0.3885,-0.1317 -0.724,-0.3987 -0.8906,-0.7988 l 0.9238,-0.3847 c 0.081,0.1936 0.3446,0.3336 0.6114,0.2656 0.2655,-0.067 0.3851,-0.2681 0.3496,-0.4649 -0.025,-0.1223 -0.072,-0.2097 -0.1231,-0.2597 -0.052,-0.051 -0.1139,-0.096 -0.3027,-0.096 l 0.037,0 c -0.744,0.049 -1.4442,-0.4331 -1.582,-1.168 -0.1305,-0.6955 0.3154,-1.3569 0.9765,-1.582 z" style="display:inline;opacity:1;fill:#000000;fill-opacity:1;stroke:none;stroke-width:0.99999982;stroke-linecap:round;stroke-linejoin:round;stroke-miterlimit:4;stroke-dasharray:none;stroke-dashoffset:0;stroke-opacity:1"/><path d="m 8.5010001,1037.8431 0,6.2168 c 0,0 4.5046999,2.0038 6.9218999,2.0508 2.7866,0.054 8.0761,-2.0508 8.0761,-2.0508 l 0,-6.2168 c -2.4186,1.391 -5.1164,2.6446 -7.5,2.6446 -2.3834,0 -5.0795,-1.2537 -7.4979999,-2.6446 z" style="" fill="#000000" fill-rule="evenodd" stroke="none"/><path style="" d="M 4.7402344 15.09375 A 0.50004985 0.50004985 0 0 0 4.2480469 15.601562 L 4.2480469 18.464844 L 2.9980469 20.25 L 2.9980469 25.25 L 6.4980469 25.25 L 6.4980469 20.25 L 5.2480469 18.464844 L 5.2480469 15.601562 A 0.50004985 0.50004985 0 0 0 4.7402344 15.09375 z M 4.7480469 20.523438 A 0.59999973 0.60000068 0 0 1 5.3496094 21.123047 A 0.59999973 0.60000068 0 0 1 4.7480469 21.724609 A 0.59999973 0.60000068 0 0 1 4.1484375 21.123047 A 0.59999973 0.60000068 0 0 1 4.7480469 20.523438 z " transform="translate(0,1020.3622)" fill="#000000" fill-rule="evenodd" stroke="none"/></g><text x="0" y="47.000001" fill="#000000" font-size="5px" font-weight="bold" font-family="'Helvetica Neue', Helvetica, Arial-Unicode, Arial, Sans-serif">Created by P Thanga Vignesh</text><text x="0" y="52.000001" fill="#000000" font-size="5px" font-weight="bold" font-family="'Helvetica Neue', Helvetica, Arial-Unicode, Arial, Sans-serif">from the Noun Project</text></svg>