<svg xmlns="http://www.w3.org/2000/svg" xmlns:xlink="http://www.w3.org/1999/xlink" version="1.1" x="0px" y="0px" viewBox="-346 256 100 125" enable-background="new -346 256 100 100" xml:space="preserve"><g><path d="M-246.711,326.434l-17.927-15.862c-0.435-0.384-1.031-0.523-1.589-0.377l-11.863,3.13c-0.689,0.182-1.198,0.77-1.278,1.479   l-0.291,2.602l-5.915-1.45l-0.001-13.853l6.229,5.688l5.601-6.134l-35.966-32.828l-15.987,14.318v-6.657h-8.544v14.31L-346,301.331   l5.542,6.187l6.217-5.566l0.039,42.549l10.589-0.001v-23.083h10.182v23.082l27.861-0.001l-0.003-26.588l5.701,1.397l-0.863,7.697   c-0.064,0.562,0.151,1.121,0.578,1.494l17.747,15.572c0.328,0.288,0.735,0.43,1.142,0.43c0.477,0,0.949-0.196,1.291-0.579   l13.411-15.039c0.308-0.344,0.463-0.795,0.436-1.254C-246.158,327.169-246.367,326.739-246.711,326.434z M-313.432,311.913h-10.182   v-10.501h10.182V311.913z M-295.839,311.913h-10.182v-10.501h10.182V311.913z M-261.419,340.337l-15.778-13.845l0.714-6.355   l2.646,0.648c0.095,1.154,0.898,2.172,2.084,2.461c1.481,0.364,2.978-0.542,3.343-2.025c0.364-1.483-0.543-2.979-2.026-3.342   c-1.129-0.276-2.263,0.187-2.902,1.075l-2.932-0.719l0.21-1.867l9.821-2.592l15.934,14.098L-261.419,340.337z"/></g><text x="-346" y="371" fill="#000000" font-size="5px" font-weight="bold" font-family="'Helvetica Neue', Helvetica, Arial-Unicode, Arial, Sans-serif">Created by Luis Prado</text><text x="-346" y="376" fill="#000000" font-size="5px" font-weight="bold" font-family="'Helvetica Neue', Helvetica, Arial-Unicode, Arial, Sans-serif">from the Noun Project</text></svg>