<svg xmlns="http://www.w3.org/2000/svg" xmlns:xlink="http://www.w3.org/1999/xlink" version="1.1" x="0px" y="0px" viewBox="0 0 305.997 296.6025" style="enable-background:new 0 0 305.997 237.282;" xml:space="preserve"><g><path d="M29.202,130.613c-3.148,6.867-6.135,17.807-7.086,35.104c-0.007,0.131-0.027,0.259-0.04,0.388   c2.355,1.146,4.755,2.112,7.126,2.882v-19.722V130.613z"/><path d="M26.141,107.002c-8.619,2.528-22.14,9.209-25.679,26.567c-1.56,7.648,0.963,14.558,5.613,20.305   c2.016-17.316,6.435-30.686,13.195-39.804C21.515,111.024,23.894,108.717,26.141,107.002z"/><path d="M282.333,168.771c0.276,2.839,0.502,5.617,0.666,8.289c1.503-1.08,3.014-2.311,4.504-3.669   C285.205,172.657,283.317,170.975,282.333,168.771z"/><path d="M281.77,118.24c8.285,9.549,13.771,23.862,16.326,42.569c7.19-11.154,10.931-24.666,4.86-35.271   c-9.426-16.468-25.892-17.717-34.534-17.088c0.926,0.338,1.688,0.687,2.302,1.021C273.473,110.808,277.6,113.412,281.77,118.24z"/><circle cx="253.128" cy="84.675" r="19.379"/><path d="M235.71,111.742c0.355,1.007,0.905,2.483,1.685,4.319c1.56,3.671,4.034,8.778,7.661,14.446   c6.874,10.744,17.87,23.464,34.638,32.423c-1.056-9.061-2.495-18.429-3.887-26.608c3.209,6.432,6.246,15.876,7.827,29.712   c0.378,3.316,3.19,5.765,6.452,5.765c0.246,0,0.494-0.015,0.744-0.043c3.566-0.406,6.129-3.629,5.723-7.195   c-2.672-23.473-9.471-37.146-16.297-45.013c-3.866-4.478-7.681-6.958-10.455-8.303c-2.127-1.166-6.905-2.872-16.673-2.872   c-7.915,0-12.554,1.12-15.16,2.165c-0.657,0.174-1.3,0.45-1.9,0.844v-0.002c0,0,0,0-0.083,0.054   c-0.066,0.045-0.177,0.115-0.313,0.199C235.687,111.672,235.695,111.7,235.71,111.742z"/><circle cx="52.398" cy="77.805" r="21.195"/><path d="M34.861,105.761c-0.379-0.332-0.665-0.574-0.884-0.76c-2.604,0.818-8.006,3.346-13.1,10.262   c-6.382,8.604-12.293,23.461-13.737,49.629c-0.196,3.585,2.55,6.65,6.133,6.848c0.122,0.007,0.245,0.01,0.366,0.01   c3.426,0,6.291-2.68,6.481-6.143c1.337-24.348,6.762-36.576,11.082-42.443v103.615c0,5.351,4.34,9.689,9.69,9.689   c5.352,0,9.689-4.339,9.689-9.689v-49.658h3.634v49.658c0,5.351,4.339,9.689,9.689,9.689c5.351,0,9.689-4.339,9.689-9.689v-63.811   C63.978,132.721,40.714,110.84,34.861,105.761z"/><path d="M73.834,109.074c-0.116-0.229-0.194-0.398-0.239-0.497c-0.025-0.048-0.038-0.08-0.043-0.093H73.55   c-0.55-1.27-1.46-2.271-2.557-2.946c-0.98-0.683-2.17-1.086-3.455-1.086h-26.68c7.353,6.854,22.739,22.807,32.735,44.705v-19.63   c0.636,0.549,1.305,1.089,2.001,1.619c5.32,4.054,12.404,7.412,21.193,7.82c1.454,2.031,3.829,3.352,6.504,3.352   c0.051,0,0.102,0,0.152-0.001c3.317-0.062,6.124-2.136,7.283-5.034c0.056-0.016,0.112-0.029,0.168-0.045   c3.454-0.977,5.462-4.568,4.486-8.021c-0.595-2.105-2.163-3.668-4.079-4.351c0.614-30.701,7.3-45.299,12.625-51.8   c0.365-0.447,0.723-0.858,1.075-1.24v152.994c0,6.83,5.537,12.363,12.363,12.363c6.828,0,12.365-5.533,12.365-12.363v-90.271h4.635   v90.271c0,6.83,5.537,12.363,12.363,12.363c6.828,0,12.365-5.533,12.365-12.363V71.823c1.967,2.134,4.13,5.255,6.225,9.925   c3.353,7.533,6.333,19.164,7.238,36.576c0.036,0.678,0.07,1.358,0.099,2.055c-2.25,0.719-4.028,2.637-4.44,5.126   c-0.546,3.286,1.48,6.403,4.605,7.305c-0.006,0.455-0.01,0.907-0.018,1.369c-0.004,0.231,0.007,0.46,0.023,0.688   c0.276,4.101,3.65,7.377,7.835,7.451c0.048,0.001,0.097,0.001,0.145,0.001c3.974,0.001,7.283-2.912,7.889-6.744   c0.058-0.365,0.1-0.734,0.106-1.114c0.005-0.305,0.004-0.592,0.008-0.893c9.169-0.739,17.157-3.189,23.12-5.626   c-2.941,16.122-6.959,41.17-6.959,57.664c0,2.35,4.225,4.431,9.689,5.965v37.84c0,4.348,3.523,7.873,7.872,7.873   c4.348,0,7.872-3.525,7.872-7.873V194.18c0.963,0.056,1.879,0.086,2.726,0.086s1.763-0.03,2.726-0.086v35.229   c0,4.348,3.523,7.873,7.872,7.873c4.348,0,7.872-3.525,7.872-7.873v-37.84c5.465-1.534,9.69-3.615,9.69-5.965   c0-4.957-0.367-10.692-0.955-16.721c-33.162-16.283-45.994-46.247-49.112-54.862c-4.938,2.385-13.18,5.64-22.547,6.535   c-0.025-0.673-0.055-1.337-0.086-1.997c-1.361-29.081-8.076-45.75-15.994-55.573c-4.415-5.46-9.188-8.583-13.018-10.204   c-2.39-1.02-4.391-1.474-5.754-1.678c-0.773-0.259-1.596-0.405-2.456-0.405h-38.635c-0.859,0-1.682,0.146-2.454,0.404   c-1.363,0.203-3.367,0.659-5.759,1.679c-5.776,2.408-13.53,8.299-19.296,20.182c-5.536,11.321-9.552,27.917-9.933,52.83   c-6.902-0.909-11.889-4.517-15.629-8.447c-1.711-1.822-3.069-3.677-4.066-5.223c-0.236-0.366-0.458-0.72-0.652-1.045   C74.432,110.23,74.063,109.533,73.834,109.074z"/><circle cx="152.049" cy="22.5" r="22.5"/></g><text x="0" y="252.282" fill="#000000" font-size="5px" font-weight="bold" font-family="'Helvetica Neue', Helvetica, Arial-Unicode, Arial, Sans-serif">Created by Gan Khoon Lay</text><text x="0" y="257.28200000000004" fill="#000000" font-size="5px" font-weight="bold" font-family="'Helvetica Neue', Helvetica, Arial-Unicode, Arial, Sans-serif">from the Noun Project</text></svg>