<svg xmlns="http://www.w3.org/2000/svg" xmlns:xlink="http://www.w3.org/1999/xlink" version="1.1" x="0px" y="0px" viewBox="0 0 100 125" enable-background="new 0 0 100 100" xml:space="preserve"><path d="M90.6587601,52.8979492c-0.0012817-0.0123901-0.0085449-0.0223389-0.0102539-0.0346069V48c0-0.5522461-0.4477539-1-1-1  H63.96735V34.5617065l10.4438515,6.4343872c0.159668,0.0981445,0.3413086,0.1484375,0.5244141,0.1484375  c0.1079102,0,0.2163086-0.0175781,0.3208008-0.0527344c0.2822266-0.0957031,0.5068359-0.3120117,0.6132813-0.5898438  l4.7280273-12.3569336c0.1430664-0.375,0.0488281-0.7993164-0.2402344-1.0776367L63.6611977,10.984375  c-0.0230103-0.0220947-0.0515747-0.034668-0.0761719-0.0542603c-0.0449829-0.0361938-0.088623-0.0713501-0.1398315-0.0994873  c-0.0456543-0.0249634-0.0940552-0.039917-0.1425171-0.057373c-0.0428467-0.015564-0.0802002-0.0408325-0.1258545-0.0505981  l-9.8704224-2.1165771C51.8407021,6.255188,47.1741982,5,42.7285805,5c-4.4046021,0-9.0297241,1.230896-10.5403442,3.539917  l-9.4464703,2.1861572c-0.0453491,0.010498-0.0823975,0.0361938-0.1248779,0.0524292  c-0.0442505,0.0167236-0.0881348,0.0314941-0.1298828,0.0545044c-0.0516357,0.0286255-0.0963745,0.0632935-0.1416626,0.1000977  c-0.0219727,0.0177002-0.0477295,0.0286255-0.0684204,0.0483398L5.4297533,27.0644531  c-0.2817383,0.2685547-0.3818359,0.6762695-0.2563477,1.0449219l4.1982422,12.3569336  c0.0966797,0.2841797,0.3154297,0.5097656,0.5966797,0.6147461c0.1132813,0.0424805,0.2319336,0.0634766,0.3500977,0.0634766  c0.1748047,0,0.3491211-0.0458984,0.503418-0.1362305l11.1455088-6.4971313V57v5v5c0,0.5522461,0.4477539,1,1,1h19.5809307  l-2.6654053,25.8974609c-0.0292969,0.2817383,0.0625,0.5625,0.2524414,0.7724609C40.3247719,94.8798828,40.5943031,95,40.8775063,95  h18.2797852c0.4399414,0,0.828125-0.2875977,0.956543-0.7084961l6.9009438-22.6465454l7.6415405,22.6743774  C74.7935257,94.7260742,75.1748734,95,75.6040726,95h18.2758789c0.2832031,0,0.5527344-0.1201172,0.7421875-0.3300781  c0.1899414-0.2099609,0.2817383-0.4907227,0.2524414-0.7719727L90.6587601,52.8979492z M63.96735,14.0561523l14.5258827,13.9921875  l-4.0605469,10.6118164L63.96735,32.2124023V14.0561523z M21.9673519,32.1962891l-11.0957041,6.4682617L7.2725267,28.0703125  l14.6948252-14.0288086V32.1962891z M89.7528152,63.6375732C88.2360306,63.3132324,83.8750076,61.7131958,81.533638,54h7.2281494  L89.7528152,63.6375732z M42.7285805,7c5.527832,0,9.0556641,1.8891602,9.0556641,3.1899414  s-3.527832,3.1899414-9.0556641,3.1899414s-9.0556641-1.8891602-9.0556641-3.1899414S37.2007484,7,42.7285805,7z   M23.9673519,32.7709961V12.4951172l7.7597656-1.7958374c0.5447979,3.0429688,5.920042,4.680603,11.0014629,4.680603  c5.0587158,0,10.4117432-1.6221313,10.9970703-4.6389771l8.2416992,1.767395v20.2626953V47H45.0347328c-0.5522461,0-1,0.4477539-1,1  v5c0,0.0667114,0.0255737,0.125061,0.0380249,0.1881714L43.783329,56H23.9673519V32.7709961z M45.6811562,57.0980835L46.0000648,54  h7.2268066c-2.3410645,7.7131958-6.7016602,9.3129883-8.21875,9.6375122l0.5593262-5.4342041l0.1142578-1.0997925  C45.6818886,57.1016235,45.6809731,57.0999756,45.6811562,57.0980835z M23.9673519,58h19.6101665l-0.0232544,0.2258911  l-0.1104126,1.0631714L43.2660561,61H23.9673519V58z M23.9673519,66v-3h19.0927715l-0.3061523,3H23.9673519z M58.4165688,93  H41.9859047l0.3087769-3h17.0360718L58.4165688,93z M65.9673538,68.2211914L59.9401894,88H42.5005531l2.1508179-20.8965454  c0.000061-0.0006714,0.0004883-0.0012207,0.0005493-0.0018921l0.0421753-0.4135132l0.1020508-0.9910889  C46.0571327,65.5516357,52.4173012,64.3076782,55.3114662,54h10.6558876V68.2211914z M46.0347328,52v-3h42.6137733v3H46.0347328z   M74.6583328,88.062439l-6.690979-19.8539429V54h11.4815674c2.8944092,10.3084717,9.2553711,11.5516968,10.515625,11.6969604  L92.2578812,88H74.9673538C74.8577347,88,74.7570267,88.0298462,74.6583328,88.062439z M76.3223343,93l-1.0110474-3h17.1522827  l0.3084717,3H76.3223343z"/><text x="0" y="115" fill="#000000" font-size="5px" font-weight="bold" font-family="'Helvetica Neue', Helvetica, Arial-Unicode, Arial, Sans-serif">Created by Edwin PM</text><text x="0" y="120" fill="#000000" font-size="5px" font-weight="bold" font-family="'Helvetica Neue', Helvetica, Arial-Unicode, Arial, Sans-serif">from the Noun Project</text></svg>