<svg xmlns="http://www.w3.org/2000/svg" xmlns:xlink="http://www.w3.org/1999/xlink" version="1.1" x="0px" y="0px" viewBox="0 0 233.716 296.47875" style="enable-background:new 0 0 233.716 237.183;" xml:space="preserve"><g><ellipse transform="matrix(0.2268 -0.9739 0.9739 0.2268 88.0867 157.944)" cx="143.517" cy="23.495" rx="23.489" ry="23.49"/><path d="M185.552,124.803c0.253,1.75,0.492,3.554,0.72,5.415c1.747-0.551,3.795-0.946,6.121-1.186   C189.797,128.144,187.463,126.692,185.552,124.803z"/><path d="M57.3,164.934v10.842c1.25,0.359,2.659,0.683,4.2,0.972c-0.721-10.862-2.388-18.387-4.2-23.549V164.934z"/><path d="M45.623,123.785c-2.397,1.054-5.039,1.649-7.821,1.649c-2.45,0-4.786-0.474-6.948-1.302   c-0.176,0.597-0.35,1.197-0.522,1.802h14.611C45.167,125.213,45.391,124.49,45.623,123.785z"/><path d="M47.122,88.812c2.546,1.391,4.734,3.345,6.434,5.677c0.017,0.023,0.035,0.045,0.052,0.069   c1.95-0.663,3.651-2.057,4.625-4.055c3.064-6.227,6.961-10.676,11.438-13.982c-3.198,3.836-8.186,11.407-9.886,14.865   c-1.087,2.232-2.913,3.909-5.104,4.826c1.658,2.866,2.622,6.18,2.622,9.721c0,5.091-1.977,9.719-5.184,13.195   c-0.267,2.287-0.498,4.572-0.689,6.841c0.066-0.001,0.131-0.008,0.197-0.008c0.376,0,0.75,0.026,1.113,0.079   c2.388,0.232,8.414,2.556,13.468,9.613c6.503,9.001,10.333,23.147,11.381,42.039c0.116,2.133-0.604,4.185-2.029,5.778   c-1.428,1.591-3.386,2.532-5.522,2.649c-0.146,0.008-0.293,0.013-0.443,0.013c-3.18-0.002-5.945-1.867-7.23-4.585v46.584   c0,5,4.051,9.051,9.051,9.051c4.998,0,9.053-4.051,9.053-9.051v-49.671c2.703,0.061,5.441,0.061,8.146,0v49.671   c0,5,4.051,9.051,9.051,9.051c4.998,0,9.053-4.051,9.053-9.051v-51.226c2.55-0.442,4.777-0.977,6.557-1.602   c0.751-0.264,1.42-0.544,2-0.841c1.611-0.824,2.531-1.772,2.531-2.849c0,0,2.909-34.406-2.531-63.794   c-0.57-3.081-1.233-6.104-2-9.029c-1.014-3.866-2.209-7.555-3.619-10.964c0.947,0.605,1.916,1.256,2.91,1.951   c0.238,0.167,0.469,0.321,0.709,0.492c0.035,0.025,0.068,0.047,0.104,0.072c-0.034-0.095-0.069-0.186-0.104-0.281   c-0.023-0.065-0.048-0.128-0.071-0.193c0.023,0.017,0.047,0.033,0.071,0.05V73.366c-4.756-2.618-9.737-4.551-15.191-5.726   c1.196-0.053,2.38-0.087,3.535-0.085c4.406-0.001,8.425,0.356,11.656,0.782c0.706,0.094,1.375,0.189,2,0.287v5.895v16.835v7.104   c7.888,30.069,4.81,69.891,4.531,73.236c-0.036,2.037-1.511,3.67-4.531,4.976v47.605c0,7.131,5.781,12.909,12.91,12.909   c7.129,0,12.91-5.778,12.91-12.909V141.54h4.842v82.734c0,7.131,5.781,12.909,12.91,12.909s12.91-5.778,12.91-12.909v-40.846   c-1.153,0.829-2.562,1.32-4.078,1.32c-0.26,0-0.527-0.015-0.791-0.042c-3.844-0.442-6.607-3.917-6.17-7.749   c1.695-14.872,5.405-26.589,11.039-34.918v-8.568v-19.777V79.932c0.564,0.9,1.141,1.86,1.729,2.933   c2.762,5.07,5.663,12.194,8.183,22.026c2.396-5.542,7.501-9.631,13.636-10.628c-3.023-9.874-6.511-17.314-10.057-22.967   c-6.56-10.554-13.603-14.637-17.228-16.043c-1.252-0.799-2.734-1.268-4.33-1.268h-39.769c-1.039-0.24-2.75-0.603-4.972-0.976   c-3.594-0.604-8.549-1.229-14.322-1.404c-3.672,7.578-11.341,12.557-20.071,12.557c-1.703,0-3.414-0.198-5.087-0.586   c-3.937-0.917-7.384-2.833-10.147-5.411c-9.979,4.719-19.443,12.856-25.474,25.331c-0.578,1.185-0.83,2.443-0.802,3.676   c0.767,0.215,1.521,0.461,2.247,0.765C45.92,88.198,46.531,88.489,47.122,88.812z"/><path d="M102.388,51.563c0.868-1.586,1.554-3.304,1.984-5.151c2.55-10.953-4.262-21.899-15.213-24.449   c-10.952-2.55-21.899,4.261-24.45,15.214c-1.784,7.66,1.021,15.306,6.609,20.089c2.402,2.057,5.311,3.593,8.604,4.36   C89.027,63.746,98.112,59.384,102.388,51.563z"/><path d="M37.801,123.434c3.186,0,6.164-0.865,8.737-2.353c1.046-0.605,2.02-1.316,2.915-2.117c0.257-0.229,0.518-0.455,0.761-0.699   c0.912-0.918,1.709-1.945,2.401-3.045c1.692-2.694,2.687-5.871,2.687-9.287c0-3.354-0.96-6.475-2.595-9.137   c-0.389-0.634-0.808-1.246-1.273-1.823c-0.004-0.005-0.008-0.011-0.012-0.016c-1.487-1.843-3.339-3.377-5.449-4.493   c-0.594-0.314-1.212-0.587-1.844-0.833c-0.239-0.093-0.479-0.182-0.722-0.264c-1.762-0.596-3.642-0.934-5.605-0.934   c-9.666,0-17.5,7.834-17.5,17.5c0,6.697,3.765,12.51,9.292,15.452c0.591,0.315,1.208,0.587,1.837,0.834   C33.407,122.994,35.55,123.434,37.801,123.434z"/><path d="M5.671,184.125c0.111,0.006,0.223,0.009,0.333,0.009c3.163,0.001,5.812-2.475,5.986-5.67   c1.058-19.359,5.09-29.239,8.311-33.987v20.458v18v46c0,4.418,3.582,8,8,8c4.418,0,8-3.582,8-8v-41h3v41c0,4.418,3.582,8,8,8   c4.418,0,8-3.582,8-8v-46v-5.688v-2.128v-10.184v-20.431c0.262,0.387,0.527,0.793,0.801,1.247   c3.057,5.136,6.537,14.949,7.507,32.713c0.177,3.196,2.822,5.669,5.984,5.669c0.112,0,0.224-0.003,0.336-0.009   c3.309-0.18,5.845-3.012,5.662-6.32c-1.201-21.65-5.858-33.853-11.008-40.984c-5.123-7.154-10.868-8.674-12.132-8.797   c-0.4-0.059-0.793-0.061-1.181-0.039c-0.108,0.006-0.219,0.004-0.326,0.016c-0.213-0.028-0.423-0.065-0.644-0.065h-1.018h-2.856   h-2.094H29.783H27.71h-2.409c-0.222,0-0.433,0.037-0.647,0.065c-0.491-0.052-0.995-0.051-1.507,0.023   c-1.264,0.122-7.008,1.642-12.131,8.796c-5.151,7.133-9.808,19.336-11.007,40.984C-0.174,181.112,2.361,183.942,5.671,184.125z"/><path d="M184.979,121.023c2.882,4.216,7.725,6.986,13.216,6.986c1.334,0,2.623-0.181,3.862-0.489   c0.663-0.165,1.309-0.367,1.936-0.611c5.968-2.324,10.202-8.111,10.202-14.9c0-8.837-7.162-16-16-16   c-0.097,0-0.191,0.013-0.287,0.015c-0.688,0.012-1.363,0.075-2.027,0.171c-6.61,0.961-11.909,5.946-13.312,12.403   c-0.239,1.1-0.373,2.239-0.373,3.411C182.195,115.353,183.224,118.456,184.979,121.023z"/><path d="M173.757,170.749c1.554-8.518,3.778-14.546,6.033-18.787c-2.273,13.091-4.846,30.561-4.846,42.553   c0,1.941,3.488,3.659,8,4.925v31.243c0,3.59,2.91,6.5,6.5,6.5c3.59,0,6.5-2.91,6.5-6.5v-29.087c0.795,0.046,1.551,0.071,2.25,0.071   s1.455-0.025,2.25-0.071v29.087c0,3.59,2.91,6.5,6.5,6.5c3.59,0,6.5-2.91,6.5-6.5V199.44c4.512-1.267,8-2.985,8-4.925   c0-11.996-2.576-29.473-4.848-42.565c2.869,5.4,5.703,13.704,7.148,26.366c0.291,2.551,2.455,4.434,4.965,4.434   c0.188,0,0.379-0.011,0.57-0.033c2.742-0.313,4.715-2.792,4.402-5.533c-2.199-19.297-7.561-30.493-12.895-36.959   c-4.787-5.833-9.475-7.6-10.994-8.015c-1.281-0.426-3.02-0.833-5.303-1.109c-0.636-0.077-1.309-0.145-2.034-0.198   c-1.276-0.094-2.683-0.152-4.263-0.152c-5.693,0-9.316,0.703-11.584,1.454c-0.029,0.008-0.067,0.02-0.099,0.029   c-0.437,0.124-1.099,0.351-1.931,0.731c-2.199,1.006-5.562,3.092-8.984,7.26c-0.614,0.745-1.23,1.562-1.84,2.438   c-0.675,0.968-1.343,2.018-2,3.159c-3.907,6.787-7.387,16.748-9.053,31.363c-0.312,2.743,1.658,5.22,4.4,5.533   c0.193,0.022,0.385,0.033,0.574,0.033c1.664,0.001,3.163-0.839,4.078-2.143c0.464-0.661,0.787-1.433,0.885-2.291   C172.954,175.592,173.332,173.082,173.757,170.749z"/></g><text x="0" y="252.183" fill="#000000" font-size="5px" font-weight="bold" font-family="'Helvetica Neue', Helvetica, Arial-Unicode, Arial, Sans-serif">Created by Gan Khoon Lay</text><text x="0" y="257.183" fill="#000000" font-size="5px" font-weight="bold" font-family="'Helvetica Neue', Helvetica, Arial-Unicode, Arial, Sans-serif">from the Noun Project</text></svg>