<svg xmlns="http://www.w3.org/2000/svg" xmlns:xlink="http://www.w3.org/1999/xlink" version="1.1" x="0px" y="0px" viewBox="0 0 64 80" style="enable-background:new 0 0 64 64;" xml:space="preserve"><g><rect x="45" y="15" width="2" height="2"/><rect x="53" y="23" width="2" height="2"/><rect x="53" y="31" width="2" height="2"/><rect x="53" y="15" width="2" height="2"/><path d="M41,11v26h18V11H41z M49,35h-6v-6h6V35z M49,27h-6v-6h6V27z M49,19h-6v-6h6V19z M57,35h-6v-6h6V35z M57,27h-6v-6h6V27z    M57,19h-6v-6h6V19z"/><rect x="41" y="3" width="18" height="2"/><rect x="39" y="7" width="22" height="2"/><rect x="45" y="31" width="2" height="2"/><rect x="45" y="23" width="2" height="2"/><rect x="15" y="29" width="4" height="8"/><path d="M32,43c-4.962,0-9,4.038-9,9s4.038,9,9,9s9-4.038,9-9S36.962,43,32,43z M32,51c1.654,0,3,1.346,3,3   c0,1.302-0.839,2.402-2,2.816V59h-2v-2.184c-1.161-0.414-2-1.514-2-2.816h2c0,0.551,0.449,1,1,1s1-0.449,1-1s-0.449-1-1-1   c-1.654,0-3-1.346-3-3c0-1.302,0.839-2.402,2-2.816V45h2v2.184c1.161,0.414,2,1.514,2,2.816h-2c0-0.551-0.449-1-1-1s-1,0.449-1,1   S31.449,51,32,51z"/><path d="M60,39H4c-0.551,0-1,0.449-1,1v2c0,0.551,0.449,1,1,1h21.695c1.787-1.256,3.959-2,6.305-2s4.517,0.744,6.305,2H60   c0.551,0,1-0.449,1-1v-2C61,39.449,60.551,39,60,39z"/><rect x="3" y="21" width="28" height="2"/><polygon points="29,37 29,25 5,25 5,37 13,37 13,27 21,27 21,37  "/><polygon points="29,18.524 17,10.216 13,12.986 13,13 12.979,13 5,18.524 5,19 29,19  "/><polygon points="11,8 7,8 7,14.707 11,11.938  "/></g><text x="0" y="79" fill="#000000" font-size="5px" font-weight="bold" font-family="'Helvetica Neue', Helvetica, Arial-Unicode, Arial, Sans-serif">Created by Eucalyp</text><text x="0" y="84" fill="#000000" font-size="5px" font-weight="bold" font-family="'Helvetica Neue', Helvetica, Arial-Unicode, Arial, Sans-serif">from the Noun Project</text></svg>