<svg xmlns="http://www.w3.org/2000/svg" xmlns:xlink="http://www.w3.org/1999/xlink" version="1.1" x="0px" y="0px" viewBox="0 0 64 80" style="enable-background:new 0 0 64 64;" xml:space="preserve"><g><path d="M59,3H45c-1.103,0-2,0.897-2,2v10c0,1.103,0.897,2,2,2h1v4l6.277-4H59c1.103,0,2-0.897,2-2V5C61,3.897,60.103,3,59,3z    M49,11h-2V9h2V11z M53,11h-2V9h2V11z M57,11h-2V9h2V11z"/><path d="M5,22h6.723L18,26v-4h1c1.103,0,2-0.897,2-2V10c0-1.103-0.897-2-2-2H5c-1.103,0-2,0.897-2,2v10C3,21.103,3.897,22,5,22z    M15,14h2v2h-2V14z M11,14h2v2h-2V14z M7,14h2v2H7V14z"/><polygon points="35.919,24.204 35.329,24.086 33.688,25.726 35.332,26.548  "/><path d="M34,22.586V21.65C33.373,21.872,32.702,22,32,22s-1.373-0.128-2-0.35v0.936l2,2L34,22.586z"/><polygon points="28.081,24.204 28.668,26.548 30.312,25.726 28.671,24.086  "/><path d="M36,13c0-0.551-0.448-1-1-1h-6c-0.552,0-1,0.449-1,1v3c0,2.206,1.794,4,4,4s4-1.794,4-4V13z"/><path d="M38,16c0,0.255-0.021,0.504-0.052,0.75C38.571,16.411,39,15.758,39,15c0-0.737-0.405-1.375-1-1.722V16z"/><path d="M29,10h6c0.894,0,1.69,0.401,2.24,1.024c0.64,0.039,1.236,0.226,1.76,0.532V10c0-3.86-3.141-7-7-7s-7,3.14-7,7v1.556   c0.524-0.306,1.12-0.493,1.76-0.532C27.31,10.401,28.106,10,29,10z"/><path d="M26.052,16.75C26.021,16.504,26,16.255,26,16v-2.722c-0.595,0.347-1,0.985-1,1.722C25,15.758,25.429,16.411,26.052,16.75z"/><path d="M20,31h24v-2.721c0-1.425-1.015-2.662-2.412-2.942l-3.706-0.741l-1.213,4.856L32,27.118l-4.668,2.334l-1.213-4.856   l-3.706,0.741C21.015,25.617,20,26.854,20,28.279V31z"/><path d="M56,47v-2c0-2.206-1.794-4-4-4s-4,1.794-4,4v2c0,2.206,1.794,4,4,4S56,49.206,56,47z"/><path d="M50,52.65v1.074C50.248,54.107,50.937,55,52,55s1.752-0.893,2-1.276V52.65C53.373,52.872,52.702,53,52,53   S50.627,52.872,50,52.65z"/><path d="M48,53.246V51.46c-1.224-1.099-2-2.688-2-4.46v-2c0-1.771,0.776-3.36,2-4.46V33H16v7.54c1.224,1.099,2,2.688,2,4.46v2   c0,1.771-0.776,3.36-2,4.46v1.787l4.099,1.17c0.758,0.217,1.405,0.657,1.901,1.226c0.496-0.569,1.143-1.009,1.901-1.226L28,53.246   V51.46c-1.224-1.099-2-2.688-2-4.46v-2c0-3.309,2.691-6,6-6s6,2.691,6,6v2c0,1.771-0.776,3.36-2,4.46v1.787l4.099,1.17   c0.758,0.217,1.405,0.657,1.901,1.226c0.496-0.569,1.143-1.009,1.901-1.226L48,53.246z"/><path d="M36,47v-2c0-2.206-1.794-4-4-4s-4,1.794-4,4v2c0,2.206,1.794,4,4,4S36,49.206,36,47z"/><path d="M59.55,56.34l-4.12-1.177C54.85,55.919,53.721,57,52,57s-2.85-1.081-3.43-1.838l-4.12,1.177   C43.597,56.584,43,57.374,43,58.263V61h18v-2.737C61,57.374,60.403,56.584,59.55,56.34z"/><path d="M30,52.65v1.074C30.248,54.107,30.937,55,32,55s1.752-0.893,2-1.276V52.65C33.373,52.872,32.702,53,32,53   S30.627,52.872,30,52.65z"/><path d="M16,47v-2c0-2.206-1.794-4-4-4s-4,1.794-4,4v2c0,2.206,1.794,4,4,4S16,49.206,16,47z"/><path d="M10,52.65v1.074C10.248,54.107,10.937,55,12,55s1.752-0.893,2-1.276V52.65C13.373,52.872,12.702,53,12,53   S10.627,52.872,10,52.65z"/><path d="M19.55,56.34l-4.12-1.177C14.85,55.919,13.721,57,12,57s-2.85-1.081-3.43-1.838L4.45,56.34C3.597,56.584,3,57.374,3,58.263   V61h18v-2.737C21,57.374,20.403,56.584,19.55,56.34z"/><path d="M39.55,56.34l-4.12-1.177C34.85,55.919,33.721,57,32,57s-2.85-1.081-3.43-1.838l-4.12,1.177   C23.597,56.584,23,57.374,23,58.263V61h18v-2.737C41,57.374,40.403,56.584,39.55,56.34z"/></g><text x="0" y="79" fill="#000000" font-size="5px" font-weight="bold" font-family="'Helvetica Neue', Helvetica, Arial-Unicode, Arial, Sans-serif">Created by Eucalyp</text><text x="0" y="84" fill="#000000" font-size="5px" font-weight="bold" font-family="'Helvetica Neue', Helvetica, Arial-Unicode, Arial, Sans-serif">from the Noun Project</text></svg>