<svg xmlns="http://www.w3.org/2000/svg" xmlns:xlink="http://www.w3.org/1999/xlink" version="1.1" x="0px" y="0px" viewBox="0 0 1024 960" enable-background="new 0 0 1024 768" xml:space="preserve"><path fill="#000000" d="M841.754,83.815c0-17.946-14.526-32.636-32.499-32.636h-62.142c-17.933,0-32.471,14.69-32.471,32.636V95.96  l127.111,96.677V83.815z"/><path fill="#000000" d="M952.805,319.625L557.001,18.515l-1.614-1.012c-9.464-6.621-20.394-10.041-31.938-10.041  c-11.299,0-22.021,3.393-31.228,9.685l-1.968,1.259L155.958,272.599l-61.824,47.026c-12.448,9.411-14.813,27.274-5.376,39.639  c5.623,7.304,14.047,11.162,22.569,11.162c5.977,0,11.97-1.86,17.084-5.772l81.274-61.769L511.522,73.527l0.138-0.189  c3.445-2.518,7.507-3.749,11.789-3.749c4.377,0,8.425,1.231,12.008,3.749l0.439,0.3l382.66,290.852  c5.114,4.021,11.159,5.91,17.193,5.91c8.467,0,16.837-3.858,22.473-11.136C967.619,346.899,965.211,329.036,952.805,319.625z"/><g><path fill="#000000" d="M252.692,652.223c19.024-14.772,46.763-47.462,95.389-89.591c48.614-42.13,71.428-67.16,81.112-66.229   c3.268,0.3,11.257,4.648,11.257,4.648l66.435-64.807v-12.965c0,0,12.242-11.872,21.968-29.71   c9.711-17.809,13.69-30.255-12.242-57.804s-84.272-30.804-84.272-30.804l-9.726-22.677c0,0,66.328-31.814,150.721,12.965   c79.399,42.129,103.161,85.734,106.252,94.82c2.419,7.109-11.108,42.812,19.229,50.415c8.453,2.135,18.63-2.953,18.63-2.953   l37.876,37.587c0,0-11.845,22.677-29.668,43.031c-17.836,20.297-40.529,20.162-40.529,20.162l-34.019-30.776   c0,0,3.244-11.353,0-29.162c-3.24-17.836-51.854-17.836-69.688-12.966c-17.809,4.87-34.019,19.422-34.019,19.422l-8.602-4.869   l-64.331,66.477c0,0,11.448,4.759,1.726,17.727c-9.726,12.968-55.055,65.628-101.437,110.3   c-29.354,28.232-73.371,68.035-79.319,71.511c-2.382,1.393-5.349,4.048-5.171,4.048h72.384h80.454h177.516h38.409h107.25   c46.108,0,83.859-37.614,83.859-83.848V455.778V395.84c0-7.661-3.748-14.856-9.89-19.34L540.696,148.65l-0.464-0.275   c-3.583-2.408-7.606-3.802-11.996-3.802c-4.296,0-8.355,1.394-11.805,3.802l-0.272,0.109L277.352,330.076L216.294,376.5   c-6.185,4.484-9.905,11.679-9.905,19.34v299.003"/></g><text x="0" y="783" fill="#000000" font-size="5px" font-weight="bold" font-family="'Helvetica Neue', Helvetica, Arial-Unicode, Arial, Sans-serif">Created by kate t</text><text x="0" y="788" fill="#000000" font-size="5px" font-weight="bold" font-family="'Helvetica Neue', Helvetica, Arial-Unicode, Arial, Sans-serif">from the Noun Project</text></svg>