<svg xmlns="http://www.w3.org/2000/svg" xmlns:xlink="http://www.w3.org/1999/xlink" version="1.1" x="0px" y="0px" viewBox="0 0 100 125" style="enable-background:new 0 0 100 100;" xml:space="preserve"><path d="M50,5C25.187,5,5,25.187,5,50s20.187,45,45,45s45-20.187,45-45S74.813,5,50,5z M50,93C26.29,93,7,73.71,7,50S26.29,7,50,7  s43,19.29,43,43S73.71,93,50,93z"/><path d="M41.25,47.46c1.943-0.2,3.408-1.825,3.408-3.78v-0.26c0-3.775-2.616-6.942-6.128-7.806c1.969-0.771,3.372-2.679,3.372-4.918  c0-2.917-2.374-5.291-5.291-5.291s-5.291,2.374-5.291,5.291c0,2.239,1.403,4.146,3.372,4.918c-3.512,0.864-6.128,4.031-6.128,7.806  v0.26c0,1.955,1.465,3.58,3.407,3.78c0.034,0.003,0.068,0.005,0.103,0.005h9.073C41.182,47.465,41.216,47.463,41.25,47.46z   M33.32,30.696c0-1.814,1.477-3.291,3.291-3.291s3.291,1.477,3.291,3.291s-1.477,3.291-3.291,3.291S33.32,32.511,33.32,30.696z   M32.131,45.465c-0.896-0.115-1.566-0.874-1.566-1.785v-0.26c0-3.334,2.713-6.047,6.047-6.047s6.047,2.713,6.047,6.047v0.26  c0,0.911-0.671,1.67-1.567,1.785H32.131z"/><path d="M79.392,30.012c-0.532-0.462-0.87-0.753-1.08-0.902c0,0,0,0,0,0c0,0,0-0.001-0.001-0.001l-4.181-2.966  c-2.383-1.676-5.757-1.106-7.521,1.268c-2.199,2.965-4.506,5.905-6.856,8.741c-1.886,2.277-1.632,5.689,0.57,7.609  c0.532,0.462,1.283,1.141,2.037,1.823c0.782,0.707,1.567,1.418,2.122,1.897c0.189,0.162,0.303,0.396,0.32,0.659  c0.021,0.306-0.085,0.607-0.3,0.85c-5.981,6.778-8.915,9.711-15.691,15.691c-0.243,0.214-0.549,0.309-0.849,0.3  c-0.263-0.018-0.497-0.132-0.662-0.322c-0.474-0.548-1.175-1.323-1.876-2.098c-0.689-0.763-1.379-1.525-1.849-2.068  c-1.918-2.195-5.324-2.449-7.6-0.565c-2.845,2.356-5.784,4.662-8.736,6.853c-2.377,1.767-2.946,5.144-1.266,7.532l2.96,4.172  c0.149,0.211,0.44,0.55,0.903,1.082c0.332,0.382,0.666,0.763,0.788,0.935c1.309,1.857,3.419,2.871,5.663,2.871  c1.014,0,2.055-0.207,3.062-0.637c20.745-8.736,34.476-22.467,43.208-43.205c1.382-3.239,0.465-6.828-2.229-8.728  C80.155,30.68,79.773,30.344,79.392,30.012z M80.716,38.75c-8.519,20.23-21.909,33.621-42.146,42.144  c-2.361,1.007-4.957,0.374-6.311-1.546c-0.15-0.213-0.445-0.555-0.912-1.093c-0.329-0.379-0.66-0.755-0.782-0.927l-2.957-4.169  c-1.061-1.507-0.69-3.648,0.824-4.773c2.98-2.211,5.947-4.538,8.819-6.918c1.447-1.199,3.608-1.047,4.814,0.337  c0.474,0.548,1.175,1.323,1.876,2.098c0.689,0.763,1.379,1.525,1.846,2.064c0.516,0.598,1.24,0.956,2.041,1.01  c0.836,0.054,1.661-0.227,2.307-0.796c6.852-6.047,9.817-9.013,15.867-15.866c0.57-0.646,0.853-1.467,0.796-2.31  c-0.055-0.801-0.413-1.524-1.009-2.038c-0.545-0.471-1.317-1.17-2.088-1.866c-0.766-0.692-1.528-1.383-2.067-1.85  c-1.389-1.211-1.542-3.375-0.342-4.824c2.373-2.862,4.702-5.832,6.922-8.824c1.123-1.513,3.263-1.881,4.762-0.826l4.177,2.963  c0,0,0,0,0.001,0c0.172,0.124,0.548,0.454,0.927,0.782c0.537,0.468,0.879,0.762,1.094,0.914  C81.092,33.788,81.727,36.382,80.716,38.75z"/><path d="M54.391,36.435c0-9.804-7.976-17.779-17.779-17.779s-17.78,7.976-17.78,17.779s7.977,17.78,17.78,17.78  S54.391,46.238,54.391,36.435z M20.831,36.435c0-8.701,7.079-15.779,15.78-15.779s15.779,7.078,15.779,15.779  s-7.078,15.78-15.779,15.78S20.831,45.136,20.831,36.435z"/><text x="0" y="115" fill="#000000" font-size="5px" font-weight="bold" font-family="'Helvetica Neue', Helvetica, Arial-Unicode, Arial, Sans-serif">Created by Maxim Kulikov</text><text x="0" y="120" fill="#000000" font-size="5px" font-weight="bold" font-family="'Helvetica Neue', Helvetica, Arial-Unicode, Arial, Sans-serif">from the Noun Project</text></svg>