<svg xmlns="http://www.w3.org/2000/svg" viewBox="0 0 100 125" x="0px" y="0px"><title>victim-sad-sadness-girl-alone-leave-depression</title><g><path d="M34.4,90.529a15.153,15.153,0,0,0-1.7.538c-5.759,2.221-5.848,6.686-5.849,6.875a.8.8,0,0,0,.8.8h.033l10.921-.451,9.555-.032,3.913-.24a.8.8,0,0,0,.456-.179,4.142,4.142,0,0,0,1.389-2.825,4.389,4.389,0,0,0-.584-2.336,19.75,19.75,0,0,0,4.572.586,10.8,10.8,0,0,0,5.646-1.407,8.884,8.884,0,0,0,3.8-5.069H71.98a.8.8,0,1,0,0-1.6H67.768a17.384,17.384,0,0,0,.294-2.088v0c.069-.676,1.124-11.806-3.312-22.193a13.147,13.147,0,0,0-2.7-3.986L56.005,29.246a22.181,22.181,0,0,0-2.438-6.054,12.4,12.4,0,0,0-10.126-6.417,18.185,18.185,0,0,0-6.148.477A15.713,15.713,0,0,0,25.287,35.9l1.942,24.844a17.433,17.433,0,0,0-2.293,5.882,29.682,29.682,0,0,0-.549,5.337A5.65,5.65,0,0,0,25.5,75.931a7.808,7.808,0,0,0,5.477,2.654c.485,2.366,1.09,4.652,1.669,6.607h-22.3a.8.8,0,0,0,0,1.6H33.139C33.686,88.53,34.155,89.855,34.4,90.529ZM32.645,78.737c1.41.1,2.493.125,3.251.125.533,0,.889-.013,1.112-.024a4.478,4.478,0,0,0,2.355.657,5.932,5.932,0,0,0,1.7-.272c.658,5.487,1.359,10.733,1.484,11.658-.36.161-.7.328-1.008.5-.018-.017-.027-.041-.047-.057a7.51,7.51,0,0,0-5.5-1.1A88.805,88.805,0,0,1,32.645,78.737ZM31.742,73c-.031-.349-.065-.7-.088-1.043v0l0-.007,0-.044h0a24.2,24.2,0,0,1,.006-3.089c.006-.087.008-.18.015-.265,0-.03.008-.056.01-.086.028-.3.061-.595.1-.876a5.006,5.006,0,0,1,2.287-3.755c.034-.021.073-.036.107-.057a6.032,6.032,0,0,1,.76-.388c.113-.048.231-.088.347-.13.2-.074.407-.142.618-.2.128-.035.257-.068.387-.1.22-.05.443-.091.669-.126.119-.019.236-.041.356-.056.334-.041.672-.071,1.01-.087.085,0,.17,0,.255,0,.266-.007.532-.01.8,0,.138,0,.274.009.411.015.211.009.421.021.628.036l.408.034q.316.031.619.069c.113.014.229.026.338.041.293.04.576.084.842.13l.04.008a5.616,5.616,0,0,0-2.851,5.621l.15,1.272a6.065,6.065,0,0,0-3.174.949A4.218,4.218,0,0,0,35.051,72.9,9.337,9.337,0,0,1,31.742,73ZM41.4,77.393a3.615,3.615,0,0,1-3.735-.02h0a3.383,3.383,0,0,1-1.347-2.833,2.738,2.738,0,0,1,1.3-2.31A4.108,4.108,0,0,1,40.7,71.6h0a4.7,4.7,0,0,1,2.483,1.67c.011.015.029.02.041.035a.781.781,0,0,0,.212.185.706.706,0,0,0,.065.04.774.774,0,0,0,.337.084.656.656,0,0,0,.076,0l9.132-.862L53.162,76,43.836,76a.8.8,0,0,0-.5.173A9.326,9.326,0,0,1,41.4,77.393Zm12.02-6.371a.759.759,0,0,0-.128.095l-9.107.86a6.364,6.364,0,0,0-2.577-1.764L41.4,68.452h0c-.33-2.816,1.919-4.358,4.134-4.862h.007a7.275,7.275,0,0,1,4.78.424,19.058,19.058,0,0,1,4.7,3.674c.232.232.464.47.7.71A7.148,7.148,0,0,1,53.421,71.022ZM33.283,92.56c3.763-1.451,6.012-.649,6.839-.211a7.537,7.537,0,0,0-2.728,4.394l-8.791.363C28.924,95.938,29.958,93.842,33.283,92.56Zm18.4,3.883-3.568.22-9.074.029c.31-1.16,1.33-3.287,4.691-4.583a11.176,11.176,0,0,1,4.011-.829,5.486,5.486,0,0,1,3.163.821,3.961,3.961,0,0,1,1.422,2.817A2.5,2.5,0,0,1,51.683,96.443Zm11.049-5.952c-4.509,2.741-11.646-.17-11.925-.286.33-1.491,1.291-6.234.893-9.257a.8.8,0,1,0-1.586.208c.357,2.711-.543,7.2-.861,8.661a10.883,10.883,0,0,0-5.172.477c-.212-1.59-.875-6.6-1.486-11.727a11.13,11.13,0,0,0,1.516-.965l9.706-.007a9.487,9.487,0,0,0,5.465.429A9.361,9.361,0,0,0,62.291,76.7c1.6,2.342,3.03,4.671,4.149,6.527C66.123,86.734,64.881,89.184,62.732,90.491Zm-33.964-65.5A14.069,14.069,0,0,1,37.686,18.8a16.916,16.916,0,0,1,5.653-.429,10.711,10.711,0,0,1,8.829,5.6,20.684,20.684,0,0,1,2.274,5.618l5.6,25.623A21.41,21.41,0,0,0,52.612,51.9a11.613,11.613,0,0,0,1.05-5.113c0-.264-.015-.527-.039-.8l-.039-.431a3.929,3.929,0,0,0-.82-7.793c-.048-.241-.106-.494-.152-.725C52.281,35.332,52,33.857,51,32.834a6.521,6.521,0,0,0-2.32-1.455,7.3,7.3,0,0,1-3.945-3.529.811.811,0,0,0-.724-.387.8.8,0,0,0-.684.454c-3.164,6.626-13.45,5.838-13.553,5.829a.8.8,0,0,0-.865.869l.472,5.258a3.908,3.908,0,0,0-2.1,1.119l-.412-5.269a.781.781,0,0,0-.016-.108A14.01,14.01,0,0,1,28.768,24.986ZM42.78,57.2a10.2,10.2,0,0,1-11.064-9.25L30.589,35.384c2.651.051,10.058-.307,13.519-5.592a8.433,8.433,0,0,0,3.94,3.055,5.027,5.027,0,0,1,1.806,1.1,7.067,7.067,0,0,1,1.188,3.4c.1.536.213,1.1.349,1.674l.638,7.113c.02.22.033.435.033.673A10.21,10.21,0,0,1,42.78,57.2Zm2.627,1.089a3.731,3.731,0,0,1-2.493,1.291,3.244,3.244,0,0,1-1.98-.778c.3.024.609.04.916.04q.534,0,1.073-.048A11.757,11.757,0,0,0,45.407,58.292Zm-16.721.551-.935-11.95a3.9,3.9,0,0,0,2.334.791l.037.412a11.713,11.713,0,0,0,3.487,7.358A12.824,12.824,0,0,0,28.686,58.843Zm1.232-12.765a2.35,2.35,0,0,1-.413-4.614Zm23.133-6.725a2.349,2.349,0,0,1,.413,4.613ZM26.511,66.907a15.628,15.628,0,0,1,2.2-5.5l0-.006a11.337,11.337,0,0,1,6.337-4.731,11.724,11.724,0,0,0,3.219,1.608c.52.757,2.207,2.907,4.621,2.907h.028c2.008-.014,3.9-1.508,5.621-4.426a11.893,11.893,0,0,0,3.277-3.391,19.052,19.052,0,0,1,8.938,4.522l0,0A11.591,11.591,0,0,1,63.28,61.54c3.074,7.2,3.391,14.961,3.316,18.867-.9-1.454-1.927-3.059-3.027-4.67a4.3,4.3,0,0,0,1.807-2.878.8.8,0,0,0-1.6-.095c-.053.9-1.291,1.826-1.721,2.081a.862.862,0,0,0-.071.063c-.02.016-.045.023-.063.04a7.045,7.045,0,0,1-2.989,1.515,8.257,8.257,0,0,1-4.162-.211l-.15-4.118a9.6,9.6,0,0,0,2.721-3.408c1.3-1.136,1.389-3.478,1.236-4.618A.8.8,0,1,0,57,64.32a5.4,5.4,0,0,1-.351,2.745c-.165-.17-.329-.344-.494-.509a20.5,20.5,0,0,0-5.109-3.972,8.856,8.856,0,0,0-5.654-.6l-.107-.029-.167-.046-.17-.043c-.086-.023-.168-.044-.27-.069l-.145-.034c-.406-.1-.911-.2-1.49-.309L42.8,61.41c-.153-.026-.314-.049-.475-.073l-.327-.049c-.159-.021-.323-.04-.488-.059-.125-.015-.249-.03-.377-.042-.164-.017-.331-.03-.5-.043-.137-.011-.274-.021-.413-.029-.168-.01-.338-.017-.509-.022-.146-.005-.291-.009-.439-.011-.171,0-.341,0-.513,0-.152,0-.3.008-.456.015-.17.008-.34.017-.51.03s-.312.029-.468.046-.334.037-.5.062-.316.053-.473.083-.324.059-.484.1-.315.083-.472.128-.307.083-.457.133-.318.122-.476.186c-.138.055-.28.105-.414.168-.184.086-.359.188-.534.289-.1.054-.2.1-.292.157a6.6,6.6,0,0,0-3.02,4.879c-.017.109-.025.229-.04.341-.026.2-.052.409-.071.622-.01.108-.016.221-.025.332-.017.241-.032.486-.042.739,0,.116-.007.234-.01.352q-.008.383-.005.785c0,.119,0,.238.005.36,0,.09,0,.174,0,.266H25.991C26.035,70.509,26.162,69.263,26.511,66.907Zm.274,8.067a3.992,3.992,0,0,1-.817-2.217h2.025c.03.036.068.077.1.116.016.019.029.034.047.053.08.087.173.179.278.274.023.021.048.041.072.062.092.08.193.161.3.242l.1.074a5.478,5.478,0,0,0,.467.294c.025.014.054.027.079.041.152.081.316.158.491.233.054.023.108.046.165.068a6.673,6.673,0,0,0,.688.231h0a8.4,8.4,0,0,0,2.2.273,12.186,12.186,0,0,0,1.737-.148,5.077,5.077,0,0,0,.711,2.688c-.887-.012-2.124-.061-3.717-.2C29.372,76.864,27.714,76.161,26.785,74.974Z"/><path d="M86.361,85.992a.8.8,0,0,0,.8.8h2.488a.8.8,0,1,0,0-1.6H87.161A.8.8,0,0,0,86.361,85.992Z"/><path d="M36.748,39.87a.8.8,0,1,0-1.591-.165.747.747,0,0,1-.294.562,3.32,3.32,0,0,1-2.086.269.8.8,0,0,0-.277,1.576,6.134,6.134,0,0,0,.993.079,3.93,3.93,0,0,0,2.332-.645A2.343,2.343,0,0,0,36.748,39.87Z"/><path d="M46.566,39.173a.744.744,0,0,1-.609.179,3.322,3.322,0,0,1-1.641-1.315.8.8,0,0,0-1.327.893,4.792,4.792,0,0,0,2.714,2,2.254,2.254,0,0,0,.374.03,2.364,2.364,0,0,0,1.473-.527.8.8,0,1,0-.984-1.261Z"/><path d="M45.176,52.491c-1.615-1.01-7.024-.271-8.092-.113a.8.8,0,0,0,.235,1.583c2.794-.415,6.269-.576,7.009-.113a.8.8,0,0,0,.848-1.357Z"/><path d="M39.347,50.617c.021,0,.043,0,.064,0a.8.8,0,0,0,.063-1.6c-.091-.007-.1-.029-.129-.068-.4-.634.1-3.062.812-4.931a.8.8,0,1,0-1.493-.573c-.3.771-1.718,4.7-.673,6.357A1.706,1.706,0,0,0,39.347,50.617Z"/><path d="M48.011,15.079a5.437,5.437,0,0,0,3.836,3.145l6.426,1.414-1.018,3.951a.8.8,0,0,0,1.29.812l3.409-2.866a.772.772,0,0,0,.142-.156.8.8,0,0,0,.208-.149l.6-.587,5.554,1.225a5.468,5.468,0,0,0,6.505-4.18v0a5.451,5.451,0,0,0-1.982-5.466,7.859,7.859,0,0,0,.626-1.745,7.624,7.624,0,0,0-5.789-9.042,7.544,7.544,0,0,0-7.2,2.273c-.081-.021-.161-.041-.238-.057a5.706,5.706,0,0,0-6.658,3.834,5.449,5.449,0,0,0-6.036,4.246A5.7,5.7,0,0,0,47.557,13a2.727,2.727,0,0,0,.024.372A5.385,5.385,0,0,0,48.011,15.079Zm13.071,5.128a.786.786,0,0,0-.157.1l-1.5,1.26.587-2.283.678-1.979a.8.8,0,0,0-.58-1.043l-1.374-.308,3.088-4.42,2.466.546-1.914,3.545a.8.8,0,0,0,.6,1.174l1.362.172L62.08,19.2c-.013.013-.021.029-.033.042l-.872.86A.742.742,0,0,0,61.082,20.207ZM49.245,12.066a3.846,3.846,0,0,1,1.7-2.434,3.806,3.806,0,0,1,2.9-.5l.3.064a.809.809,0,0,0,.631-.132.8.8,0,0,0,.328-.555c.008-.061.019-.111.03-.162a4.106,4.106,0,0,1,4.9-3.133,3.234,3.234,0,0,1,.532.165.8.8,0,0,0,.927-.245,5.987,5.987,0,0,1,10.545,4.993,6.11,6.11,0,0,1-.8,1.913.8.8,0,0,0,.279,1.126A3.865,3.865,0,0,1,68.8,20.305l-4.535-1,2.383-2.345a.8.8,0,0,0-.46-1.364l-1.845-.234,1.863-3.45a.8.8,0,0,0-.531-1.162l-4.023-.89a.805.805,0,0,0-.829.324l-4.077,5.835a.8.8,0,0,0,.481,1.239l1.662.372-.163.47-6.53-1.437a3.848,3.848,0,0,1-2.714-2.222,3.957,3.957,0,0,1-.31-1.26,1.509,1.509,0,0,1-.011-.21A4.058,4.058,0,0,1,49.245,12.066Z"/><path d="M68.217,25.343l.331-1.565a.8.8,0,0,0-1.566-.331l-.33,1.566a.8.8,0,0,0,.617.948.858.858,0,0,0,.166.017A.8.8,0,0,0,68.217,25.343Z"/><path d="M67.029,27.1a.8.8,0,0,0-.949.617l-.33,1.566a.8.8,0,0,0,.618.948.78.78,0,0,0,.166.017.8.8,0,0,0,.782-.634l.33-1.566A.8.8,0,0,0,67.029,27.1Z"/><path d="M59.932,24.19l-.33,1.566a.8.8,0,0,0,.617.948.858.858,0,0,0,.166.017.8.8,0,0,0,.782-.635l.331-1.565a.8.8,0,0,0-1.566-.331Z"/><path d="M57.672,30.027l-.33,1.565a.8.8,0,1,0,1.565.331l.331-1.565a.8.8,0,1,0-1.566-.331Z"/><path d="M53.373,20.245l-.331,1.566a.8.8,0,0,0,.618.948.786.786,0,0,0,.166.017.8.8,0,0,0,.782-.635l.33-1.565a.8.8,0,1,0-1.565-.331Z"/><path d="M72.973,80.044A6.979,6.979,0,0,0,75.6,85.5c-.36,3.612-.336,3.621.3,3.848a.8.8,0,0,0,.267.046.813.813,0,0,0,.558-.222c.279-.206,1.919-1.223,3.452-2.153a6.975,6.975,0,1,0-7.2-6.972Zm6.975-5.375a5.376,5.376,0,0,1,0,10.751.8.8,0,0,0-.415.115c-1.105.669-1.9,1.155-2.469,1.512.048-.535.106-1.152.165-1.741a.8.8,0,0,0-.327-.835,5.374,5.374,0,0,1,3.046-9.8Z"/><path d="M76.847,81.291a1.263,1.263,0,1,0-1.263-1.263A1.265,1.265,0,0,0,76.847,81.291Zm0-1.725a.463.463,0,1,1-.463.462A.463.463,0,0,1,76.847,79.566Z"/><path d="M79.948,81.291a1.263,1.263,0,1,0-1.263-1.263A1.264,1.264,0,0,0,79.948,81.291Zm0-1.725a.463.463,0,1,1-.463.462A.462.462,0,0,1,79.948,79.566Z"/><path d="M83.048,81.291a1.263,1.263,0,1,0-1.262-1.263A1.264,1.264,0,0,0,83.048,81.291Zm0-1.725a.463.463,0,1,1-.462.462A.462.462,0,0,1,83.048,79.566Z"/><path d="M69.141,90.845a2.2,2.2,0,0,0,0,4.4h9.794a2.2,2.2,0,0,0,0-4.4Zm10.391,2.2a.6.6,0,0,1-.6.6H69.141a.6.6,0,0,1,0-1.2h9.794A.6.6,0,0,1,79.532,93.043Z"/><path d="M43.69,43.41A1.472,1.472,0,1,0,45.5,44.446a1.439,1.439,0,0,0-.146-.351A1.293,1.293,0,0,0,43.69,43.41Z"/><path d="M34.04,43.51a1.472,1.472,0,1,0,1.806,1.036A1.439,1.439,0,0,0,35.7,44.2,1.293,1.293,0,0,0,34.04,43.51Z"/></g><text x="0" y="115" fill="#000000" font-size="5px" font-weight="bold" font-family="'Helvetica Neue', Helvetica, Arial-Unicode, Arial, Sans-serif">Created by DailyPM</text><text x="0" y="120" fill="#000000" font-size="5px" font-weight="bold" font-family="'Helvetica Neue', Helvetica, Arial-Unicode, Arial, Sans-serif">from the Noun Project</text></svg>