<svg xmlns="http://www.w3.org/2000/svg" xmlns:xlink="http://www.w3.org/1999/xlink" version="1.1" x="0px" y="0px" viewBox="0 0 188.124 296.72249999999997" style="enable-background:new 0 0 188.124 237.378;" xml:space="preserve"><g><path d="M5.468,88.974c1.232,0.542,2.421,0.768,3.551,0.768c4.544,0,8.132-3.662,9.674-5.235c1.924-1.964,4.068-4.497,6.336-7.211   L9.906,215.776l24.582,2.684l9.21-84.344l6.08,0.664l15.92,87.191l24.326-4.442L73.82,128.776l5.659-51.818   c0.547,0.765,1.086,1.529,1.604,2.264c2.963,4.204,6.385,9.051,10.736,14.075l2.333-11.306l2.246,0.991l-8.4,40.703l8.577,4.288   l-10.337,4.241l-1.32,6.397c-0.077,0.372-0.116,0.742-0.138,1.11c-0.573,2.652-0.266,5.481,1.002,8.029   c0.254,0.509,0.531,1.011,0.863,1.494l24.626,35.846l-12.736,35.776c-2.27,6.374,1.058,13.38,7.432,15.649   c1.357,0.483,2.744,0.713,4.108,0.713c5.035,0,9.755-3.129,11.54-8.145l14.834-41.667c1.317-3.7,0.781-7.808-1.443-11.045   l-11.698-17.027l25.129,23.783l-12.953,37.884c-2.189,6.402,1.226,13.366,7.628,15.555c1.313,0.449,2.649,0.662,3.964,0.662   c5.093,0,9.851-3.202,11.59-8.29l5.713-16.709l-7.137-8.921h10.187l6.737-19.703c1.552-4.538,0.313-9.564-3.17-12.86   l-14.037-13.285l-5.384,3.182l1.042-7.291l-10.924-10.339l-2.05-1.941l7.377-35.746l0.875-4.241   c7.777,12.704,17.731,32.679,21.27,56.087c0.6,3.963,4.01,6.805,7.9,6.805c0.397,0,0.801-0.03,1.205-0.091   c4.369-0.66,7.375-4.737,6.715-9.106c-5.218-34.521-22.574-61.807-30.754-73.094c-4.484,7.202-12.47,11.894-21.299,11.894   c-1.702,0-3.417-0.176-5.097-0.522c-13.044-2.692-21.635-15.114-19.771-28.125c-6.286-4.062-21.352-12.847-41.707-18.456   c-2.341,0.725-4.807,1.135-7.354,1.135c-1.657,0-3.328-0.167-4.966-0.496c-3.999-0.803-7.659-2.529-10.751-5.01   c-5.329-0.549-10.869-0.785-16.573-0.639c1.172,2.376,1.43,5.2,0.484,7.891c-3.162,8.998-5.248,15.439-6.611,20.048l-2.187-0.37   c1.533-5.208,3.774-12.018,6.723-20.408c1.465-4.168-0.728-8.735-4.896-10.2c-4.17-1.462-8.735,0.728-10.2,4.896   C6.638,52.965,4.17,60.539,2.529,66.349C1.299,70.703,0.532,74.07,0.2,76.555c0,0.003-0.001,0.006-0.002,0.01   C-0.854,84.444,2.483,87.662,5.468,88.974z M31.303,73.047l17.23,1.881l-0.434,3.976l-17.23-1.881L31.303,73.047z M74.939,81.835   l-17.23-1.881l0.434-3.976l17.23,1.881L74.939,81.835z M47.574,48.911l16.9,1.845c-0.579,5.306-9.471,9.454-9.471,9.454   S46.995,54.217,47.574,48.911z"/><path d="M146.578,125.975c3.474,0,6.673-2.281,7.683-5.786c1.225-4.245-1.225-8.679-5.471-9.903   c-0.11-0.032-0.215-0.066-0.325-0.098l-3.232,15.659C145.684,125.924,146.133,125.975,146.578,125.975z"/><path d="M9.317,221.17c-0.741,6.79,4.162,12.891,10.948,13.632c6.788,0.741,12.893-4.158,13.634-10.948l0.273-2.495l-24.582-2.684   L9.317,221.17z"/><path d="M66.66,227.233c1.227,6.719,7.668,11.168,14.383,9.941c6.717-1.227,11.17-7.664,9.943-14.383l-0.437-2.393l-24.326,4.442   L66.66,227.233z"/><path d="M77.635,9.933c-3.193-4.74-8.181-8.275-14.229-9.489C51.224-2.001,39.364,5.893,36.918,18.076   c-2.446,12.185,5.448,24.043,17.631,26.489c11.176,2.244,22.071-4.214,25.686-14.701c-1.969-0.501-4.024-1.136-6.115-1.905   c-10.942-4.023-18.761-10.196-17.75-13.936c0.813,3.692,9.033,8.055,19.627,10.182c7.994,1.605,15.247,1.517,19.259,0.049   c1.831-0.67,2.988-1.627,3.232-2.843c0.727-3.623-6.899-8.254-17.384-10.756c-0.749-0.179-1.51-0.348-2.286-0.504   C78.421,10.07,78.029,10.005,77.635,9.933z"/><ellipse transform="matrix(0.2021 -0.9794 0.9794 0.2021 38.984 184.7974)" cx="132.908" cy="68.473" rx="22.5" ry="22.5"/><path d="M188.001,41.851c-1.321-7.664-15.811-4.193-19.435,4.015C180.93,44.054,189.244,49.064,188.001,41.851z"/><path d="M166.833,30.043c-5.125-3.42-11.032,6.8-8.291,13.359C164.243,35.308,171.656,33.262,166.833,30.043z"/><path d="M167.298,58.882c8.651,0.353,13.668,4.831,13.747-0.24C181.129,53.255,170.819,53.759,167.298,58.882z"/></g><text x="0" y="252.378" fill="#000000" font-size="5px" font-weight="bold" font-family="'Helvetica Neue', Helvetica, Arial-Unicode, Arial, Sans-serif">Created by Gan Khoon Lay</text><text x="0" y="257.378" fill="#000000" font-size="5px" font-weight="bold" font-family="'Helvetica Neue', Helvetica, Arial-Unicode, Arial, Sans-serif">from the Noun Project</text></svg>