<svg xmlns:dc="http://purl.org/dc/elements/1.1/" xmlns:cc="http://creativecommons.org/ns#" xmlns:rdf="http://www.w3.org/1999/02/22-rdf-syntax-ns#" xmlns:svg="http://www.w3.org/2000/svg" xmlns="http://www.w3.org/2000/svg" xmlns:sodipodi="http://sodipodi.sourceforge.net/DTD/sodipodi-0.dtd" xmlns:inkscape="http://www.inkscape.org/namespaces/inkscape" viewBox="0 0 8.4666665 10.58333375" version="1.1" x="0px" y="0px"><g transform="translate(0,-288.53332)"><path style="" d="m 6.3300333,290.17546 a 0.84666673,0.84666673 0 1 0 -1.6933199,0 0.84666665,0.84666665 0 1 0 1.6933199,0 z" fill="#000000" stroke="none"/><path style="" d="m 3.0531421,290.8051 a 1.5875,1.5875 0 0 0 -1.0237259,2.80861 l -1.4448632,1.86242 a 0.2571251,0.2571251 0 0 0 0.073369,0.37982 l 0.5436394,0.31678 a 0.2571251,0.2571251 0 0 0 0.3668977,-0.12248 l 0.9100344,-2.17402 a 1.5875,1.5875 0 1 0 0.5746486,-3.07113 z m -0.043418,0.26096 a 1.3229167,1.3229167 0 0 1 1.3570214,1.32654 1.3229167,1.3229167 0 1 1 -2.6458333,0 1.3229167,1.3229167 0 0 1 1.2888119,-1.32654 z" fill="#000000" stroke="none"/><path style="" d="m 5.6723534,292.19422 0.3254899,-0.59769 a 5.186643,5.186643 0 0 0 -0.8596101,0 l 0.3254902,0.59769 -0.5165201,1.63249 h 1.24167 z" fill="#000000" stroke="none"/><path style="" d="m 4.7385833,291.64544 a 1.8520833,1.8520833 0 0 1 -0.5226299,2.18127 h 0.4537398 l 0.5077902,-1.60489 -0.32335,-0.59376 a 5.186643,5.186643 0 0 0 -0.1155501,0.0174 z" fill="#000000" stroke="none"/><path style="" d="m 7.4961134,292.24113 a 1.016,1.016 0 0 0 -0.64126,-0.50028 5.186643,5.186643 0 0 0 -0.57291,-0.11279 l -0.3233502,0.59376 0.5077902,1.60489 h 1.46983 a 3.6759044,3.6759044 0 0 0 -0.4401,-1.58558 z" fill="#000000" stroke="none"/><path style="" d="m 3.7812332,291.63342 a 1.15824,1.15824 0 0 0 -0.3381499,0.38573 4.1905312,4.1905312 0 0 0 -0.46749,1.42962 1.0583333,1.0583333 0 0 0 0.8056399,-1.81535 z" fill="#000000" stroke="none"/></g><text x="0" y="23.466667" fill="#000000" font-size="5px" font-weight="bold" font-family="'Helvetica Neue', Helvetica, Arial-Unicode, Arial, Sans-serif">Created by Pham Duy Phuong Hung</text><text x="0" y="28.466667" fill="#000000" font-size="5px" font-weight="bold" font-family="'Helvetica Neue', Helvetica, Arial-Unicode, Arial, Sans-serif">from the Noun Project</text></svg>