<svg xmlns="http://www.w3.org/2000/svg" xmlns:xlink="http://www.w3.org/1999/xlink" version="1.1" x="0px" y="0px" viewBox="0 0 52 65" enable-background="new 0 0 52 52" xml:space="preserve"><g><path d="M17.1,6c-0.2,2-1.3,4.5-2.9,5.9h15.6c1.3,0,2.3,1,2.3,2.3V16c0,1.3-1,2.3-2.3,2.3H20c-0.4,0-0.7,0.3-0.7,0.7v8.2H49V6H17.1   z M29.8,13.9H6c-1.6,0-3,1.3-3,3v12.3c0,0.2,0.1,0.3,0.3,0.3h2.2V22c0-0.5,0.4-1,1-1c0.5,0,1,0.5,1,1v8.3C8.3,30.1,9.1,30,10,30   c2.8,0,5.3,1,7.3,2.7V19c0-1.5,1.2-2.7,2.7-2.7h9.8c0.2,0,0.3-0.1,0.3-0.3v-1.8C30.1,14,29.9,13.9,29.8,13.9z M11.7,2   C9.7,2,8.2,3.6,8.2,5.6c0,2.2,1.8,5.3,3.5,5.3c1.7,0,3.5-3.1,3.5-5.3C15.2,3.6,13.6,2,11.7,2z"/><path d="M10,32c-5,0-9,4-9,9c0,2,0.6,3.8,1.7,5.3C4.4,48.5,7,50,10,50c2.7,0,5.1-1.2,6.7-3c1.4-1.6,2.3-3.7,2.3-6   C19,36,15,32,10,32z M10,48c-2.4,0-4.5-1.2-5.8-3.1c0.4-0.4,0.6-0.6,0.7-0.7L5,44.2l0,0c0,0,0,0,0.1,0c0.9-0.8,2.1-1.4,3.3-1.7   c-0.9-0.6-1.6-1.6-1.6-2.8c0-1.8,1.4-3.2,3.2-3.2c1.8,0,3.2,1.5,3.2,3.2c0,1.2-0.6,2.2-1.6,2.8c2,0.5,3.3,1.4,4.1,2.5   C14.5,46.8,12.4,48,10,48z"/><path d="M26,32c-2.7,0-5.1,1.2-6.8,3c1.1,1.7,1.8,3.8,1.8,6c0,1.3-0.2,2.6-0.7,3.8c0.3-0.3,0.5-0.5,0.6-0.6l0,0c0,0,0,0,0.1,0   c0.9-0.8,2.1-1.4,3.3-1.7c-0.9-0.6-1.6-1.6-1.6-2.8c0-1.8,1.4-3.2,3.2-3.2c1.8,0,3.2,1.5,3.2,3.2c0,1.2-0.6,2.2-1.6,2.8   c2,0.5,3.3,1.4,4.1,2.5c-1.3,1.8-3.4,3-5.8,3s-4.5-1.2-5.8-3c-0.3,0.7-0.6,1.3-1,1.9c1.6,1.9,4.1,3.1,6.8,3.1c2.7,0,5.1-1.2,6.7-3   c1.4-1.6,2.3-3.7,2.3-6C35,36,31,32,26,32z"/><path d="M42,32c-2.7,0-5.1,1.2-6.8,3c1.1,1.7,1.8,3.8,1.8,6c0,1.3-0.2,2.6-0.7,3.8c0.3-0.3,0.5-0.5,0.6-0.6l0,0c0,0,0,0,0.1,0   c0.9-0.8,2.1-1.4,3.3-1.7c-0.9-0.6-1.6-1.6-1.6-2.8c0-1.8,1.4-3.2,3.2-3.2c1.8,0,3.2,1.5,3.2,3.2c0,1.2-0.6,2.2-1.6,2.8   c2,0.5,3.3,1.4,4.1,2.5c-1.3,1.8-3.4,3-5.8,3s-4.5-1.2-5.8-3c-0.3,0.7-0.6,1.3-1,1.9c1.6,1.9,4.1,3.1,6.8,3.1c2.7,0,5.1-1.2,6.7-3   c1.4-1.6,2.3-3.7,2.3-6C51,36,47,32,42,32z"/></g><text x="0" y="67" fill="#000000" font-size="5px" font-weight="bold" font-family="'Helvetica Neue', Helvetica, Arial-Unicode, Arial, Sans-serif">Created by Vectors Point</text><text x="0" y="72" fill="#000000" font-size="5px" font-weight="bold" font-family="'Helvetica Neue', Helvetica, Arial-Unicode, Arial, Sans-serif">from the Noun Project</text></svg>