<svg xmlns="http://www.w3.org/2000/svg" xmlns:xlink="http://www.w3.org/1999/xlink" version="1.1" x="0px" y="0px" viewBox="0 0 64 80" style="enable-background:new 0 0 64 64;" xml:space="preserve"><g><path d="M45.8003387,30.5581188c-0.6866035-1.6414566-1.6909103-3.0719223-2.9767761-4.1994915   c-1.6302223-1.7440186-4.8932648-2.6461506-7.2704735-3.0914612l-2.8293304,6.266222l-2.8248158-6.266222   c-2.0720978,0.3899326-4.8243523,1.1244698-6.5745697,2.462059c0.1813774,0.067997,0.3536797,0.1450977,0.5214424,0.2312489   c0.7798672,0.376318,1.514431,0.9430904,2.2398891,1.7229862c2.9245548,3.1784687,7.1957512,6.5428276,10.5918541,9.1182404   c0.0226631,0.013588,0.0408173,0.0317421,0.0589447,0.0498695c2.3577843,2.0540009,3.164856,5.3322105,2.0993309,8.2114067   c0.3355255-0.0770721,0.671051-0.1541481,1.0020676-0.2448349c-0.2312508-2.5618286,0.013588-5.1644478,0.7299957-7.6672974   c0.3068008-1.0695076,0.6500168-2.0961494,0.9953957-3.045742c2.4863014,3.5908165,3.393692,7.0131531,3.393692,7.0131531   c1.2831841,3.2736702-3.5457344,4.715538-6.7876625,5.3004646c-0.2040443,0.3355255-0.4443703,0.6619759-0.7073326,0.970295   c-0.4851608,0.557724-1.0474243,1.0383492-1.6686058,1.4237442c-1.219696,0.7662773-2.5935402,1.1426239-3.9628735,1.1426239   c-1.7048588,0-3.4006405-0.5849304-4.7835617-1.7366028c-0.1632233-0.1360207-0.2811165-0.3083229-0.3491402-0.5032883   c-0.1088161,0.0272026-0.2357597,0.0498695-0.3718071,0.0770721c0.3899612,1.2015724,1.7411404,1.8635445,2.9653759,2.2172241   c1.0836773,0.3128624,2.2172241,0.4126015,3.3462334,0.349144c3.8404427-0.2176628,16.1734352-1.2333145,17.0031967-5.3140831   C50.2574539,42.0160179,47.7545738,35.2101974,45.8003387,30.5581188z"/><path d="M26.6938515,46.6054688c0.50564-0.1240921,2.6284103-0.9706001,2.2704964-2.5463562   c-0.1496353-0.6588173-1.0066032-0.8660164-1.6096306-0.5667725c-0.4761105,0.2403259-1.1879539,0.4715729-2.0902805,0.3854218   c-0.2402973-0.0181274-0.3944721-0.2539139-0.3173714-0.4806213c0.1224041-0.3627319,0.9249649-0.9385796,1.0519352-1.3647957   c0,0,0.308321-1.7411385-2.6207733,0.8297653c-0.1405582,0.1224022-0.294733,0.2267075-0.4579563,0.3083191   c-0.7436142,0.5486183-2.1174583,0.1450996-2.1174583,0.1450996c-0.7345352-0.1360207-3.5729408-3.1149864-3.5729408-3.1149864   c-0.5486469,1.9406166-0.5259533,4.2711983,2.0902538,5.3594131   C23.3374081,47.2285309,25.9003677,46.8276672,26.6938515,46.6054688z"/><path d="M20.9031334,42.1067047c0.5531559,0.4126015,1.287693,0.1360207,1.3013077,0.1314812   c0.1586857-0.0272026,0.3128605-0.1042747,0.4352932-0.2130928c0.979372-0.8615074,1.9904861-1.6232452,2.8973236-1.6867294   c0.2992725-0.0226669,0.5894661,0.0317421,0.8615074,0.1859169c0.693716,0.3944702,0.8297634,1.1697998,0.7299957,1.7184448   c0,0-0.0317421,0.1405602-0.0362797,0.1450996c0.5531845-0.2040443,1.1607494-0.1995087,1.7048588,0.0181236   c0.5894375,0.2357864,1.0338078,0.6892052,1.2469006,1.2741051c0.3574429,0.759861-0.0900803,1.6787071-0.1088161,1.7366028   c-0.2799835,0.8652687-1.4702072,1.7768402-2.1628151,1.9315681c2.1492271,1.791008,5.1553936,1.9270287,7.4224873,0.5032883   c0.5168762-0.3219376,0.9929619-0.7254601,1.4101257-1.2060814c0.3581924-0.4126282,0.6574631-0.8615074,0.8886833-1.3285408   c1.2650566-2.5210075,0.7254868-5.672245-1.5008163-7.6128883c-4.1895828-3.1784706-8.025486-6.3025036-10.7414875-9.2497253   c-0.5486183-0.5940056-1.1743393-1.1244984-1.9043369-1.4781494c-0.3038101-0.1496353-0.6211796-0.2675285-0.9431171-0.3627567   c-0.5848999-0.1768131-1.1924934-0.2629642-1.800087-0.2629642c-1.7683163,0-3.5275822,0.7390747-4.7790232,2.176405   c-2.108407,2.416729-2.0539713,5.9851322,0,8.3338375c0.340064,0.3853951,1.1879549,1.3693314,1.2695665,1.4690704   C18.105547,39.5630341,19.4068565,40.8235245,20.9031334,42.1067047z M17.2848606,29.6739464   c1.1335468-1.2287464,2.8655815-1.5688114,4.330143-0.9884491c0.4352646,0.1723003,0.8524284,0.4262142,1.2151585,0.7662773   c1.4736099,1.3602562,2.5754147,4.4208336,1.573349,6.1347694c-0.0816116,0.1405563-0.1768112,0.2720375-0.2901669,0.3899307   c-1.4736099,1.5960426-5.0148087,0.7164116-6.6108513-0.7571983   C15.9109888,33.7502022,15.8112497,31.2654495,17.2848606,29.6739464z"/><path d="M32.7010956,51.4153748c-0.2357864,0.0136185-0.4715729,0.018158-0.7073612,0.018158   c-1.0564442,0-2.0720978-0.1360512-3.0197544-0.4126282c-2.516468-0.7299957-3.4641266-1.9859772-3.7679081-3.1059074   c-0.0408211,0-0.0816135,0.0045395-0.1224327,0.0045395c-0.1632233,0.671051-0.36273,1.3285141-0.5985165,1.9814377   c-1.0247021,2.8429146-2.3124237,7.6763725-1.8862095,13.253418h20.2542057   c0.3944702-5.218853-0.7027931-9.7847824-1.6912422-12.677597C38.4368248,50.9755745,35.4623985,51.2612305,32.7010956,51.4153748z   "/><path d="M30.5660648,21.9902382l0.5344486,1.1847992V21.711916c-0.0136147-0.0045109-0.022665-0.0045109-0.0362816-0.0090504   c-5.5968647-2.6430054-5.6677322-9.1817274-5.6677322-9.1817274c5.8944416-0.2267094,9.1817284-5.7810879,9.1817284-5.7810879   c1.0201912,3.5139952,4.5341873,4.8742504,4.5341873,4.8742504c2.1537361,2.6071577,0,3.6273499,0,3.6273499   s-1.1516762,4.955863-4.7608986,6.2934523v1.6366978l0.5330963-1.1815624l0.8753967,0.1633892   c2.5281181,0.4721279,4.5491028,1.1513424,6.0518265,2.0142879L40.971447,8.6534643   c-0.2403259-4.3800125-3.8585968-7.8078566-8.2476883-7.8078566c-4.3845768,0-8.0073872,3.427844-8.2431469,7.8078566   l-0.8445415,15.5157785c1.5030289-0.8635807,3.5249825-1.5432396,6.054594-2.0156155L30.5660648,21.9902382z"/></g><text x="0" y="79" fill="#000000" font-size="5px" font-weight="bold" font-family="'Helvetica Neue', Helvetica, Arial-Unicode, Arial, Sans-serif">Created by visual world</text><text x="0" y="84" fill="#000000" font-size="5px" font-weight="bold" font-family="'Helvetica Neue', Helvetica, Arial-Unicode, Arial, Sans-serif">from the Noun Project</text></svg>