<svg xmlns="http://www.w3.org/2000/svg" xmlns:xlink="http://www.w3.org/1999/xlink" version="1.1" x="0px" y="0px" viewBox="0 0 96 120" enable-background="new 0 0 96 96" xml:space="preserve"><path d="M90.041,4.75H7.311c-0.414,0-0.75,0.336-0.75,0.75v61.017C4.975,73.39,4.443,79.86,7.126,81.777  c1.719,1.228,4.711,2.268,8.015,3.117l-0.257,5.571c-0.01,0.204,0.065,0.404,0.207,0.552c0.142,0.148,0.337,0.232,0.542,0.232h32.79  c0.414,0,0.75-0.336,0.75-0.75V71.121c2.187,4.353,6.183,11.301,9.414,11.301c2.168,0,6.299-5.486,10.097-11.351h21.357  c0.414,0,0.75-0.336,0.75-0.75V5.5C90.791,5.086,90.455,4.75,90.041,4.75z M58.587,80.922c-2.53,0-7.157-8.236-9.479-13.429  c-0.145-0.323-0.495-0.505-0.841-0.427c-0.346,0.074-0.593,0.38-0.593,0.733v21.95H16.419l0.207-4.491  c6.719,1.579,14.111,2.402,14.593,2.455c0.062,0.006,0.125,0.006,0.188-0.003c4.456-0.636,6.594-1.721,6.729-3.415  c0.335-4.2-14.565-9.287-19.987-10.995V67.8c0-0.414-0.336-0.75-0.75-0.75s-0.75,0.336-0.75,0.75v6.053  c0,0.329,0.214,0.619,0.528,0.717c9.494,2.943,19.635,7.454,19.464,9.607c-0.017,0.214-0.356,1.311-5.352,2.036  c-0.932-0.106-8.583-1.007-15.108-2.603c-0.053-0.02-0.108-0.033-0.166-0.041c-3.34-0.825-6.367-1.834-8.017-3.013  c-4.494-3.21,3.852-28.365,6.513-32.801c1.142-1.903,6.417-3.682,11.04-4.884c0.001-0.001,0.002-0.001,0.003-0.001  c2.301-0.599,4.442-1.057,5.827-1.312c7.226-0.223,15.357,3.409,18.465,6.123c2.479,2.164,6.636,13.604,8.028,17.829  c0.095,0.289,0.355,0.492,0.659,0.514c0.31,0.026,0.59-0.143,0.725-0.414c7.618-15.326,13.627-14.369,14.113-14.261  c3.141,1.624,2.024,5.306,1.857,5.8c-2.46,4.454-5.141,8.962-7.64,12.838c-0.008,0.016-0.021,0.027-0.028,0.044  C63.511,76.312,59.945,80.922,58.587,80.922z M30.011,36.278c-5.428,0-9.844-4.416-9.844-9.844s4.416-9.844,9.844-9.844  s9.843,4.416,9.843,9.844S35.438,36.278,30.011,36.278z M27.205,37.413c0.899,0.229,1.836,0.365,2.806,0.365  c1.551,0,3.03-0.314,4.377-0.881l1.075,3.395c-1.389-0.184-2.793-0.274-4.187-0.23c-0.037,0.002-0.074,0.006-0.11,0.013  c-0.529,0.097-2.442,0.459-4.841,1.044L27.205,37.413z M89.291,69.571H69.645c3.157-4.994,5.933-9.949,6.928-11.751  c0.018-0.033,0.034-0.067,0.047-0.103c0.691-1.876,1.029-5.907-2.638-7.74c-0.03-0.015-0.062-0.028-0.093-0.039  c-0.101-0.034-0.97-0.302-2.404,0.013l0.726-19.854c0.015-0.414-0.308-0.762-0.722-0.776c-0.424-0.04-0.762,0.308-0.777,0.722  l-0.746,20.409c-2.771,1.195-6.771,4.449-11.238,12.907c-1.432-4.123-5.214-14.468-7.894-16.807  c-2.4-2.097-7.782-4.873-13.712-5.997l-1.377-4.349c3.351-1.974,5.611-5.61,5.611-9.772c0-6.255-5.088-11.344-11.343-11.344  S18.667,20.18,18.667,26.435c0,4.757,2.946,8.832,7.107,10.515l-1.089,4.585c-4.565,1.211-10.052,3.102-11.46,5.45  C12.373,48.405,10,54.281,8.061,60.847V6.25h81.23V69.571z"/><text x="0" y="111" fill="#000000" font-size="5px" font-weight="bold" font-family="'Helvetica Neue', Helvetica, Arial-Unicode, Arial, Sans-serif">Created by Viral faisalovers</text><text x="0" y="116" fill="#000000" font-size="5px" font-weight="bold" font-family="'Helvetica Neue', Helvetica, Arial-Unicode, Arial, Sans-serif">from the Noun Project</text></svg>