<svg xmlns="http://www.w3.org/2000/svg" xmlns:xlink="http://www.w3.org/1999/xlink" version="1.1" x="0px" y="0px" viewBox="0 0 96 120" enable-background="new 0 0 96 96" xml:space="preserve"><g><rect x="7.5825" y="22.2744" transform="matrix(0.617 0.7869 -0.7869 0.617 23.4698 3.0679)" width="2.0005" height="6.7468"/><rect x="81.4407" y="14.8317" width="2" height="6.3223"/><rect x="81.4407" y="10.2198" width="2" height="2.2471"/><rect x="91.3391" y="54.4454" width="2" height="32.4829"/><rect x="91.3391" y="45.1349" width="2" height="4.7622"/><rect x="2.6609" y="55.6813" width="2" height="31.2471"/><rect x="2.6609" y="45.1349" width="2" height="5.8115"/><rect x="23.6086" y="0.007" transform="matrix(0.6169 0.787 -0.787 0.6169 19.7265 -14.3551)" width="2.0002" height="26.1566"/><path d="M40.0222,56.3844c-0.22,2.05,0.24,3.86,1.32,5.1399c1.27,1.52,3.36,2.24,5.79,1.98c0.24-2.25-0.33-4.1799-1.63-5.48   C44.2022,56.7244,42.2822,56.1444,40.0222,56.3844z"/><path d="M54.7222,61.8644c1.3-1.3,1.8701-3.23,1.63-5.47c-2.43-0.26-4.52,0.45-5.79,1.97c-1.08,1.29-1.54,3.09-1.32,5.1399   C51.5022,63.7444,53.4222,63.1644,54.7222,61.8644z"/><g><path d="M48.1955,2.135l-44.13,34.8999h6.57V93.865h75.12V37.0349h6.54C50.8855,4.375,66.5855,16.6951,48.1955,2.135z     M71.5622,32.3444l1,1.74l-4.75,2.74l-1-1.73L71.5622,32.3444z M61.1122,22.6244l1.73,1l-2.75,4.75l-1.73-1L61.1122,22.6244z     M47.1922,19.4245h2v5.49h-2V19.4245z M35.2722,22.6244l2.74,4.75l-1.73,1l-2.7401-4.75L35.2722,22.6244z M20.6222,46.0043h5.48v2    h-5.48V46.0043z M24.8122,61.6544l-1-1.73l4.75-2.75l1,1.73L24.8122,61.6544z M28.5622,36.8244l-4.75-2.74l1-1.74l4.75,2.75    L28.5622,36.8244z M63.2722,58.3944c-5.54,8.32-4.56,14.7-4.91,17.6699h-1.84c0.4968,1.2589,0.191,2.5587-0.66,3.4399    c1.954,2.024,0.5205,5.4302-2.32,5.4302h-0.45c-1.0699,5.0469-8.3105,5.045-9.38,0h-0.88c-2.805,0-4.2902-3.3522-2.32-5.4302    c-0.8689-0.9161-1.1566-2.2365-0.65-3.4399h-1.87c-0.29-2.8899,0.59-9.8999-4.61-17.26c-8.9377-12.694,1.304-30.0914,16.8-28.4199    C63.5444,31.8076,70.796,47.0979,63.2722,58.3944z M71.5622,61.6544l-4.75-2.75l1-1.73l4.75,2.75L71.5622,61.6544z     M75.7622,48.0043h-5.49v-2h5.49V48.0043z"/><path d="M51.0022,84.9345h-5.21C46.732,87.3411,50.0938,87.3185,51.0022,84.9345z"/><path d="M53.5421,80.5043h-10.71c-0.67,0-1.22,0.55-1.22,1.2201s0.55,1.2101,1.22,1.2101h10.71c0.67,0,1.22-0.54,1.22-1.2101    S54.2122,80.5043,53.5421,80.5043z"/><path d="M53.5421,76.0644h-10.71c-0.67,0-1.22,0.55-1.22,1.22c0,0.67,0.55,1.22,1.22,1.22h10.71c0.67,0,1.22-0.5499,1.22-1.22    C54.7622,76.6144,54.2122,76.0644,53.5421,76.0644z"/><path d="M49.9721,32.3644c-13.9882-1.4833-22.8229,14.1417-14.95,25.28c4.78,6.79,4.9,13.71,4.86,16.4199h7.31v-8.5601    c-2.8919,0.2482-5.5852-0.5555-7.38-2.6899c-2.8593-3.4166-1.5319-7.9626-1.53-8.1699l0.68-0.1301    c3.2-0.5599,6.05,0.1901,7.95,2.0901c0.52,0.52,0.94,1.1,1.28,1.74c0.24-0.45,0.51-0.88,0.84-1.26    c3.2963-3.9343,8.8693-2.4338,9.0699-2.4399c-0.0023,0.3086,1.4557,5.2144-1.97,8.6399c-1.8515,1.8514-4.3414,2.443-6.94,2.22    v8.5601h7.31c-0.04-2.53,0.06-9.1899,5.11-16.78C68.3212,47.1887,61.7895,33.6327,49.9721,32.3644z"/></g><path d="M77.1922,9.4844v13.08c-2.86-2.26-5.17-4.08-7.06-5.58v-7.5H77.1922z"/></g><text x="0" y="111" fill="#000000" font-size="5px" font-weight="bold" font-family="'Helvetica Neue', Helvetica, Arial-Unicode, Arial, Sans-serif">Created by ProSymbols</text><text x="0" y="116" fill="#000000" font-size="5px" font-weight="bold" font-family="'Helvetica Neue', Helvetica, Arial-Unicode, Arial, Sans-serif">from the Noun Project</text></svg>