<svg xmlns="http://www.w3.org/2000/svg" xmlns:xlink="http://www.w3.org/1999/xlink" xml:space="preserve" version="1.1" shape-rendering="geometricPrecision" text-rendering="geometricPrecision" image-rendering="optimizeQuality" fill-rule="evenodd" clip-rule="evenodd" viewBox="0 0 10000000 12500000" x="0px" y="0px"><g><path fill="black" d="M8899558 5874968l-150710 0 -1062764 -2058678c150828,-16890 301302,-75119 435122,-133820 200789,-92127 242482,-359885 92008,-518981l-8268 -8385c-92126,-92009 -234332,-125553 -359884,-66851 -117285,50315 -284648,108662 -443508,108662 -428861,0 -640753,-448586 -1995724,-524532 161104,-119292 266577,-308860 273191,-525240 10394,-392247 -307443,-710439 -700045,-699809 -360593,10394 -646658,296695 -657525,657525 -6260,233033 103466,439964 275790,567288 -1357806,75473 -1569579,524768 -1998795,524768 -167482,0 -326460,-50197 -443508,-108662 -125552,-50316 -267758,-25158 -359884,66851l-8268 8385c-150828,159096 -108781,418468 92008,518981 133938,66851 284766,117284 435122,133820l-1062764 2058678 -150710 0c-66851,0 -117285,58583 -108663,125552 92127,535634 769849,945480 1598281,945480 828550,0 1506271,-409964 1598398,-945480 8268,-66851 -41811,-125552 -108662,-125552l-150828 0 -1062764 -2050174c694611,-58583 1062764,-409964 1598280,-409964l0 4066922c-292916,0 -535516,242600 -535516,535634l-594217 0c-234215,0 -476815,242600 -476815,535516l4284246 0c0,-292916 -242600,-535516 -594099,-535516l-477051 0c0,-293034 -242600,-535634 -535516,-535634l0 -4066922c535516,0 903669,351617 1598280,409964l-1062764 2050174 -150710 0c-66851,0 -117284,58583 -108662,125552 92127,535634 769849,945480 1598280,945480 828550,0 1506272,-409964 1598399,-945480 8267,-66851 -41812,-125552 -108663,-125552l-118 0zm-2292892 0l803274 -1506272 803392 1506272 -1606666 0zm-3213332 0l-1606548 0 803274 -1506272 803392 1506272 -118 0z"/></g><text x="0" y="10000015" fill="#000000" font-size="5px" font-weight="bold" font-family="'Helvetica Neue', Helvetica, Arial-Unicode, Arial, Sans-serif">Created by berkah terus</text><text x="0" y="10000020" fill="#000000" font-size="5px" font-weight="bold" font-family="'Helvetica Neue', Helvetica, Arial-Unicode, Arial, Sans-serif">from the Noun Project</text></svg>