<svg xmlns="http://www.w3.org/2000/svg" viewBox="0 0 64 80" x="0px" y="0px"><path d="M5.355,19.3a1,1,0,0,0,1.352-.057L7,18.947l3.293,3.293a1,1,0,0,0,1.414,0L13,20.947l4.783,4.783L17.1,27.1a4.072,4.072,0,0,0,5.157,5.6l3.119-1.247L24.628,29.6l-3.117,1.248A2.075,2.075,0,0,1,18.885,28l.687-1.374a2,2,0,0,0-.375-2.309l-4.783-4.783,1.293-1.293a1,1,0,0,0,0-1.414l-3.293-3.293.293-.293a1,1,0,0,0,.02-1.394l-9-9.533A1,1,0,0,0,2,3V16a1,1,0,0,0,.355.764Zm8.231-1.764L11,20.119,8.414,17.533,11,14.947ZM4,5.516l6.606,7-.313.313-4,4-.35.35L4,15.536Z"/><path d="M61.383,31.076a1,1,0,0,0-1.09.217l-14,14a1,1,0,0,0,0,1.414l.793.793-3.924,3.924A9.661,9.661,0,0,0,38,50c-4.411,0-8,2.691-8,6s3.589,6,8,6,8-2.691,8-6a4.965,4.965,0,0,0-1.308-3.278L48.5,48.914l.793.793a1,1,0,0,0,1.414,0l11-11A1,1,0,0,0,62,38V32A1,1,0,0,0,61.383,31.076ZM38,60c-3.252,0-6-1.832-6-4s2.748-4,6-4,6,1.832,6,4S41.252,60,38,60ZM60,37.586l-10,10L48.414,46,60,34.414Z"/><path d="M32,34a2.533,2.533,0,0,1,2.507,2.124l2.007,12.041,1.972-.33L36.479,35.794a4.541,4.541,0,0,0-8.958,0L24.5,53.92a2.489,2.489,0,0,1-4.921-.072L16.991,34.865a1,1,0,0,0-.143-.4l-.556-.89a28.166,28.166,0,0,1-3.61-8.8l-1.953.436A30.174,30.174,0,0,0,14.6,34.64l.442.708,2.56,18.77a4.488,4.488,0,0,0,8.874.132l3.021-18.126A2.533,2.533,0,0,1,32,34Z"/><path d="M22.616,8a10.559,10.559,0,0,1,4.181.858,13.259,13.259,0,0,0,10.406,0A10.616,10.616,0,0,1,52,18.616,28.2,28.2,0,0,1,47.708,33.58l-.556.89a1,1,0,0,0-.143.4l-.818,6,1.981.27.79-5.787.442-.708A30.2,30.2,0,0,0,54,18.616,12.616,12.616,0,0,0,36.415,7.02a11.262,11.262,0,0,1-8.83,0,12.616,12.616,0,0,0-14.327,3.134L14.742,11.5A10.636,10.636,0,0,1,22.616,8Z"/><text x="0" y="79" fill="#000000" font-size="5px" font-weight="bold" font-family="'Helvetica Neue', Helvetica, Arial-Unicode, Arial, Sans-serif">Created by monkik</text><text x="0" y="84" fill="#000000" font-size="5px" font-weight="bold" font-family="'Helvetica Neue', Helvetica, Arial-Unicode, Arial, Sans-serif">from the Noun Project</text></svg>