<svg xmlns="http://www.w3.org/2000/svg" xmlns:xlink="http://www.w3.org/1999/xlink" version="1.1" x="0px" y="0px" viewBox="0 0 64 80" style="enable-background:new 0 0 64 64;" xml:space="preserve"><circle cx="11" cy="13" r="3"/><circle cx="21" cy="13" r="3"/><circle cx="48" cy="13" r="3"/><circle cx="16" cy="7" r="3"/><polygon points="26,9 37,9 37,12 43,7 37,2 37,5 26,5 "/><path d="M15.95,34c-2.652,0-5.123,0.751-7.237,2.032c0.711,0.215,1.482,0.399,2.298,0.543c3.125,0.564,6.756,0.563,9.873,0.001  c0.818-0.145,1.591-0.329,2.302-0.544C21.072,34.751,18.602,34,15.95,34z"/><path d="M16.95,38.979v3.007c1.361-0.021,2.699-0.083,4.005-0.188c-0.356-1.077-0.81-2.083-1.351-3.015  C18.739,38.885,17.853,38.951,16.95,38.979z"/><path d="M28.869,53.396c0.572-1.368,0.92-2.849,1.03-4.396h-5.982c-0.052,1.169-0.19,2.321-0.423,3.444  C25.38,52.674,27.18,52.995,28.869,53.396z"/><path d="M29.899,47c-0.11-1.547-0.458-3.028-1.03-4.396c-1.689,0.401-3.489,0.722-5.375,0.952c0.233,1.121,0.371,2.273,0.423,3.444  H29.899z"/><path d="M25.144,37.46c-1.014,0.406-2.164,0.738-3.438,0.989c0.515,0.986,0.937,2.042,1.276,3.152  c1.728-0.202,3.381-0.481,4.939-0.83C27.169,39.527,26.233,38.411,25.144,37.46z"/><path d="M16.95,43.986V47h4.968c-0.054-1.102-0.197-2.185-0.428-3.237C20.013,43.891,18.494,43.962,16.95,43.986z"/><path d="M21.707,57.552c1.265,0.249,2.431,0.584,3.441,0.985c1.088-0.95,2.023-2.065,2.774-3.307  c-1.557-0.349-3.211-0.628-4.939-0.83C22.645,55.508,22.222,56.564,21.707,57.552z"/><path d="M21.917,49H16.95v3.014c1.544,0.023,3.063,0.095,4.54,0.223C21.72,51.183,21.863,50.101,21.917,49z"/><path d="M16.95,57.044c0.893,0.028,1.771,0.093,2.64,0.196c0.547-0.94,1.006-1.954,1.365-3.038  c-1.305-0.105-2.643-0.167-4.005-0.188V57.044z"/><path d="M2,47h5.982c0.052-1.169,0.19-2.321,0.423-3.444c-1.886-0.23-3.686-0.551-5.375-0.952C2.458,43.972,2.11,45.453,2,47z"/><path d="M8.405,52.444C8.172,51.323,8.034,50.171,7.982,49H2c0.11,1.547,0.458,3.028,1.03,4.396  C4.719,52.995,6.519,52.674,8.405,52.444z"/><path d="M14.95,47v-3.014c-1.544-0.023-3.063-0.095-4.54-0.223c-0.231,1.055-0.374,2.136-0.428,3.237H14.95z"/><path d="M14.95,41.986v-3.007c-0.903-0.028-1.788-0.094-2.653-0.197c-0.541,0.933-0.996,1.94-1.351,3.015  C12.25,41.902,13.588,41.965,14.95,41.986z"/><path d="M23.189,59.966c-0.71-0.214-1.482-0.397-2.301-0.541c-3.149-0.564-6.73-0.564-9.875,0c-0.82,0.145-1.593,0.328-2.303,0.542  C10.824,61.248,13.296,62,15.95,62S21.075,61.248,23.189,59.966z"/><path d="M10.41,52.237c1.476-0.128,2.995-0.2,4.54-0.223V49H9.982C10.036,50.102,10.179,51.185,10.41,52.237z"/><path d="M14.95,57.044v-3.03c-1.361,0.021-2.699,0.083-4.005,0.188c0.359,1.086,0.818,2.099,1.364,3.038  C13.178,57.138,14.056,57.072,14.95,57.044z"/><path d="M3.977,40.77c1.557,0.349,3.211,0.628,4.939,0.83c0.338-1.108,0.761-2.164,1.276-3.152c-1.272-0.25-2.423-0.582-3.437-0.988  C5.666,38.411,4.73,39.527,3.977,40.77z"/><path d="M3.977,55.23c0.752,1.242,1.687,2.357,2.774,3.307c1.009-0.401,2.175-0.736,3.441-0.985  c-0.514-0.987-0.937-2.042-1.276-3.152C7.188,54.602,5.535,54.88,3.977,55.23z"/><path d="M43.112,36.575c3.125,0.564,6.756,0.563,9.873,0.001c0.818-0.145,1.591-0.329,2.302-0.544C53.173,34.751,50.703,34,48.05,34  s-5.123,0.751-7.237,2.032C41.524,36.247,42.296,36.431,43.112,36.575z"/><path d="M49.05,38.979v3.007c1.361-0.021,2.699-0.083,4.005-0.188c-0.356-1.077-0.81-2.083-1.351-3.015  C50.839,38.885,49.953,38.951,49.05,38.979z"/><path d="M55.595,52.444c1.886,0.23,3.686,0.551,5.375,0.952C61.542,52.028,61.89,50.547,62,49h-5.982  C55.966,50.169,55.828,51.321,55.595,52.444z"/><path d="M55.595,43.556c0.233,1.121,0.371,2.273,0.423,3.444H62c-0.11-1.547-0.458-3.028-1.03-4.396  C59.281,43.005,57.481,43.326,55.595,43.556z"/><path d="M57.245,37.46c-1.014,0.406-2.164,0.738-3.438,0.989c0.515,0.986,0.937,2.042,1.276,3.152  c1.728-0.202,3.381-0.481,4.939-0.83C59.27,39.527,58.334,38.411,57.245,37.46z"/><path d="M53.59,43.763c-1.476,0.128-2.995,0.2-4.54,0.223V47h4.968C53.964,45.898,53.821,44.815,53.59,43.763z"/><path d="M60.023,55.23c-1.557-0.349-3.211-0.628-4.939-0.83c-0.338,1.108-0.761,2.164-1.276,3.152  c1.265,0.249,2.431,0.584,3.441,0.985C58.336,57.587,59.271,56.472,60.023,55.23z"/><path d="M54.018,49H49.05v3.014c1.544,0.023,3.063,0.095,4.54,0.223C53.821,51.183,53.964,50.101,54.018,49z"/><path d="M49.05,57.044c0.893,0.028,1.771,0.093,2.64,0.196c0.547-0.94,1.006-1.954,1.365-3.038  c-1.305-0.105-2.643-0.167-4.005-0.188V57.044z"/><path d="M34.101,47h5.982c0.052-1.169,0.19-2.321,0.423-3.444c-1.886-0.23-3.686-0.551-5.375-0.952  C34.559,43.972,34.211,45.453,34.101,47z"/><path d="M35.131,53.396c1.689-0.401,3.489-0.722,5.375-0.952c-0.233-1.121-0.371-2.273-0.423-3.444h-5.982  C34.211,50.547,34.559,52.028,35.131,53.396z"/><path d="M47.05,43.986c-1.544-0.023-3.063-0.095-4.54-0.223c-0.231,1.055-0.374,2.136-0.428,3.237h4.968V43.986z"/><path d="M47.05,38.979c-0.903-0.028-1.788-0.094-2.653-0.197c-0.541,0.933-0.996,1.94-1.351,3.015  c1.305,0.105,2.643,0.167,4.005,0.188V38.979z"/><path d="M52.989,59.425c-3.149-0.564-6.73-0.564-9.875,0c-0.82,0.145-1.593,0.328-2.303,0.542C42.925,61.248,45.397,62,48.05,62  s5.125-0.752,7.24-2.034C54.58,59.753,53.808,59.569,52.989,59.425z"/><path d="M47.05,49h-4.968c0.054,1.102,0.197,2.185,0.428,3.237c1.476-0.128,2.995-0.2,4.54-0.223V49z"/><path d="M47.05,57.044v-3.03c-1.361,0.021-2.699,0.083-4.005,0.188c0.359,1.086,0.818,2.099,1.364,3.038  C45.279,57.138,46.157,57.072,47.05,57.044z"/><path d="M36.078,40.77c1.557,0.349,3.211,0.628,4.939,0.83c0.338-1.108,0.761-2.164,1.276-3.152  c-1.272-0.25-2.423-0.582-3.437-0.988C37.767,38.411,36.831,39.527,36.078,40.77z"/><path d="M41.017,54.4c-1.728,0.202-3.381,0.481-4.939,0.83c0.752,1.242,1.687,2.357,2.774,3.307  c1.009-0.401,2.175-0.736,3.441-0.985C41.779,56.565,41.356,55.509,41.017,54.4z"/><path d="M6,20v5l2,1v8.158c1.807-1.047,3.834-1.749,6-2.02V26l2-1l2,1v6.138c2.166,0.271,4.193,0.973,6,2.02V26l2-1v-5  c0-2.209-1.791-4-4-4h-1h-1c-2.209,0-4,1.791-4,4c0-2.209-1.791-4-4-4h-1h-1C7.791,16,6,17.791,6,20z"/><path d="M43,20v5l2,1v6.291C45.973,32.106,46.974,32,48,32s2.027,0.106,3,0.291V26l2-1v-5c0-2.209-1.791-4-4-4h-1h-1  C44.791,16,43,17.791,43,20z"/><text x="0" y="79" fill="#000000" font-size="5px" font-weight="bold" font-family="'Helvetica Neue', Helvetica, Arial-Unicode, Arial, Sans-serif">Created by Nithinan Tatah</text><text x="0" y="84" fill="#000000" font-size="5px" font-weight="bold" font-family="'Helvetica Neue', Helvetica, Arial-Unicode, Arial, Sans-serif">from the Noun Project</text></svg>