<svg height='100px' width='100px'  fill="#000000" xmlns="http://www.w3.org/2000/svg" xmlns:xlink="http://www.w3.org/1999/xlink" version="1.1" x="0px" y="0px" viewBox="0 0 100 100" enable-background="new 0 0 100 100" xml:space="preserve"><path d="M55.409,50.816l-26-8c-0.455-0.14-0.949-0.056-1.332,0.227s-0.608,0.73-0.608,1.207v8c0,0.395,0.159,0.781,0.438,1.061  s0.666,0.439,1.062,0.439h26c0.742,0,1.372-0.543,1.483-1.277C56.562,51.739,56.119,51.035,55.409,50.816z M30.469,46.281  l14.524,4.469H30.469V46.281z"></path><path d="M93.493,68.634c-0.563-0.737-1.301-1.366-2.201-1.771l-13.43-5.968c-0.461-0.205-0.95-0.323-1.449-0.325  c-0.111-1.391-0.381-2.967-0.727-4.146l-1.563-5.21c-0.301-0.978-0.875-1.817-1.573-2.536c-0.705-0.711-1.533-1.302-2.505-1.62  l-5.467-1.754l-6.492-23.051c-0.051-0.176-0.124-0.338-0.193-0.503h4.075c0.828,0,1.5-0.672,1.5-1.5c0-0.829-0.672-1.5-1.5-1.5h-8.5  h-3.5h-14.5c-1.095,0.004-2.082,0.425-2.858,1.067c-0.775,0.646-1.371,1.539-1.577,2.613l-2.143,11.427l-7.083-2.272  c-1.535-0.481-3.73-0.825-5.339-0.835h-6c-2.206,0.014-3.993,1.756-4.063,3.96l-0.87,33.972H5.534l-0.003,0.132  c-0.001,1.079,0.438,2.073,1.149,2.782c0.707,0.711,1.704,1.154,2.788,1.153h5.022c1.498,4.919,6.068,8.5,11.478,8.5  c5.413,0,9.986-3.588,11.481-8.513l7.036-0.005c1.493,4.928,6.067,8.518,11.482,8.518c5.421,0,9.999-3.598,11.486-8.534l5.015-0.003  c0.348-0.001,0.678-0.06,0.999-0.144v3.181c-0.004,0.981,0.369,1.916,1.025,2.578c0.651,0.667,1.576,1.048,2.54,1.045  c0.214,0,0.43-0.018,0.646-0.054l13.068-2.178c0.84-0.143,1.594-0.396,2.24-0.762c0.324-0.188,0.625-0.4,0.904-0.71  c0.139-0.156,0.273-0.34,0.383-0.573c0.109-0.232,0.192-0.523,0.191-0.846c0-0.55,0-1.9,0.001-3  C94.456,70.23,94.044,69.375,93.493,68.634z M53.469,21.75c0.29-0.005,0.71,0.135,1.058,0.402c0.351,0.262,0.599,0.629,0.672,0.909  l5.917,21.132l-16.038-5.145L41.782,21.75h8.187H53.469z M33.981,22.983c0.049-0.277,0.245-0.612,0.544-0.857  c0.296-0.249,0.662-0.38,0.943-0.376h3.259l3.105,16.259l-10.063-3.228L33.981,22.983z M25.969,78.25c-4.963,0-9-4.037-9-9  s4.037-9,9-9s9,4.037,9,9S30.932,78.25,25.969,78.25z M55.969,78.25c-4.963,0-9-4.037-9-9s4.037-9,9-9s9,4.037,9,9  S60.932,78.25,55.969,78.25z M73.468,68.711c0,0.274-0.108,0.517-0.295,0.706c-0.188,0.187-0.432,0.295-0.705,0.296l-4.522,0.003  c0.006-0.156,0.023-0.309,0.023-0.466c0-6.626-5.373-12-12-12s-12,5.374-12,12c0,0.163,0.019,0.321,0.024,0.482l-6.049,0.004  c0.006-0.163,0.024-0.323,0.024-0.487c0-6.626-5.373-12-12-12s-12,5.374-12,12c0,0.169,0.019,0.333,0.025,0.5H9.469  c-0.53-0.002-0.935-0.413-0.938-0.935l0.001-0.029l0.871-33.999c0.002-0.543,0.521-1.05,1.065-1.038h6  c1.142-0.011,3.339,0.333,4.423,0.692L69.13,49.915c0.338,0.101,0.861,0.431,1.279,0.865c0.426,0.426,0.746,0.957,0.842,1.296  l1.563,5.21c0.341,1.104,0.664,3.308,0.655,4.464l-0.001,1.991c0,0.003,0,0.006,0,0.009v3.14V68.711z M90.255,74.182l-13.066,2.178  l-0.154,0.013c-0.205-0.004-0.313-0.064-0.402-0.15c-0.084-0.09-0.16-0.217-0.163-0.473v-12c-0.001-0.076,0.007-0.128,0.015-0.169  c0.041,0.01,0.094,0.026,0.162,0.057l13.429,5.968c0.357,0.154,0.762,0.483,1.028,0.84c0.276,0.352,0.379,0.725,0.366,0.805  c-0.001,0.864-0.001,1.877-0.001,2.541c-0.088,0.049-0.198,0.103-0.331,0.153C90.89,74.041,90.581,74.127,90.255,74.182z"></path><path d="M55.969,64.25c-2.76,0-5,2.239-5,5c0,2.761,2.24,5,5,5s5-2.239,5-5C60.969,66.489,58.729,64.25,55.969,64.25z M55.969,71.25  c-1.104,0-2-0.897-2-2s0.896-2,2-2s2,0.897,2,2S57.072,71.25,55.969,71.25z"></path><path d="M25.969,64.25c-2.76,0-5,2.239-5,5c0,2.761,2.24,5,5,5s5-2.239,5-5C30.969,66.489,28.729,64.25,25.969,64.25z M25.969,71.25  c-1.104,0-2-0.897-2-2s0.896-2,2-2s2,0.897,2,2S27.072,71.25,25.969,71.25z"></path></svg>