<svg height='100px' width='100px'  fill="#000000" xmlns="http://www.w3.org/2000/svg" xmlns:xlink="http://www.w3.org/1999/xlink" version="1.1" x="0px" y="0px" viewBox="0 0 100 100" enable-background="new 0 0 100 100" xml:space="preserve"><path d="M95.909,46.461L74.091,28.539C72.391,27.143,69.2,26,67,26H9c-2.2,0-4.353,1.765-4.785,3.922L1.785,42.078  C1.353,44.235,1,47.8,1,50v14.001L10,66c0-6.627,5.373-12,12-12s12,5.373,12,12h34c0-6.627,5.373-12,12-12s12,5.373,12,12l7-2V53  C99,50.8,97.609,47.857,95.909,46.461z M56,42.809L37,42V32h19V42.809z M62,43.064V32h5c0.813,0,2.654,0.659,3.282,1.175  l13.149,10.801L62,43.064z"></path><circle cx="22" cy="66" r="8"></circle><circle cx="80" cy="66" r="8"></circle></svg>