<svg height='100px' width='100px'  fill="#000000" xmlns="http://www.w3.org/2000/svg" xmlns:xlink="http://www.w3.org/1999/xlink" version="1.1" x="0px" y="0px" viewBox="0 0 100 100" enable-background="new 0 0 100 100" xml:space="preserve"><g><path d="M58.849,18.928C56.456,12.616,50.298,8.38,43.502,8.38c-6.878,0-13.062,4.306-15.41,10.722v13.221   l-0.415-0.004c-4.214-0.044-7.642-3.477-7.642-7.653c0-3.395,2.27-6.382,5.544-7.335c3.009-7.246,10.022-11.916,17.923-11.916   c7.911,0,14.928,4.679,17.932,11.937c3.232,0.976,5.472,3.955,5.472,7.314c0,4.176-3.428,7.609-7.642,7.653l-0.415,0.004V18.928z"></path><path d="M43.47,11.435c-7.355,0-13.317,5.91-13.317,13.201c0,1.183,0.172,2.324,0.466,3.415   c1.149,0.833,2.502,1.565,3.955,2.117c2.526,0.959,8.713,0.844,8.882,0.844c2.523,0,4.568,2.027,4.568,4.528   c0,0.563-0.108,1.099-0.298,1.596c5.265-1.762,9.06-6.687,9.06-12.5C56.787,17.345,50.825,11.435,43.47,11.435z"></path><path d="M43.019,38.959h-3.202c-1.791,0-3.256-1.465-3.256-3.256v0c0-1.791,1.465-3.256,3.256-3.256h3.202   c1.791,0,3.256,1.465,3.256,3.256v0C46.275,37.494,44.81,38.959,43.019,38.959z"></path><path d="M50.328,80.049c0-9.504,7.704-17.208,17.208-17.208c0.004,0,0.009,0.001,0.013,0.001l-0.774-10.435   c0-6.282-4.55-11.374-10.164-11.374H30.328c-5.613,0-10.164,5.092-10.164,11.374l-2.093,28.216h32.286   C50.351,80.431,50.328,80.243,50.328,80.049z"></path><path d="M55.825,86.909c0.497,0.844,1.079,1.628,1.736,2.346h20.642c0.657-0.718,1.239-1.503,1.737-2.346H55.825z"></path><path d="M54.102,82.214c0.14,0.809,0.35,1.592,0.622,2.348h26.317c0.272-0.755,0.482-1.538,0.622-2.348H54.102z"></path><path d="M75.423,91.603H60.342C62.52,93,65.103,93.82,67.883,93.82C70.662,93.82,73.246,93,75.423,91.603z"></path><path d="M81.676,77.512h-9.336v-2.346h8.732c-0.289-0.82-0.65-1.605-1.08-2.348h-7.653v-2.346h5.943   c-0.802-0.892-1.71-1.685-2.716-2.348h-3.227v-1.567c-1.402-0.471-2.897-0.737-4.458-0.737c-7.733,0-14,6.267-14,14   c0,0.013,0.002,0.026,0.002,0.039H81.88c0-0.013,0.002-0.026,0.002-0.039C81.882,79.032,81.801,78.264,81.676,77.512z    M57.343,78.788l-0.657-0.478l-0.662,0.478l0.245-0.779l-0.652-0.488l0.81-0.005l0.259-0.778v-0.005l0.254,0.778l0.81,0.01   l-0.652,0.483L57.343,78.788z M57.103,74.101l0.245,0.784l-0.657-0.478l-0.663,0.478l0.245-0.779l-0.652-0.489l0.81-0.005   l0.26-0.778V72.83l0.254,0.778l0.81,0.01L57.103,74.101z M59.631,76.824l-0.657-0.478l-0.663,0.478l0.245-0.779l-0.652-0.488   l0.81-0.004l0.26-0.779l0.254,0.779l0.81,0.004l-0.652,0.485L59.631,76.824z M59.391,72.133l0.245,0.783l-0.657-0.478l-0.663,0.478   l0.244-0.779l-0.652-0.488l0.811-0.004l0.26-0.779l0.254,0.779l0.81,0.004L59.391,72.133z M61.944,78.788l-0.657-0.478   l-0.663,0.478l0.245-0.779l-0.652-0.488l0.81-0.005l0.26-0.778v-0.005l0.255,0.778l0.81,0.01L61.7,78.004L61.944,78.788z    M61.705,74.101l0.244,0.784l-0.657-0.478l-0.663,0.478l0.245-0.779l-0.652-0.489l0.81-0.005l0.26-0.778V72.83l0.256,0.778   l0.81,0.01L61.705,74.101z M61.71,70.194l0.244,0.784L61.297,70.5l-0.663,0.478l0.245-0.779l-0.652-0.488l0.81-0.005l0.259-0.778   v-0.005l0.254,0.778l0.811,0.01L61.71,70.194z M64.232,76.824l-0.657-0.478l-0.663,0.478l0.245-0.779l-0.652-0.488l0.81-0.004   l0.26-0.779l0.255,0.779l0.81,0.004l-0.652,0.485L64.232,76.824z M63.993,72.133l0.244,0.783l-0.657-0.478l-0.663,0.478   l0.245-0.779l-0.652-0.488l0.81-0.004l0.259-0.779l0.254,0.779l0.812,0.004L63.993,72.133z M63.997,68.235l0.245,0.784   l-0.657-0.478l-0.663,0.478l0.245-0.779l-0.652-0.488l0.81-0.005l0.26-0.778v-0.005l0.254,0.778l0.81,0.01L63.997,68.235z    M66.535,78.788l-0.657-0.478l-0.663,0.478l0.245-0.779l-0.652-0.488l0.81-0.005l0.26-0.778v-0.005l0.254,0.778l0.81,0.01   l-0.652,0.483L66.535,78.788z M66.295,74.101l0.245,0.784l-0.657-0.478l-0.663,0.478l0.244-0.779l-0.652-0.489l0.812-0.005   l0.259-0.778V72.83l0.254,0.778l0.81,0.01L66.295,74.101z M66.301,70.194l0.245,0.784L65.888,70.5l-0.663,0.478l0.244-0.779   l-0.652-0.488l0.81-0.005l0.261-0.778v-0.005l0.254,0.778l0.81,0.01L66.301,70.194z M68.823,76.824l-0.657-0.478l-0.663,0.478   l0.244-0.779l-0.652-0.488l0.811-0.004l0.26-0.779l0.254,0.779l0.81,0.004l-0.652,0.485L68.823,76.824z M68.583,72.133l0.245,0.783   l-0.657-0.478l-0.662,0.478l0.244-0.779L67.1,71.649l0.81-0.004l0.261-0.779l0.254,0.779l0.81,0.004L68.583,72.133z M68.588,68.235   l0.244,0.784l-0.656-0.478l-0.663,0.478l0.244-0.779l-0.652-0.488l0.81-0.005l0.261-0.778v-0.005l0.254,0.778l0.81,0.01   L68.588,68.235z M71.141,78.788l-0.657-0.478l-0.663,0.478l0.245-0.779l-0.652-0.488l0.81-0.005l0.26-0.778v-0.005l0.254,0.778   l0.811,0.01l-0.652,0.483L71.141,78.788z M70.901,74.101l0.245,0.784l-0.657-0.478l-0.663,0.478l0.245-0.779l-0.652-0.489   l0.81-0.005l0.26-0.778V72.83l0.254,0.778l0.81,0.01L70.901,74.101z M70.906,70.194l0.245,0.784L70.494,70.5l-0.662,0.478   l0.245-0.779l-0.652-0.488l0.81-0.005l0.259-0.778v-0.005l0.254,0.778l0.81,0.01L70.906,70.194z"></path></g></svg>