<svg xmlns="http://www.w3.org/2000/svg" xmlns:xlink="http://www.w3.org/1999/xlink" version="1.1" x="0px" y="0px" viewBox="0 0 193.018 286.5175" style="enable-background:new 0 0 193.018 229.214;" xml:space="preserve"><g><ellipse transform="matrix(0.2268 -0.9739 0.9739 0.2268 87.7557 155.5378)" cx="141.836" cy="22.5" rx="22.495" ry="22.495"/><path d="M173.66,55.551c-4.992-2.701-8.914-3.402-9.507-3.512c-0.378-0.064-0.754-0.091-1.127-0.102   c-0.601-0.15-1.226-0.238-1.873-0.238h-38.635c-2.464,0-4.653,1.156-6.067,2.951c-0.683,0.672-1.26,1.472-1.678,2.396l0,0   c-0.26,0.567-3.896,7.925-11.674,15.247c-7.936,7.44-19.815,14.898-37.617,16.23c-4.407,0.321-7.718,4.155-7.395,8.562   c0.012,0.17,0.038,0.336,0.061,0.503c2.306-0.236,4.577-0.36,6.771-0.36c2.775,0,5.673,0.19,8.612,0.568l1.743,0.224v1.76v3.618   c0.278-0.05,0.546-0.11,0.821-0.163l1.136-3.121l0.599-1.651l1.717,0.382c2.213,0.494,4.397,1.105,6.546,1.821   c12.483-4.141,21.981-10.88,28.697-17.418v23.892c-0.081,0.57-0.137,1.149-0.137,1.742v10.46l0.137,0.149l0.62,0.674l-0.62,0.738   l-0.137,0.163v2.484l0.137-0.079l0.763-0.44l1.521-0.879l1.067,1.396c2.867,3.745,5.316,7.772,7.324,12   c0.456,0.96,0.896,1.928,1.307,2.908l0.676,1.623l-1.523,0.879l-4.965,2.866l5.651-0.995l1.731-0.307l0.525,1.678   c1.711,5.471,2.711,11.18,2.969,16.971l0.078,1.754l-1.729,0.304l-5.629,0.993l5.629,0.992l1.729,0.303l-0.078,1.754   c-0.258,5.791-1.258,11.5-2.969,16.973l-0.525,1.678l-1.731-0.307l-5.651-0.995l4.965,2.866l1.523,0.879l-0.676,1.623   c-2.211,5.297-5.113,10.313-8.631,14.908l-1.067,1.397l-1.521-0.879l-0.899-0.519v2.484l0.757,0.9l-0.757,0.823v7.72   c0,6.828,5.537,12.363,12.363,12.363c6.828,0,12.365-5.535,12.365-12.363v-81.273h4.771v81.273c0,6.828,5.537,12.363,12.363,12.363   c6.828,0,12.365-5.535,12.365-12.363v-77.311c0.398,0.287,0.823,0.545,1.283,0.761c1.1,0.516,2.257,0.761,3.396,0.761   c3.005,0,5.884-1.701,7.247-4.601c8.721-18.593,12.197-33.213,12.209-45.082c0.01-7.976-1.627-14.695-4.287-20.097   C184.744,63.107,178.619,58.226,173.66,55.551z M168.882,123.918v-15.037V71.506c0.627,0.491,1.251,1.021,1.849,1.635   c3.179,3.338,6.212,8.301,6.287,18.207C177.031,99.008,174.951,109.676,168.882,123.918z"/><path d="M108.428,198.989l6.226,3.594l1.898,1.096c3.377-4.412,6.205-9.266,8.374-14.465l-8.132-4.693   c0.323-0.827,0.628-1.663,0.912-2.508l9.252,1.631c1.638-5.234,2.624-10.753,2.88-16.463l-9.246-1.63   c0.012-0.443,0.033-0.886,0.033-1.331c0-0.447-0.022-0.888-0.033-1.332l9.246-1.631c-0.256-5.709-1.242-11.229-2.88-16.462   l-9.252,1.632c-0.284-0.846-0.589-1.682-0.913-2.508l8.133-4.695c-0.521-1.247-1.08-2.472-1.675-3.678   c-1.884-3.822-4.132-7.431-6.699-10.785l-1.762,1.017l-0.137,0.079l-6.226,3.594c-0.555-0.693-1.127-1.373-1.713-2.04l6.031-7.188   c-3.779-4.107-8.086-7.716-12.805-10.741l-6.018,7.172c-0.76-0.464-1.531-0.909-2.313-1.338l3.203-8.801   c-3.838-1.993-7.9-3.608-12.137-4.808c-1.177-0.333-2.364-0.641-3.567-0.909l-0.722,1.982l-2.482,6.823   c-0.871-0.175-1.747-0.33-2.631-0.464v-5.424v-3.937c-2.738-0.351-5.523-0.553-8.356-0.553c-2.109,0-4.191,0.112-6.247,0.314   c-0.707,0.069-1.41,0.149-2.109,0.239v9.36c-0.884,0.134-1.76,0.289-2.629,0.464l-3.205-8.805   c-5.535,1.232-10.801,3.17-15.705,5.716l3.204,8.802c-0.782,0.429-1.554,0.874-2.312,1.338l-6.02-7.173   c-4.719,3.026-9.024,6.634-12.805,10.741l6.032,7.188c-0.587,0.667-1.159,1.347-1.714,2.04l-8.124-4.69   c-3.377,4.412-6.205,9.265-8.374,14.464l8.133,4.695c-0.324,0.826-0.627,1.662-0.912,2.507l-9.253-1.631   c-1.638,5.233-2.624,10.753-2.88,16.462l9.246,1.631c-0.01,0.444-0.033,0.885-0.033,1.332c0,0.445,0.023,0.887,0.033,1.331   L0,167.181c0.256,5.71,1.242,11.229,2.88,16.463l9.252-1.631c0.284,0.845,0.589,1.681,0.913,2.507l-8.133,4.694   c2.168,5.199,4.997,10.053,8.374,14.465l8.124-4.69c0.555,0.694,1.127,1.374,1.713,2.04l-6.031,7.189   c3.779,4.106,8.086,7.716,12.805,10.741l6.018-7.172c0.76,0.463,1.53,0.908,2.313,1.336l-3.203,8.803   c4.902,2.545,10.17,4.482,15.704,5.716l3.204-8.804c0.871,0.174,1.747,0.33,2.631,0.464v9.36c2.738,0.352,5.523,0.553,8.356,0.553   s5.618-0.201,8.356-0.553v-9.36c0.884-0.134,1.76-0.29,2.631-0.464l3.204,8.804c5.534-1.233,10.801-3.171,15.704-5.716   l-3.203-8.802c0.782-0.429,1.553-0.874,2.313-1.337l6.018,7.172c4.719-3.025,9.025-6.635,12.805-10.741l-6.031-7.189   C107.301,200.363,107.873,199.683,108.428,198.989z M64.919,183.718c-10.769,0-19.498-8.73-19.498-19.498   c0-10.77,8.729-19.498,19.498-19.498c10.769,0,19.498,8.729,19.498,19.498C84.417,174.988,75.688,183.718,64.919,183.718z"/><circle cx="64.918" cy="164.22" r="12.5"/></g><text x="0" y="244.214" fill="#000000" font-size="5px" font-weight="bold" font-family="'Helvetica Neue', Helvetica, Arial-Unicode, Arial, Sans-serif">Created by Gan Khoon Lay</text><text x="0" y="249.214" fill="#000000" font-size="5px" font-weight="bold" font-family="'Helvetica Neue', Helvetica, Arial-Unicode, Arial, Sans-serif">from the Noun Project</text></svg>